<svg width="596" height="78" viewBox="0 0 596 78" fill="none" xmlns="http://www.w3.org/2000/svg">
<path d="M0.986969 0.759521H595.454L560.529 77.6252H28.4811L0.986969 0.759521Z" fill="#3D4D9E"/>
<path d="M200.514 43.4294C200.424 45.3966 199.893 47.1374 198.922 48.6516C197.952 50.1529 196.586 51.3177 194.826 52.1459C193.079 52.9742 191.08 53.3884 188.828 53.3884C185.113 53.3884 182.188 52.1783 180.053 49.7581C177.917 47.338 176.85 43.9212 176.85 39.508V38.1103C176.85 35.3406 177.329 32.9205 178.286 30.8497C179.257 28.7661 180.648 27.1612 182.46 26.0353C184.272 24.8964 186.369 24.3269 188.75 24.3269C192.18 24.3269 194.936 25.2329 197.02 27.0448C199.104 28.8437 200.288 31.3286 200.573 34.4994H193.778C193.726 32.7781 193.293 31.5421 192.477 30.7915C191.662 30.0409 190.419 29.6655 188.75 29.6655C187.055 29.6655 185.812 30.2997 185.023 31.568C184.233 32.8364 183.819 34.8618 183.78 37.6443V39.6439C183.78 42.6594 184.156 44.8143 184.906 46.1085C185.67 47.4027 186.977 48.0498 188.828 48.0498C190.394 48.0498 191.591 47.6809 192.419 46.9432C193.247 46.2055 193.687 45.0343 193.739 43.4294H200.514ZM210.551 47.7586H222.412V53.0001H203.737V24.7346H210.551V47.7586ZM232.546 53.0001H225.751V24.7346H232.546V53.0001ZM260.151 43.4294C260.061 45.3966 259.53 47.1374 258.56 48.6516C257.589 50.1529 256.224 51.3177 254.463 52.1459C252.716 52.9742 250.717 53.3884 248.465 53.3884C244.75 53.3884 241.825 52.1783 239.69 49.7581C237.555 47.338 236.487 43.9212 236.487 39.508V38.1103C236.487 35.3406 236.966 32.9205 237.923 30.8497C238.894 28.7661 240.285 27.1612 242.097 26.0353C243.909 24.8964 246.006 24.3269 248.387 24.3269C251.817 24.3269 254.573 25.2329 256.657 27.0448C258.741 28.8437 259.925 31.3286 260.21 34.4994H253.415C253.363 32.7781 252.93 31.5421 252.114 30.7915C251.299 30.0409 250.057 29.6655 248.387 29.6655C246.692 29.6655 245.449 30.2997 244.66 31.568C243.87 32.8364 243.456 34.8618 243.417 37.6443V39.6439C243.417 42.6594 243.793 44.8143 244.543 46.1085C245.307 47.4027 246.614 48.0498 248.465 48.0498C250.031 48.0498 251.228 47.6809 252.056 46.9432C252.884 46.2055 253.324 45.0343 253.376 43.4294H260.151ZM272.984 42.4782L270.188 45.5455V53.0001H263.374V24.7346H270.188V37.1978L272.556 33.6064L278.652 24.7346H287.077L277.526 37.2367L287.077 53.0001H279.002L272.984 42.4782ZM314.761 47.7198H305.423L303.792 53.0001H296.512L306.879 24.7346H313.285L323.729 53.0001H316.411L314.761 47.7198ZM307.054 42.4588H313.13L310.082 32.6552L307.054 42.4588ZM349.355 39.4498C349.355 42.0641 348.921 44.3483 348.054 46.3026C347.187 48.2439 345.99 49.8034 344.463 50.9812L349.025 54.592L344.812 58.164L338.736 53.2719C338.166 53.3496 337.597 53.3884 337.027 53.3884C334.62 53.3884 332.485 52.8319 330.621 51.7189C328.757 50.6058 327.301 49.014 326.253 46.9432C325.218 44.8725 324.681 42.4911 324.642 39.7992V38.3044C324.642 35.5218 325.147 33.0758 326.156 30.9662C327.179 28.8567 328.628 27.226 330.505 26.0741C332.394 24.9223 334.555 24.3463 336.989 24.3463C339.383 24.3463 341.518 24.9158 343.395 26.0547C345.272 27.1936 346.728 28.8178 347.763 30.9274C348.811 33.024 349.342 35.4312 349.355 38.1491V39.4498ZM342.424 38.2656C342.424 35.4571 341.952 33.3281 341.007 31.8786C340.075 30.4162 338.736 29.685 336.989 29.685C335.19 29.685 333.837 30.4032 332.931 31.8398C332.025 33.2764 331.566 35.3795 331.553 38.1491V39.4498C331.553 42.2323 332.012 44.3678 332.931 45.8561C333.85 47.3315 335.216 48.0692 337.027 48.0692C338.762 48.0692 340.088 47.338 341.007 45.8755C341.939 44.413 342.411 42.31 342.424 39.5662V38.2656ZM375 24.7346V43.2353C375 45.3319 374.553 47.1503 373.66 48.6904C372.767 50.2176 371.486 51.3824 369.816 52.1848C368.147 52.9872 366.173 53.3884 363.895 53.3884C360.453 53.3884 357.741 52.4954 355.761 50.7094C353.781 48.9234 352.771 46.4773 352.733 43.3712V24.7346H359.585V43.5071C359.663 46.6003 361.1 48.1468 363.895 48.1468C365.306 48.1468 366.374 47.7586 367.098 46.9821C367.823 46.2055 368.186 44.9437 368.186 43.1965V24.7346H375ZM386.531 53.0001H379.736V24.7346H386.531V53.0001Z" fill="white"/>
</svg>
