<svg width="424" height="56" viewBox="0 0 424 56" fill="none" xmlns="http://www.w3.org/2000/svg">
<path d="M0.839355 0.776611H424L399.14 55.4921H20.4106L0.839355 0.776611Z" fill="url(#paint0_linear)"/>
<path d="M51.8963 30.8128C51.8318 32.2131 51.4541 33.4522 50.7631 34.5301C50.0722 35.5987 49.1003 36.4279 47.8474 37.0175C46.6037 37.6071 45.1803 37.9019 43.5773 37.9019C40.9333 37.9019 38.8513 37.0405 37.3312 35.3177C35.8111 33.595 35.0511 31.1629 35.0511 28.0214V27.0264C35.0511 25.0549 35.3919 23.3321 36.0737 21.8581C36.7646 20.3749 37.755 19.2325 39.0447 18.431C40.3345 17.6203 41.8269 17.215 43.522 17.215C45.9634 17.215 47.9257 17.8599 49.4089 19.1496C50.8921 20.4302 51.7351 22.199 51.9378 24.4561H47.1011C47.0643 23.2308 46.7557 22.351 46.1753 21.8167C45.5949 21.2823 44.7105 21.0152 43.522 21.0152C42.3152 21.0152 41.4308 21.4666 40.8688 22.3694C40.3069 23.2723 40.0121 24.714 39.9844 26.6947V28.1181C39.9844 30.2646 40.2516 31.7985 40.7859 32.7198C41.3295 33.641 42.2599 34.1017 43.5773 34.1017C44.692 34.1017 45.5442 33.8391 46.1338 33.314C46.7234 32.7889 47.0367 31.9551 47.0735 30.8128H51.8963ZM59.0407 33.8944H67.484V37.6255H54.1902V17.5052H59.0407V33.8944ZM74.6975 37.6255H69.8609V17.5052H74.6975V37.6255ZM94.3479 30.8128C94.2834 32.2131 93.9057 33.4522 93.2148 34.5301C92.5238 35.5987 91.5519 36.4279 90.299 37.0175C89.0553 37.6071 87.632 37.9019 86.029 37.9019C83.3849 37.9019 81.3029 37.0405 79.7828 35.3177C78.2627 33.595 77.5027 31.1629 77.5027 28.0214V27.0264C77.5027 25.0549 77.8436 23.3321 78.5253 21.8581C79.2162 20.3749 80.2066 19.2325 81.4964 18.431C82.7861 17.6203 84.2786 17.215 85.9737 17.215C88.415 17.215 90.3773 17.8599 91.8605 19.1496C93.3438 20.4302 94.1867 22.199 94.3894 24.4561H89.5528C89.5159 23.2308 89.2073 22.351 88.6269 21.8167C88.0465 21.2823 87.1621 21.0152 85.9737 21.0152C84.7668 21.0152 83.8824 21.4666 83.3205 22.3694C82.7585 23.2723 82.4637 24.714 82.436 26.6947V28.1181C82.436 30.2646 82.7032 31.7985 83.2375 32.7198C83.7811 33.641 84.7116 34.1017 86.029 34.1017C87.1437 34.1017 87.9959 33.8391 88.5855 33.314C89.1751 32.7889 89.4883 31.9551 89.5251 30.8128H94.3479ZM103.482 30.1356L101.492 32.319V37.6255H96.6419V17.5052H101.492V26.3769L103.178 23.8204L107.517 17.5052H113.515L106.716 26.4045L113.515 37.6255H107.766L103.482 30.1356ZM133.22 33.8667H126.574L125.413 37.6255H120.231L127.61 17.5052H132.17L139.605 37.6255H134.395L133.22 33.8667ZM127.734 30.1218H132.06L129.89 23.1433L127.734 30.1218ZM157.846 27.9799C157.846 29.8408 157.537 31.4669 156.92 32.858C156.303 34.2399 155.45 35.35 154.363 36.1883L157.611 38.7586L154.612 41.3013L150.287 37.819C149.881 37.8742 149.476 37.9019 149.071 37.9019C147.357 37.9019 145.837 37.5057 144.511 36.7134C143.184 35.9212 142.147 34.788 141.401 33.314C140.664 31.84 140.282 30.1449 140.254 28.2286V27.1646C140.254 25.1839 140.614 23.4427 141.332 21.941C142.06 20.4394 143.092 19.2786 144.428 18.4587C145.773 17.6388 147.311 17.2288 149.043 17.2288C150.747 17.2288 152.268 17.6342 153.603 18.4449C154.939 19.2556 155.976 20.4118 156.713 21.9134C157.459 23.4058 157.837 25.1194 157.846 27.054V27.9799ZM152.912 27.1369C152.912 25.1378 152.576 23.6223 151.904 22.5905C151.24 21.5495 150.287 21.029 149.043 21.029C147.763 21.029 146.8 21.5403 146.155 22.5629C145.51 23.5855 145.183 25.0825 145.174 27.054V27.9799C145.174 29.9606 145.501 31.4807 146.155 32.5401C146.809 33.5904 147.781 34.1155 149.071 34.1155C150.305 34.1155 151.25 33.595 151.904 32.554C152.567 31.5129 152.903 30.0159 152.912 28.0628V27.1369ZM176.101 17.5052V30.6746C176.101 32.167 175.783 33.4614 175.147 34.5577C174.511 35.6448 173.599 36.4739 172.411 37.0451C171.222 37.6163 169.818 37.9019 168.196 37.9019C165.746 37.9019 163.816 37.2662 162.406 35.9949C160.996 34.7235 160.278 32.9823 160.25 30.7713V17.5052H165.128V30.8681C165.184 33.0699 166.206 34.1708 168.196 34.1708C169.2 34.1708 169.96 33.8944 170.476 33.3416C170.992 32.7889 171.25 31.8906 171.25 30.6469V17.5052H176.101ZM184.309 37.6255H179.472V17.5052H184.309V37.6255Z" fill="black"/>
<defs>
<linearGradient id="paint0_linear" x1="-4.39448" y1="70.8966" x2="29.8371" y2="-105.773" gradientUnits="userSpaceOnUse">
<stop stop-color="#003F8A"/>
<stop offset="0.518" stop-color="#00D7DF"/>
<stop offset="1" stop-color="#006DF0"/>
</linearGradient>
</defs>
</svg>
