<svg width="310" height="91" viewBox="0 0 310 91" fill="none" xmlns="http://www.w3.org/2000/svg">
<path d="M0.721634 0.783447L310 0.783447L291.83 90.4742H15.0258L0.721634 0.783447Z" fill="url(#paint0_linear)"/>
<path d="M62.2246 49.8253H57.9207L57.9207 61.4685H49.9697L49.9697 28.4869H62.9494C66.8607 28.4869 69.9188 29.3552 72.1236 31.0919C74.3284 32.8285 75.4308 35.2825 75.4308 38.4539C75.4308 40.7493 74.9627 42.6521 74.0264 44.1622C73.1052 45.6724 71.6555 46.8956 69.6772 47.8319L76.5635 61.1287L76.5635 61.4685H68.0462L62.2246 49.8253ZM57.9207 43.6865H62.9495C64.4596 43.6865 65.5922 43.2939 66.3473 42.5086C67.1175 41.7082 67.5025 40.5983 67.5025 39.1787C67.5025 37.7592 67.1175 36.6492 66.3473 35.8488C65.5771 35.0334 64.4445 34.6256 62.9494 34.6256H57.9207L57.9207 43.6865ZM100.688 47.4921H88.184L88.184 55.3524H102.953L102.953 61.4685H80.2331L80.2331 28.4869H102.999L102.999 34.6256H88.184L88.184 41.5799H100.688L100.688 47.4921ZM133.194 57.3911C131.971 58.7502 130.181 59.8451 127.825 60.6757C125.47 61.5063 122.887 61.9216 120.078 61.9216C115.759 61.9216 112.309 60.6002 109.726 57.9574C107.144 55.3147 105.762 51.6374 105.581 46.9258L105.558 44.0716C105.558 40.8248 106.132 37.9933 107.28 35.577C108.428 33.1457 110.066 31.2806 112.195 29.9819C114.34 28.6681 116.816 28.0112 119.625 28.0112C123.733 28.0112 126.919 28.955 129.185 30.8427C131.465 32.7153 132.794 35.5166 133.171 39.2467H125.515C125.243 37.4043 124.654 36.0905 123.748 35.3052C122.842 34.5199 121.558 34.1273 119.897 34.1273C117.904 34.1273 116.363 34.973 115.276 36.6643C114.189 38.3557 113.638 40.7719 113.622 43.913L113.622 45.9064C113.622 49.1986 114.181 51.6752 115.299 53.3364C116.431 54.9824 118.206 55.8055 120.622 55.8055C122.691 55.8055 124.231 55.3449 125.243 54.4237L125.243 49.3043H119.716L119.716 43.8451H133.194L133.194 57.3911ZM146.287 61.4685H138.359L138.359 28.4869H146.287L146.287 61.4685ZM168.826 52.7021C168.826 51.5393 168.411 50.6332 167.58 49.9838C166.765 49.3345 165.322 48.6625 163.253 47.9678C161.185 47.2731 159.493 46.6011 158.179 45.9517C153.906 43.8526 151.769 40.9682 151.769 37.2986C151.769 35.4713 152.297 33.863 153.354 32.4737C154.427 31.0692 155.937 29.9819 157.885 29.2117C159.833 28.4265 162.023 28.0338 164.454 28.0338C166.825 28.0338 168.947 28.4567 170.819 29.3024C172.707 30.148 174.172 31.3562 175.214 32.9267C176.256 34.4822 176.777 36.2641 176.777 38.2726H168.849C168.849 36.9286 168.433 35.8866 167.603 35.1466C166.787 34.4067 165.677 34.0367 164.273 34.0367C162.853 34.0367 161.728 34.3538 160.898 34.9881C160.082 35.6072 159.674 36.4 159.674 37.3665C159.674 38.2122 160.127 38.9824 161.034 39.6771C161.94 40.3566 163.533 41.0664 165.813 41.8064C168.094 42.5312 169.966 43.3165 171.431 44.1622C174.995 46.216 176.777 49.0475 176.777 52.6568C176.777 55.5412 175.69 57.8064 173.515 59.4525C171.34 61.0985 168.358 61.9216 164.567 61.9216C161.894 61.9216 159.471 61.4459 157.296 60.4945C155.136 59.528 153.505 58.2141 152.403 56.553C151.316 54.8767 150.772 52.9513 150.772 50.7767H158.746C158.746 52.5435 159.199 53.8498 160.105 54.6955C161.026 55.5261 162.514 55.9414 164.567 55.9414C165.881 55.9414 166.916 55.662 167.671 55.1032C168.441 54.5294 168.826 53.729 168.826 52.7021ZM206.746 34.6256H196.847L196.847 61.4685H188.896L188.896 34.6256H179.178L179.178 28.4869H206.746L206.746 34.6256ZM222.376 49.8253H218.072L218.072 61.4685H210.121L210.121 28.4869H223.101C227.012 28.4869 230.07 29.3552 232.275 31.0919C234.48 32.8285 235.582 35.2825 235.582 38.4539C235.582 40.7493 235.114 42.6521 234.178 44.1622C233.256 45.6724 231.807 46.8956 229.828 47.8319L236.715 61.1287L236.715 61.4685H228.197L222.376 49.8253ZM218.072 43.6865H223.101C224.611 43.6865 225.743 43.2939 226.498 42.5086C227.269 41.7082 227.654 40.5983 227.654 39.1787C227.654 37.7592 227.269 36.6492 226.498 35.8488C225.728 35.0334 224.596 34.6256 223.101 34.6256H218.072L218.072 43.6865ZM260.839 47.4921H248.335L248.335 55.3524H263.104L263.104 61.4685H240.384L240.384 28.4869H263.15L263.15 34.6256H248.335L248.335 41.5799H260.839L260.839 47.4921Z" fill="black"/>
<defs>
<linearGradient id="paint0_linear" x1="-3.10356" y1="115.726" x2="106.731" y2="-137.017" gradientUnits="userSpaceOnUse">
<stop stop-color="#003F8A"/>
<stop offset="0.518" stop-color="#00D7DF"/>
<stop offset="1" stop-color="#006DF0"/>
</linearGradient>
</defs>
</svg>
