<svg width="307" height="41" viewBox="0 0 307 41" fill="none" xmlns="http://www.w3.org/2000/svg">
<path d="M0.661957 0.822632H306.977L288.981 40.4296H14.829L0.661957 0.822632Z" fill="url(#paint0_linear)"/>
<path d="M49.884 23.0685C49.8373 24.0821 49.5639 24.9791 49.0638 25.7593C48.5636 26.5329 47.8601 27.1331 46.9531 27.5599C46.0528 27.9867 45.0225 28.2001 43.8621 28.2001C41.9482 28.2001 40.4411 27.5765 39.3407 26.3295C38.2404 25.0824 37.6902 23.3219 37.6902 21.0478V20.3276C37.6902 18.9005 37.937 17.6534 38.4304 16.5864C38.9306 15.5128 39.6475 14.6858 40.5811 14.1057C41.5147 13.5188 42.5951 13.2254 43.8221 13.2254C45.5893 13.2254 47.0098 13.6922 48.0835 14.6258C49.1571 15.5528 49.7673 16.8332 49.914 18.467H46.4129C46.3863 17.5801 46.1629 16.9432 45.7427 16.5564C45.3226 16.1696 44.6824 15.9763 43.8221 15.9763C42.9485 15.9763 42.3083 16.303 41.9015 16.9566C41.4947 17.6101 41.2813 18.6538 41.2613 20.0875V21.1179C41.2613 22.6717 41.4547 23.782 41.8415 24.4489C42.235 25.1158 42.9085 25.4492 43.8621 25.4492C44.6691 25.4492 45.2859 25.2591 45.7127 24.879C46.1395 24.4989 46.3663 23.8954 46.3929 23.0685H49.884ZM55.0556 25.2992H61.1675V28H51.5445V13.4355H55.0556V25.2992ZM66.3892 28H62.8881V13.4355H66.3892V28ZM80.6136 23.0685C80.5669 24.0821 80.2935 24.9791 79.7933 25.7593C79.2932 26.5329 78.5896 27.1331 77.6827 27.5599C76.7824 27.9867 75.7521 28.2001 74.5917 28.2001C72.6778 28.2001 71.1707 27.5765 70.0703 26.3295C68.97 25.0824 68.4198 23.3219 68.4198 21.0478V20.3276C68.4198 18.9005 68.6665 17.6534 69.16 16.5864C69.6602 15.5128 70.3771 14.6858 71.3107 14.1057C72.2443 13.5188 73.3247 13.2254 74.5517 13.2254C76.3189 13.2254 77.7394 13.6922 78.813 14.6258C79.8867 15.5528 80.4969 16.8332 80.6436 18.467H77.1425C77.1158 17.5801 76.8924 16.9432 76.4723 16.5564C76.0522 16.1696 75.412 15.9763 74.5517 15.9763C73.6781 15.9763 73.0379 16.303 72.6311 16.9566C72.2243 17.6101 72.0109 18.6538 71.9909 20.0875V21.1179C71.9909 22.6717 72.1843 23.782 72.5711 24.4489C72.9645 25.1158 73.6381 25.4492 74.5917 25.4492C75.3986 25.4492 76.0155 25.2591 76.4423 24.879C76.8691 24.4989 77.0958 23.8954 77.1225 23.0685H80.6136ZM87.2257 22.5783L85.7852 24.1588V28H82.2741V13.4355H85.7852V19.8575L87.0056 18.0069L90.1466 13.4355H94.4879L89.5664 19.8775L94.4879 28H90.3266L87.2257 22.5783ZM108.752 25.2792H103.941L103.101 28H99.3494L104.691 13.4355H107.992L113.374 28H109.603L108.752 25.2792ZM104.781 22.5683H107.912L106.342 17.5167L104.781 22.5683ZM126.578 21.0178C126.578 22.3649 126.355 23.5419 125.908 24.5489C125.461 25.5492 124.844 26.3528 124.057 26.9597L126.408 28.8203L124.237 30.6608L121.106 28.14C120.813 28.1801 120.519 28.2001 120.226 28.2001C118.986 28.2001 117.885 27.9133 116.925 27.3398C115.965 26.7663 115.214 25.946 114.674 24.879C114.141 23.812 113.864 22.585 113.844 21.1979V20.4276C113.844 18.9939 114.104 17.7335 114.624 16.6465C115.151 15.5595 115.898 14.7192 116.865 14.1257C117.839 13.5322 118.952 13.2354 120.206 13.2354C121.44 13.2354 122.54 13.5288 123.507 14.1157C124.474 14.7025 125.224 15.5394 125.758 16.6265C126.298 17.7068 126.571 18.9472 126.578 20.3476V21.0178ZM123.007 20.4076C123.007 18.9605 122.763 17.8635 122.277 17.1166C121.796 16.363 121.106 15.9863 120.206 15.9863C119.279 15.9863 118.582 16.3564 118.115 17.0966C117.648 17.8368 117.412 18.9205 117.405 20.3476V21.0178C117.405 22.4516 117.642 23.5519 118.115 24.3189C118.589 25.0791 119.292 25.4592 120.226 25.4592C121.12 25.4592 121.803 25.0824 122.277 24.3289C122.757 23.5753 123 22.4916 123.007 21.0778V20.4076ZM139.792 13.4355V22.9684C139.792 24.0488 139.562 24.9857 139.102 25.7793C138.642 26.5662 137.981 27.1664 137.121 27.5799C136.261 27.9933 135.244 28.2001 134.07 28.2001C132.296 28.2001 130.899 27.7399 129.879 26.8196C128.859 25.8993 128.338 24.639 128.318 23.0385V13.4355H131.85V23.1085C131.89 24.7023 132.63 25.4992 134.07 25.4992C134.797 25.4992 135.347 25.2992 135.721 24.899C136.094 24.4989 136.281 23.8487 136.281 22.9484V13.4355H139.792ZM145.734 28H142.233V13.4355H145.734V28Z" fill="#333333"/>
<defs>
<linearGradient id="paint0_linear" x1="-3.12668" y1="51.5806" x2="21.6526" y2="-76.3057" gradientUnits="userSpaceOnUse">
<stop stop-color="#003F8A"/>
<stop offset="0.518" stop-color="#00D7DF"/>
<stop offset="1" stop-color="#006DF0"/>
</linearGradient>
</defs>
</svg>
