<svg width="202" height="170" viewBox="0 0 202 170" fill="none" xmlns="http://www.w3.org/2000/svg">
<g clip-path="url(#clip0)">
<path d="M198.229 93.6778C199.856 93.6778 201.174 92.5689 201.174 91.2003V69.1239C201.174 67.7553 199.856 66.6464 198.229 66.6464H185.535C183.909 66.6464 182.591 67.7553 182.591 69.1239V81.9971H101.832C101.675 81.9971 101.522 82.0117 101.372 82.0341C100.273 80.0455 97.8822 78.6601 95.1083 78.6601H90.3488C86.5384 78.6601 83.4378 81.2684 83.4378 84.4747V88.6709H71.083V84.4747C71.083 79.4288 66.2034 75.3234 60.206 75.3234H36.4088C30.4114 75.3234 25.5318 79.4288 25.5318 84.4747V88.6709H18.7311V55.1111C18.7311 53.7425 17.413 52.6335 15.7864 52.6335H3.09269C1.46603 52.6335 0.14798 53.7425 0.14798 55.1111V124.614C0.14798 125.982 1.46603 127.091 3.09269 127.091C4.71935 127.091 6.0374 125.982 6.0374 124.614V57.5886H12.8417V154.744H6.0374V136.242C6.0374 134.873 4.71935 133.764 3.09269 133.764C1.46603 133.764 0.14798 134.873 0.14798 136.242V157.221C0.14798 158.59 1.46603 159.699 3.09269 159.699H15.7864C17.413 159.699 18.7311 158.59 18.7311 157.221V150.354H182.591V157.221C182.591 158.59 183.909 159.699 185.535 159.699H198.229C199.856 159.699 201.174 158.59 201.174 157.221V102.828C201.174 101.46 199.856 100.351 198.229 100.351C196.602 100.351 195.284 101.46 195.284 102.828V154.744H188.48V71.6015H195.284V91.2003C195.284 92.5689 196.602 93.6778 198.229 93.6778ZM182.591 118.703H102.019V86.9522H182.591V118.703ZM89.3272 84.4747C89.3272 84.0006 89.7854 83.6151 90.3488 83.6151H95.1083C95.6717 83.6151 96.1299 84.0006 96.1299 84.4747V118.703H89.3276V84.4747H89.3272ZM31.4208 84.4747C31.4208 82.1607 33.658 80.2784 36.4084 80.2784H60.2056C62.9559 80.2784 65.1931 82.1607 65.1931 84.4747V88.6709H31.4208V84.4747ZM18.7311 145.399V123.659H32.5005C34.1272 123.659 35.4453 122.55 35.4453 121.182C35.4453 119.813 34.1272 118.704 32.5005 118.704H18.7311V93.626H83.4378V118.704H46.3211C44.6944 118.704 43.3764 119.813 43.3764 121.182C43.3764 122.55 44.6944 123.659 46.3211 123.659L182.591 123.658V145.399H18.7311V145.399Z" fill="black"/>
<path d="M100.661 60.257C116.937 60.257 130.179 49.1158 130.179 35.4217C130.179 21.7276 116.937 10.5867 100.661 10.5867C84.3844 10.5867 71.1426 21.7276 71.1426 35.4217C71.1426 49.1158 84.3844 60.257 100.661 60.257ZM100.661 15.5417C113.69 15.5417 124.29 24.4598 124.29 35.4217C124.29 46.3839 113.69 55.302 100.661 55.302C87.6318 55.302 77.032 46.3839 77.032 35.4217C77.032 24.4598 87.6318 15.5417 100.661 15.5417Z" fill="black"/>
<path d="M90.7454 37.8992H100.661C102.287 37.8992 103.606 36.7902 103.606 35.4217V23.7423C103.606 22.3737 102.287 21.2648 100.661 21.2648C99.0341 21.2648 97.7161 22.3737 97.7161 23.7423V32.9438H90.7454C89.1187 32.9438 87.8007 34.0527 87.8007 35.4213C87.8007 36.7899 89.1191 37.8992 90.7454 37.8992Z" fill="black"/>
</g>
<defs>
<clipPath id="clip0">
<rect width="201.026" height="169.132" fill="white" transform="translate(0.147949 0.576782)"/>
</clipPath>
</defs>
</svg>
