<svg width="265" height="155" viewBox="0 0 265 155" fill="none" xmlns="http://www.w3.org/2000/svg">
<path d="M258.745 93.6437C257.524 93.6437 256.372 94.0728 255.542 94.8366C254.712 95.6003 254.272 96.6363 254.318 97.7164L255.549 126.254H248.227C247.153 119.968 243.512 114.164 238 109.95C232.488 105.735 225.49 103.406 218.342 103.406C211.194 103.406 204.397 105.735 199.248 109.95C194.099 114.164 190.959 119.968 190.427 126.254H94.4814L89.3896 8.14541H250.457L251.009 20.9541C251.056 22.0342 251.585 23.0701 252.481 23.8339C253.377 24.5977 254.566 25.0268 255.786 25.0268C257.007 25.0268 258.159 24.5977 258.989 23.8339C259.819 23.0701 260.259 22.0342 260.213 20.9541L259.485 4.0727C259.438 2.99256 258.909 1.95665 258.013 1.19287C257.117 0.429088 255.928 0 254.708 0H84.4365C83.216 0 82.064 0.429088 81.2339 1.19287C80.4038 1.95665 79.9636 2.99256 80.0101 4.0727L80.1857 8.14541H27.4845C21.9362 8.15187 16.7012 10.1054 12.9274 13.5777C9.15361 17.05 7.14915 21.7575 7.35354 26.6681L7.60848 32.5816C7.65505 33.6618 8.18455 34.6977 9.08051 35.4615C9.97646 36.2253 11.1655 36.6543 12.386 36.6543H17.738L15.8359 73.9807C11.4116 75.0102 7.55296 77.3195 4.86186 80.5485C2.17076 83.7776 0.798461 87.7447 0.958979 91.8313L2.44298 126.254C2.48955 127.334 3.01905 128.37 3.91501 129.134C4.81096 129.897 5.99998 130.327 7.22048 130.327H16.5394C17.4015 136.972 21.0582 143.179 26.7781 147.708C32.498 152.237 39.8593 154.753 47.3899 154.753C54.9204 154.753 62.0648 152.237 67.3942 147.708C72.7236 143.179 75.8451 136.972 76.1342 130.327C76.1757 130.327 76.2087 130.347 76.2502 130.347H85.454C85.5006 131.427 86.0301 132.463 86.926 133.227C87.822 133.991 89.011 134.42 90.2315 134.42H191.198C192.811 140.212 196.612 145.411 201.96 149.144C207.308 152.876 213.877 154.914 220.562 154.914C227.248 154.914 233.641 152.876 238.667 149.144C243.694 145.411 247.046 140.212 248.16 134.42H260.503C261.723 134.42 262.875 133.991 263.705 133.227C264.535 132.463 264.975 131.427 264.929 130.347L263.522 97.7164C263.476 96.6363 262.946 95.6003 262.05 94.8366C261.154 94.0728 259.965 93.6437 258.745 93.6437ZM16.5574 26.6681C16.4424 23.9168 17.5653 21.2792 19.6796 19.3338C21.7939 17.3884 24.7271 16.2941 27.8357 16.2908H80.5369L81.0636 28.5089H16.6367L16.5574 26.6681ZM81.4148 36.6543L82.995 73.3087H25.1028L26.9741 36.6543H81.4148ZM47.0391 146.617C42.9433 146.617 38.8932 145.542 35.4009 143.529C31.9085 141.515 29.1308 138.653 27.4191 135.304C25.7073 131.955 25.1384 128.27 25.7841 124.715C26.4299 121.16 28.2614 117.894 31.0471 115.331C33.8328 112.768 37.4474 111.022 41.434 110.315C45.4206 109.608 49.6001 109.971 53.4439 111.358C57.2877 112.745 60.6232 115.094 63.0287 118.108C65.4341 121.122 66.8014 124.665 66.9577 128.29C67.161 133.149 65.1781 137.808 61.4439 141.244C57.7098 144.679 52.5293 146.612 47.0391 146.617ZM75.8981 122.181C75.6292 122.206 75.3647 122.254 75.1081 122.324C73.3445 116.507 69.4284 111.314 63.9967 107.59C58.565 103.867 51.9375 101.831 45.1922 101.814C38.447 101.798 31.981 103.802 26.846 107.499C21.7111 111.197 18.2095 116.372 16.9107 122.181H11.4712L10.1628 91.8313C10.0479 89.0801 11.1707 86.4425 13.285 84.4971C15.3994 82.5517 18.3325 81.4573 21.4411 81.4541H83.3462L85.102 122.181H75.8981ZM220.21 146.748C215.533 146.739 210.945 145.271 207.255 142.602C203.564 139.933 201.007 136.234 200.032 132.155C200.401 131.544 200.559 130.846 200.487 130.143C200.415 129.441 200.116 128.763 199.627 128.192C199.697 124.764 200.903 121.466 203.096 118.709C205.29 115.951 208.374 113.853 211.968 112.675C215.562 111.497 219.509 111.29 223.319 112.079C227.13 112.869 230.637 114.621 233.409 117.119C236.18 119.616 238.093 122.75 238.911 126.132C239.73 129.514 239.418 132.997 238.014 136.149C236.611 139.301 234.177 141.985 231.013 143.869C227.85 145.753 224.096 146.753 220.215 146.748H220.21Z" fill="url(#paint0_linear)"/>
<defs>
<linearGradient id="paint0_linear" x1="2.31447" y1="198.528" x2="249.115" y2="-90.987" gradientUnits="userSpaceOnUse">
<stop stop-color="#003F8A"/>
<stop offset="0.518" stop-color="#00D7DF"/>
<stop offset="1" stop-color="#006DF0"/>
</linearGradient>
</defs>
</svg>
