<svg width="367" height="248" viewBox="0 0 367 248" fill="none" xmlns="http://www.w3.org/2000/svg">
<path d="M360.012 149.716C358.312 149.716 356.681 150.402 355.478 151.623C354.275 152.844 353.6 154.5 353.6 156.227V201.853H343.397C342.278 191.803 337.554 182.523 330.125 175.786C322.697 169.048 313.085 165.323 303.125 165.323C293.164 165.323 283.553 169.048 276.124 175.786C268.696 182.523 263.972 191.803 262.853 201.853H129.153V13.0227H353.6V33.501C353.6 35.2279 354.275 36.8841 355.478 38.1053C356.681 39.3264 358.312 40.0124 360.012 40.0124C361.713 40.0124 363.344 39.3264 364.547 38.1053C365.75 36.8841 366.425 35.2279 366.425 33.501V6.51137C366.425 4.78445 365.75 3.12826 364.547 1.90714C363.344 0.686019 361.713 0 360.012 0H122.741C121.04 0 119.409 0.686019 118.206 1.90714C117.004 3.12826 116.328 4.78445 116.328 6.51137V13.0227H42.8892C35.1572 13.0331 27.7449 16.1564 22.2775 21.7078C16.8102 27.2592 13.7342 34.7856 13.724 42.6365V52.091C13.724 53.8179 14.3996 55.4741 15.6022 56.6952C16.8049 57.9164 18.436 58.6024 20.1367 58.6024H27.5948L22.7018 118.279C16.4747 119.925 10.959 123.617 7.01496 128.78C3.07094 133.942 0.920324 140.285 0.898499 146.818L0.898499 201.853C0.898499 203.58 1.57413 205.236 2.77675 206.457C3.97937 207.678 5.61048 208.364 7.31125 208.364H20.2971C21.0992 218.988 25.8218 228.913 33.5204 236.153C41.219 243.394 51.3259 247.417 61.8196 247.417C72.3133 247.417 82.4202 243.394 90.1188 236.153C97.8174 228.913 102.54 218.988 103.342 208.364C103.4 208.364 103.445 208.397 103.502 208.397H116.328C116.328 210.123 117.004 211.78 118.206 213.001C119.409 214.222 121.04 214.908 122.741 214.908H263.436C265.337 224.168 270.321 232.481 277.549 238.448C284.777 244.416 293.809 247.673 303.125 247.673C312.441 247.673 321.472 244.416 328.701 238.448C335.929 232.481 340.913 224.168 342.813 214.908H360.012C361.713 214.908 363.344 214.222 364.547 213.001C365.75 211.78 366.425 210.123 366.425 208.397V156.227C366.425 154.5 365.75 152.844 364.547 151.623C363.344 150.402 361.713 149.716 360.012 149.716ZM26.5495 42.6365C26.5546 38.2379 28.2777 34.0209 31.3409 30.9106C34.4041 27.8003 38.5572 26.0507 42.8892 26.0455H116.328V45.5796H26.5495V42.6365ZM116.328 58.6024V117.205H35.6556L40.4652 58.6024H116.328ZM61.8196 234.409C56.1122 234.409 50.5329 232.691 45.7873 229.471C41.0417 226.252 37.343 221.675 35.1589 216.321C32.9747 210.967 32.4033 205.076 33.5167 199.392C34.6302 193.708 37.3786 188.487 41.4144 184.389C45.4501 180.291 50.592 177.501 56.1898 176.37C61.7876 175.24 67.5898 175.82 72.8628 178.038C78.1358 180.255 82.6427 184.011 85.8136 188.829C88.9845 193.648 90.677 199.313 90.677 205.108C90.6685 212.877 87.6254 220.325 82.2155 225.818C76.8055 231.311 69.4705 234.401 61.8196 234.409ZM103.502 195.341C103.126 195.381 102.755 195.457 102.393 195.569C100.285 186.269 95.1397 177.967 87.7944 172.014C80.4491 166.06 71.336 162.806 61.9375 162.779C52.5391 162.753 43.4083 165.956 36.0307 171.868C28.6531 177.78 23.4627 186.053 21.3039 195.341H13.724V146.818C13.7291 142.42 15.4522 138.203 18.5154 135.093C21.5786 131.982 25.7317 130.233 30.0637 130.227H116.328V195.341H103.502ZM303.125 234.618C296.607 234.603 290.303 232.256 285.321 227.989C280.338 223.722 276.997 217.808 275.884 211.288C276.434 210.311 276.695 209.194 276.637 208.071C276.579 206.948 276.204 205.865 275.557 204.952C275.86 199.47 277.739 194.199 280.961 189.789C284.183 185.38 288.607 182.026 293.687 180.143C298.766 178.259 304.277 177.928 309.54 179.191C314.802 180.453 319.585 183.254 323.296 187.247C327.008 191.24 329.486 196.25 330.423 201.658C331.361 207.065 330.717 212.633 328.572 217.673C326.426 222.713 322.873 227.004 318.352 230.015C313.83 233.027 308.539 234.627 303.131 234.618H303.125Z" fill="url(#paint0_linear)"/>
<defs>
<linearGradient id="paint0_linear" x1="-3.6225" y1="317.403" x2="411.195" y2="-91.1373" gradientUnits="userSpaceOnUse">
<stop stop-color="#003F8A"/>
<stop offset="0.518" stop-color="#00D7DF"/>
<stop offset="1" stop-color="#006DF0"/>
</linearGradient>
</defs>
</svg>
