<svg width="140" height="112" viewBox="0 0 140 112" fill="none" xmlns="http://www.w3.org/2000/svg">
<path d="M139.993 28.5572C139.94 26.9321 138.818 25.4835 137.133 24.9818C136.291 24.7309 137.222 24.8022 108.023 24.8022C97.3904 9.71446 79.327 0 59.0621 0C26.4951 0 0 24.9182 0 55.5466C0 86.175 26.4951 111.093 59.0621 111.093C79.344 111.093 97.4003 101.365 108.023 86.291H135.898C138.163 86.291 139.999 84.5559 139.999 82.4157C139.999 35.237 140.003 28.8636 139.993 28.5572ZM124.135 32.5529L100.049 50.62L75.4114 32.5529H124.135ZM59.0624 103.343C31.0186 103.343 8.20335 81.9013 8.20335 55.5466C8.20335 29.1919 31.0186 7.75069 59.0624 7.75069C74.2635 7.75069 88.2673 14.0169 97.8061 24.8022C61.0358 24.8022 63.4721 24.7947 63.1544 24.8156C61.1449 24.9459 59.5259 26.4443 59.3536 28.3438C59.3276 28.6308 59.3358 26.9703 59.3358 49.6042H39.375C37.1099 49.6042 35.2735 51.3393 35.2735 53.4795C35.2735 55.6197 37.1099 57.3549 39.375 57.3549H59.3358V82.4154C59.3358 84.5557 61.1722 86.2908 63.4374 86.2908H97.8061C88.2673 97.0764 74.2635 103.343 59.0624 103.343ZM67.5389 78.5404V36.5908L97.563 58.6079C99.0532 59.701 101.145 59.6938 102.628 58.5815L131.796 36.7024V78.5404H67.5389Z" fill="black"/>
<path d="M111.848 30.5847H118.41C120.675 30.5847 122.512 28.8496 122.512 26.7093C122.512 24.5691 120.675 22.834 118.41 22.834H111.848C109.583 22.834 107.746 24.5691 107.746 26.7093C107.746 28.8496 109.583 30.5847 111.848 30.5847Z" fill="black"/>
<path d="M116.223 55.9033H103.098C100.833 55.9033 98.9962 57.6384 98.9962 59.7787C98.9962 61.9189 100.833 63.654 103.098 63.654H116.223C118.488 63.654 120.324 61.9189 120.324 59.7787C120.324 57.6384 118.488 55.9033 116.223 55.9033Z" fill="black"/>
</svg>
