<svg width="160" height="158" viewBox="0 0 160 158" fill="none" xmlns="http://www.w3.org/2000/svg">
<g clip-path="url(#clip0)">
<path d="M151.386 26.2005H148.51V19.906C148.508 17.7211 147.623 15.6264 146.05 14.0815C144.477 12.5366 142.344 11.6677 140.119 11.6654H131.106C128.882 11.668 126.749 12.5371 125.176 14.0819C123.603 15.6268 122.718 17.7213 122.716 19.906V41.2704H99.5226V40.5916C99.5401 38.6386 98.8236 36.7479 97.5103 35.2813C96.1969 33.8147 94.3789 32.8753 92.4043 32.6428C91.3081 32.541 90.2022 32.6641 89.157 33.0043C88.1117 33.3446 87.15 33.8946 86.3327 34.6193C86.1927 34.7455 86.0572 34.8757 85.9262 35.01C85.7961 34.8757 85.6606 34.7455 85.5197 34.6193C84.7034 33.8928 83.7416 33.3416 82.6959 33.0013C81.6501 32.6609 80.5435 32.5388 79.4469 32.6428C77.5649 32.8324 75.82 33.696 74.5451 35.0686C73.8139 34.2954 72.9287 33.6779 71.9446 33.2543C70.9604 32.8307 69.8982 32.6101 68.8236 32.6061C67.7491 32.6021 66.6852 32.8148 65.6978 33.231C64.7103 33.6473 63.8205 34.2582 63.0832 35.0259C61.9995 33.9003 60.5965 33.1203 59.0562 32.7869C57.5158 32.4535 55.9089 32.582 54.4437 33.1558C52.9786 33.7296 51.7226 34.7222 50.8386 36.0051C49.9546 37.288 49.4832 38.8021 49.4856 40.3511V41.2704H37.7154V19.906C37.7128 17.7212 36.8278 15.6267 35.2547 14.0819C33.6816 12.537 31.5488 11.668 29.3241 11.6654H20.3112C18.0864 11.6677 15.9534 12.5366 14.3802 14.0815C12.807 15.6264 11.9222 17.7211 11.9199 19.906V26.2005H9.04449C6.81979 26.2031 4.68696 27.0722 3.11385 28.617C1.54075 30.1618 0.655823 32.2564 0.653191 34.4411L0.653191 70.5323C0.655823 72.7171 1.54075 74.8116 3.11385 76.3564C4.68696 77.9013 6.81979 78.7703 9.04449 78.7729H11.9199V85.0675C11.9222 87.2523 12.807 89.347 14.3802 90.8919C15.9534 92.4368 18.0864 93.3057 20.3112 93.308H29.3241C31.5488 93.3054 33.6816 92.4364 35.2547 90.8916C36.8278 89.3467 37.7128 87.2522 37.7154 85.0675V63.703H49.5092C49.5092 63.7494 49.5092 63.797 49.5167 63.8434C49.5008 63.9355 49.4913 64.0285 49.4881 64.1218V72.9117C49.4907 76.8017 50.4948 80.6279 52.407 84.0346L60.9102 99.1606V144.389C60.9102 144.955 61.1394 145.499 61.5474 145.899C61.9554 146.3 62.5087 146.525 63.0857 146.525H97.3471C97.9241 146.525 98.4774 146.3 98.8854 145.899C99.2934 145.499 99.5226 144.955 99.5226 144.389V99.2803L108.435 86.6643C110.073 84.3517 110.95 81.6011 110.946 78.7839V63.6994H122.717V85.0638C122.72 87.2484 123.604 89.3429 125.177 90.8878C126.75 92.4327 128.883 93.3018 131.107 93.3044H140.12C142.345 93.3021 144.478 92.4332 146.051 90.8883C147.625 89.3433 148.509 87.2486 148.512 85.0638V78.7729H151.387C153.612 78.7703 155.745 77.9013 157.318 76.3564C158.891 74.8116 159.776 72.7171 159.778 70.5323V34.4411C159.776 32.2561 158.891 30.1614 157.317 28.6166C155.744 27.0717 153.611 26.2028 151.386 26.2005ZM88.1018 40.3548C88.1017 39.8696 88.2052 39.3897 88.4056 38.9462C88.6061 38.5027 88.8989 38.1054 89.2653 37.7798C89.6317 37.4543 90.0635 37.2078 90.5329 37.0562C91.0022 36.9047 91.4987 36.8514 91.9903 36.8998C92.8902 37.0246 93.7119 37.4702 94.2986 38.1518C94.8853 38.8333 95.1961 39.7031 95.1716 40.5953V41.274H87.8904C88.0301 40.987 88.1023 40.6729 88.1018 40.3548ZM79.8609 36.8998C79.979 36.8888 80.0983 36.8827 80.2152 36.8827C81.1528 36.8831 82.0518 37.249 82.7148 37.9C83.3778 38.5511 83.7504 39.434 83.7507 40.3548C83.7502 40.6729 83.8224 40.987 83.962 41.274H80.2152C78.9875 41.2753 77.777 41.5575 76.6796 42.0981V40.5953C76.6551 39.7031 76.9659 38.8333 77.5526 38.1518C78.1393 37.4702 78.961 37.0246 79.8609 36.8998ZM83.7507 63.2855C83.7507 64.2063 83.3782 65.0895 82.7152 65.7406C82.0521 66.3917 81.1529 66.7575 80.2152 66.7575C79.2775 66.7575 78.3782 66.3917 77.7152 65.7406C77.0521 65.0895 76.6796 64.2063 76.6796 63.2855V55.8641C77.849 56.4551 79.145 56.7636 80.4601 56.7639H83.7507V63.2855ZM68.7943 36.8827C69.7315 36.884 70.6298 37.2503 71.2924 37.9012C71.955 38.5521 72.3276 39.4344 72.3286 40.3548V63.2855C72.3374 63.7469 72.2525 64.2053 72.0788 64.6341C71.9051 65.0628 71.6461 65.4532 71.317 65.7826C70.9879 66.1119 70.5952 66.3735 70.162 66.5521C69.7287 66.7307 69.2635 66.8226 68.7937 66.8226C68.3238 66.8226 67.8586 66.7307 67.4254 66.5521C66.9921 66.3735 66.5995 66.1119 66.2703 65.7826C65.9412 65.4532 65.6823 65.0628 65.5086 64.6341C65.3349 64.2053 65.25 63.7469 65.2588 63.2855V40.3548C65.2598 39.4342 65.6326 38.5517 66.2954 37.9007C66.9582 37.2498 67.8569 36.8837 68.7943 36.8827ZM53.8366 40.3548C53.8366 39.4339 54.2091 38.5508 54.8722 37.8997C55.5352 37.2485 56.4345 36.8827 57.3722 36.8827C58.3099 36.8827 59.2091 37.2485 59.8722 37.8997C60.5352 38.5508 60.9077 39.4339 60.9077 40.3548V63.2855C60.9077 64.2063 60.5352 65.0895 59.8722 65.7406C59.2091 66.3917 58.3099 66.7575 57.3722 66.7575C56.4345 66.7575 55.5352 66.3917 54.8722 65.7406C54.2091 65.0895 53.8366 64.2063 53.8366 63.2855V40.3548ZM9.04449 74.5C7.97335 74.4987 6.94646 74.0803 6.18905 73.3365C5.43164 72.5927 5.00555 71.5842 5.00424 70.5323V34.4411C5.00555 33.3892 5.43164 32.3808 6.18905 31.637C6.94646 30.8931 7.97335 30.4747 9.04449 30.4734H11.9199V74.5H9.04449ZM33.3644 85.0675C33.363 86.1193 32.9369 87.1278 32.1795 87.8716C31.4221 88.6154 30.3952 89.0338 29.3241 89.0351H20.3112C19.24 89.0342 18.2129 88.6158 17.4554 87.8719C16.6979 87.1281 16.2719 86.1194 16.271 85.0675V19.906C16.2719 18.854 16.6979 17.8453 17.4554 17.1015C18.2129 16.3576 19.24 15.9393 20.3112 15.9383H29.3241C30.3952 15.9396 31.4221 16.358 32.1795 17.1018C32.9369 17.8456 33.363 18.8541 33.3644 19.906V85.0675ZM37.7154 45.5469H49.4856V59.4265H37.7154V45.5469ZM106.594 78.7875C106.595 80.7347 105.987 82.6352 104.853 84.2324L95.5545 97.3929C95.3014 97.7515 95.1661 98.1775 95.1666 98.6137V142.255H65.2588V98.6113C65.2588 98.25 65.1656 97.8947 64.9878 97.5785L56.2136 81.9702C54.6564 79.1958 53.8387 76.0797 53.8366 72.9117V70.1978C55.3456 70.9497 57.062 71.2015 58.7289 70.9154C60.3957 70.6293 61.9234 69.8207 63.0832 68.6107C63.817 69.3748 64.702 69.9836 65.684 70.3997C66.666 70.8158 67.7242 71.0304 68.7937 71.0304C69.8632 71.0304 70.9214 70.8158 71.9033 70.3997C72.8853 69.9836 73.7703 69.3748 74.5041 68.6107C75.238 69.3749 76.1231 69.9837 77.1052 70.3998C78.0873 70.8159 79.1456 71.0305 80.2152 71.0305C81.2848 71.0305 82.3431 70.8159 83.3251 70.3998C84.3072 69.9837 85.1924 69.3749 85.9262 68.6107C87.0101 69.7358 88.4129 70.5154 89.9531 70.8486C91.4933 71.1818 93.0998 71.0532 94.5647 70.4794C96.0296 69.9057 97.2853 68.9132 98.1693 67.6306C99.0533 66.348 99.5247 64.8343 99.5226 63.2855V54.6274C99.5226 54.0608 99.2934 53.5174 98.8854 53.1167C98.4774 52.7161 97.9241 52.491 97.3471 52.491H80.4638C79.5553 52.515 78.6696 52.2099 77.9756 51.6337C77.2816 51.0575 76.8278 50.2506 76.7008 49.3669C76.6896 49.2582 76.6846 49.1496 76.6834 49.0422V48.9958C76.6899 48.0797 77.0648 47.2032 77.7262 46.5573C78.3877 45.9113 79.2823 45.5482 80.2152 45.5469H96.866L97.2564 45.5701H97.2812C99.7846 45.6761 102.15 46.7262 103.885 48.5018C105.619 50.2774 106.59 52.6417 106.594 55.1023V78.7863V78.7875ZM88.1018 56.7639H95.1716V63.2855C95.1804 63.7469 95.0955 64.2053 94.9218 64.6341C94.7481 65.0628 94.4891 65.4532 94.16 65.7826C93.8309 66.1119 93.4382 66.3735 93.005 66.5521C92.5717 66.7307 92.1065 66.8226 91.6367 66.8226C91.1668 66.8226 90.7016 66.7307 90.2684 66.5521C89.8351 66.3735 89.4425 66.1119 89.1133 65.7826C88.7842 65.4532 88.5252 65.0628 88.3515 64.6341C88.1779 64.2053 88.0929 63.7469 88.1018 63.2855V56.7639ZM110.945 59.4265V55.0999C110.947 51.5391 109.546 48.1156 107.035 45.5469H122.716V59.4265H110.945ZM144.159 85.0638C144.158 86.1157 143.732 87.1241 142.975 87.8679C142.217 88.6117 141.19 89.0302 140.119 89.0315H131.106C130.035 89.0302 129.008 88.6117 128.251 87.8679C127.493 87.1241 127.067 86.1157 127.066 85.0638V19.906C127.067 18.8541 127.493 17.8456 128.251 17.1018C129.008 16.358 130.035 15.9396 131.106 15.9383H140.119C141.19 15.9396 142.217 16.358 142.975 17.1018C143.732 17.8456 144.158 18.8541 144.159 19.906V85.0675V85.0638ZM155.426 70.5323C155.425 71.5842 154.999 72.5927 154.241 73.3365C153.484 74.0803 152.457 74.4987 151.386 74.5H148.51V30.4734H151.386C152.457 30.4747 153.484 30.8931 154.241 31.637C154.999 32.3808 155.425 33.3892 155.426 34.4411V70.5323Z" fill="black"/>
</g>
<defs>
<clipPath id="clip0">
<rect width="159.124" height="156.265" fill="white" transform="translate(0.653198 0.962524)"/>
</clipPath>
</defs>
</svg>
