<svg width="620" height="369" viewBox="0 0 620 369" fill="none" xmlns="http://www.w3.org/2000/svg">
<path d="M157.217 136.818L157.832 139.563L157.839 139.561L157.847 139.56L157.217 136.818ZM156.234 113.68L155.682 116.438L155.69 116.44L155.699 116.441L156.234 113.68ZM131.041 111.938V109.125H128.228V111.938H131.041ZM131.041 138.56H128.228V141.373H131.041V138.56ZM169.903 138.069L168.303 135.756L169.903 138.069ZM155.296 143.697L154.81 140.927L145.689 142.526L154.159 146.27L155.296 143.697ZM162.711 148.611L160.765 150.642L162.711 148.611ZM167.893 156.517L165.293 157.591L165.293 157.592L167.893 156.517ZM174.593 172.732L171.993 173.807L172.712 175.545H174.593V172.732ZM184.644 180.058L185.833 182.607L185.867 182.591L185.901 182.574L184.644 180.058ZM181.204 180.683L181.198 183.496H181.204V180.683ZM161.818 180.639L161.824 177.826H161.818V180.639ZM159.361 179.522L157.09 181.182L157.126 181.231L157.164 181.279L159.361 179.522ZM163.917 172.732V175.545H168.055L166.532 171.697L163.917 172.732ZM158.914 160.091L161.529 159.056L161.527 159.05L158.914 160.091ZM152.348 150.8L150.41 152.839L150.42 152.848L150.431 152.858L152.348 150.8ZM131.041 146.512V143.699H128.228V146.512H131.041ZM131.041 172.732H128.228V175.545H131.041V172.732ZM145.156 179.522L142.927 177.807L142.922 177.814L142.917 177.82L145.156 179.522ZM108.259 179.522L105.988 181.182L106.025 181.231L106.063 181.279L108.259 179.522ZM120.588 172.732V175.545H123.401V172.732H120.588ZM120.588 111.938H123.401V109.125H120.588V111.938ZM110.001 110.732L107.597 112.191L107.609 112.211L107.621 112.23L110.001 110.732ZM110.091 105.237L107.861 103.522L107.856 103.529L107.851 103.535L110.091 105.237ZM164.676 107.337L163.888 110.037L163.898 110.04L164.676 107.337ZM139.26 141.373C146.202 141.373 152.402 140.78 157.832 139.563L156.602 134.074C151.669 135.179 145.897 135.748 139.26 135.748V141.373ZM157.847 139.56C161.022 138.83 163.625 137.216 165.378 134.617C167.089 132.079 167.802 128.883 167.802 125.294H162.176C162.176 128.196 161.594 130.167 160.714 131.471C159.876 132.713 158.593 133.616 156.587 134.077L157.847 139.56ZM167.802 125.294C167.802 121.596 166.986 118.312 165.046 115.739C163.079 113.129 160.209 111.585 156.769 110.918L155.699 116.441C158.096 116.906 159.603 117.864 160.554 119.125C161.533 120.423 162.176 122.38 162.176 125.294H167.802ZM156.786 110.922C150.777 109.72 144.382 109.125 137.607 109.125V114.75C144.054 114.75 150.077 115.317 155.682 116.438L156.786 110.922ZM137.607 109.125H131.041V114.75H137.607V109.125ZM128.228 111.938V138.56H133.853V111.938H128.228ZM131.041 141.373H139.26V135.748H131.041V141.373ZM173.031 124.847C173.031 130.27 171.305 133.679 168.303 135.756L171.503 140.382C176.421 136.98 178.656 131.575 178.656 124.847H173.031ZM168.303 135.756C164.741 138.22 160.273 139.97 154.81 140.927L155.781 146.468C161.873 145.4 167.143 143.398 171.503 140.382L168.303 135.756ZM154.159 146.27C156.706 147.396 158.9 148.856 160.765 150.642L164.657 146.58C162.293 144.316 159.544 142.5 156.433 141.125L154.159 146.27ZM160.765 150.642C162.547 152.349 164.073 154.635 165.293 157.591L170.492 155.444C169.032 151.908 167.104 148.923 164.657 146.58L160.765 150.642ZM165.293 157.592L171.993 173.807L177.193 171.658L170.492 155.443L165.293 157.592ZM174.593 175.545H181.159V169.92H174.593V175.545ZM181.159 175.545C181.904 175.545 182.42 175.612 182.755 175.696C183.095 175.781 183.136 175.854 183.059 175.787L186.764 171.554C185.245 170.224 183.1 169.92 181.159 169.92V175.545ZM183.059 175.787C182.975 175.713 182.996 175.681 183.047 175.833C183.104 176.003 183.171 176.332 183.171 176.887H188.796C188.796 175.035 188.374 172.963 186.764 171.554L183.059 175.787ZM183.171 176.887C183.171 177.181 183.151 177.405 183.124 177.568C183.097 177.731 183.067 177.813 183.058 177.835C183.049 177.855 183.066 177.809 183.13 177.737C183.198 177.661 183.287 177.592 183.386 177.542L185.901 182.574C188.276 181.386 188.796 178.86 188.796 176.887H183.171ZM183.454 177.509C183.055 177.695 182.353 177.871 181.204 177.871V183.496C182.854 183.496 184.445 183.255 185.833 182.607L183.454 177.509ZM181.21 177.871L161.824 177.826L161.811 183.452L181.198 183.496L181.21 177.871ZM161.818 177.826C161.724 177.826 161.664 177.818 161.629 177.811C161.612 177.807 161.601 177.804 161.594 177.802C161.591 177.801 161.589 177.8 161.588 177.8C161.587 177.8 161.586 177.799 161.586 177.799C161.586 177.799 161.586 177.799 161.586 177.799C161.586 177.799 161.586 177.799 161.586 177.799C161.586 177.799 161.586 177.799 161.587 177.8C161.588 177.8 161.588 177.8 161.589 177.801C161.591 177.802 161.593 177.803 161.592 177.803C161.592 177.803 161.589 177.8 161.584 177.795C161.578 177.789 161.569 177.78 161.557 177.765L157.164 181.279C158.348 182.759 160.012 183.452 161.818 183.452V177.826ZM161.632 177.863C161.427 177.583 161.325 177.289 161.325 176.887H155.699C155.699 178.45 156.163 179.913 157.09 181.182L161.632 177.863ZM161.325 176.887C161.325 176.231 161.47 175.782 161.676 175.443L156.867 172.523C156.06 173.852 155.699 175.338 155.699 176.887H161.325ZM161.676 175.443C161.681 175.435 161.671 175.453 161.64 175.481C161.609 175.511 161.574 175.535 161.541 175.552C161.511 175.567 161.501 175.566 161.526 175.561C161.553 175.555 161.617 175.545 161.728 175.545V169.92C159.8 169.92 157.973 170.702 156.867 172.523L161.676 175.443ZM161.728 175.545H163.917V169.92H161.728V175.545ZM166.532 171.697L161.529 159.056L156.299 161.126L161.302 173.767L166.532 171.697ZM161.527 159.05C160.012 155.246 157.562 151.813 154.265 148.742L150.431 152.858C153.208 155.445 155.136 158.206 156.301 161.132L161.527 159.05ZM154.286 148.761C150.717 145.369 146.284 143.699 141.18 143.699V149.324C144.951 149.324 147.964 150.513 150.41 152.839L154.286 148.761ZM141.18 143.699H131.041V149.324H141.18V143.699ZM128.228 146.512V172.732H133.853V146.512H128.228ZM131.041 175.545H142.833V169.92H131.041V175.545ZM142.833 175.545C142.944 175.545 143.009 175.555 143.035 175.561C143.06 175.566 143.051 175.567 143.02 175.552C142.988 175.535 142.952 175.511 142.921 175.481C142.891 175.453 142.881 175.435 142.886 175.443L147.694 172.523C146.588 170.702 144.762 169.92 142.833 169.92V175.545ZM142.886 175.443C143.092 175.782 143.237 176.231 143.237 176.887H148.862C148.862 175.338 148.501 173.852 147.694 172.523L142.886 175.443ZM143.237 176.887C143.237 177.253 143.142 177.528 142.927 177.807L147.385 181.237C148.362 179.968 148.862 178.486 148.862 176.887H143.237ZM142.917 177.82C142.902 177.839 142.899 177.839 142.91 177.831C142.921 177.821 142.935 177.813 142.947 177.807C142.975 177.794 142.928 177.826 142.744 177.826V183.452C144.55 183.452 146.232 182.755 147.395 181.224L142.917 177.82ZM142.744 177.826H110.716V183.452H142.744V177.826ZM110.716 177.826C110.623 177.826 110.562 177.818 110.528 177.811C110.511 177.807 110.499 177.804 110.493 177.802C110.49 177.801 110.487 177.8 110.486 177.8C110.485 177.8 110.485 177.799 110.485 177.799C110.484 177.799 110.484 177.799 110.484 177.799C110.484 177.799 110.484 177.799 110.484 177.799C110.485 177.799 110.485 177.799 110.485 177.8C110.486 177.8 110.487 177.8 110.488 177.801C110.49 177.802 110.491 177.803 110.491 177.803C110.491 177.803 110.488 177.8 110.482 177.795C110.477 177.789 110.468 177.78 110.456 177.765L106.063 181.279C107.247 182.759 108.91 183.452 110.716 183.452V177.826ZM110.53 177.863C110.326 177.583 110.223 177.289 110.223 176.887H104.598C104.598 178.45 105.061 179.913 105.988 181.182L110.53 177.863ZM110.223 176.887C110.223 176.231 110.369 175.782 110.574 175.443L105.766 172.523C104.959 173.852 104.598 175.338 104.598 176.887H110.223ZM110.574 175.443C110.579 175.435 110.569 175.453 110.539 175.481C110.508 175.511 110.472 175.535 110.44 175.552C110.409 175.567 110.4 175.566 110.425 175.561C110.451 175.555 110.516 175.545 110.627 175.545V169.92C108.698 169.92 106.872 170.702 105.766 172.523L110.574 175.443ZM110.627 175.545H120.588V169.92H110.627V175.545ZM123.401 172.732V111.938H117.775V172.732H123.401ZM120.588 109.125H112.458V114.75H120.588V109.125ZM112.458 109.125C112.221 109.125 112.177 109.083 112.235 109.111C112.263 109.125 112.299 109.148 112.333 109.179C112.349 109.193 112.361 109.207 112.37 109.217C112.378 109.227 112.382 109.233 112.382 109.233L107.621 112.23C108.747 114.019 110.575 114.75 112.458 114.75V109.125ZM112.406 109.272C112.2 108.933 112.055 108.483 112.055 107.828H106.429C106.429 109.376 106.79 110.863 107.597 112.191L112.406 109.272ZM112.055 107.828C112.055 107.427 112.156 107.168 112.33 106.939L107.851 103.535C106.894 104.795 106.429 106.264 106.429 107.828H112.055ZM112.32 106.952C112.348 106.917 112.363 106.904 112.364 106.903C112.365 106.903 112.36 106.906 112.354 106.909C112.335 106.918 112.38 106.889 112.548 106.889V101.263C110.7 101.263 109.029 102.004 107.861 103.522L112.32 106.952ZM112.548 106.889H138.992V101.263H112.548V106.889ZM138.992 106.889C148.466 106.889 156.754 107.953 163.888 110.037L165.465 104.637C157.71 102.372 148.874 101.263 138.992 101.263V106.889ZM163.898 110.04C167.046 110.946 169.232 112.564 170.68 114.835C172.164 117.161 173.031 120.424 173.031 124.847H178.656C178.656 119.741 177.662 115.32 175.423 111.81C173.149 108.244 169.751 105.871 165.455 104.634L163.898 110.04ZM202.02 171.08L200.068 173.105L200.072 173.109L202.02 171.08ZM259.464 113.948L257.491 115.953L257.495 115.957L259.464 113.948ZM259.42 171.08L261.359 173.117L261.359 173.116L259.42 171.08ZM209.48 120.291L211.635 122.098L211.639 122.093L209.48 120.291ZM209.658 164.781L207.552 166.646L207.557 166.652L207.563 166.657L209.658 164.781ZM251.737 120.201L249.634 122.07L249.639 122.075L249.644 122.081L251.737 120.201ZM230.608 178.943C219.586 178.943 210.788 175.597 203.968 169.05L200.072 173.109C208.082 180.797 218.343 184.568 230.608 184.568V178.943ZM203.972 169.054C197.188 162.516 193.71 153.82 193.71 142.67H188.084C188.084 155.106 192.021 165.349 200.068 173.105L203.972 169.054ZM193.71 142.67C193.71 131.489 197.19 122.673 203.997 115.949L200.043 111.947C192.02 119.874 188.084 130.206 188.084 142.67H193.71ZM203.997 115.949C210.822 109.206 219.61 105.772 230.608 105.772V100.146C218.319 100.146 208.048 104.038 200.043 111.947L203.997 115.949ZM230.608 105.772C241.766 105.772 250.642 109.213 257.491 115.953L261.437 111.943C253.397 104.031 243.035 100.146 230.608 100.146V105.772ZM257.495 115.957C264.358 122.683 267.863 131.496 267.863 142.67H273.489C273.489 130.199 269.519 119.864 261.433 111.939L257.495 115.957ZM267.863 142.67C267.863 153.809 264.348 162.502 257.48 169.043L261.359 173.116C269.5 165.363 273.489 155.116 273.489 142.67H267.863ZM257.48 169.043C250.601 175.593 241.726 178.943 230.608 178.943V184.568C242.957 184.568 253.289 180.801 261.359 173.117L257.48 169.043ZM230.206 108.589C220.637 108.589 212.881 111.822 207.32 118.489L211.639 122.093C215.965 116.907 222.026 114.214 230.206 114.214V108.589ZM207.324 118.484C201.885 124.971 199.252 133.106 199.252 142.67H204.877C204.877 134.188 207.187 127.403 211.635 122.098L207.324 118.484ZM199.252 142.67C199.252 152.248 201.954 160.323 207.552 166.646L211.764 162.917C207.237 157.804 204.877 151.138 204.877 142.67H199.252ZM207.563 166.657C213.292 173.057 221.222 176.126 230.965 176.126V170.5C222.484 170.5 216.209 167.882 211.754 162.905L207.563 166.657ZM230.965 176.126C240.513 176.126 248.327 173.079 254.046 166.758L249.874 162.984C245.408 167.919 239.225 170.5 230.965 170.5V176.126ZM254.046 166.758C259.696 160.512 262.411 152.422 262.411 142.759H256.786C256.786 151.322 254.408 157.972 249.874 162.984L254.046 166.758ZM262.411 142.759C262.411 132.991 259.613 124.763 253.829 118.322L249.644 122.081C254.343 127.314 256.786 134.124 256.786 142.759H262.411ZM253.839 118.333C248.004 111.765 240.006 108.589 230.206 108.589V114.214C238.691 114.214 245.046 116.905 249.634 122.07L253.839 118.333ZM337.189 119.755L335.294 121.834L335.299 121.838L337.189 119.755ZM301.364 111.938V109.125H298.551V111.938H301.364ZM301.364 172.777H298.551V175.434L301.203 175.585L301.364 172.777ZM335.089 166.121L333.577 163.75L333.573 163.752L335.089 166.121ZM276.573 179.522L274.302 181.182L274.338 181.231L274.376 181.279L276.573 179.522ZM276.483 174.028L278.863 175.526L278.876 175.507L278.887 175.488L276.483 174.028ZM290.911 172.777V175.59H293.724V172.777H290.911ZM290.911 111.938H293.724V109.125H290.911V111.938ZM279.387 110.732L276.945 112.127L276.974 112.179L277.006 112.23L279.387 110.732ZM279.521 105.237L277.291 103.522L277.286 103.529L277.281 103.535L279.521 105.237ZM344.38 113.501L342.66 115.727L342.669 115.734L344.38 113.501ZM348.622 141.955C348.622 131.774 345.548 123.538 339.078 117.671L335.299 121.838C340.324 126.395 342.997 132.958 342.997 141.955H348.622ZM339.083 117.676C332.728 111.883 324.308 109.125 314.139 109.125V114.75C323.267 114.75 330.214 117.203 335.294 121.834L339.083 117.676ZM314.139 109.125H301.364V114.75H314.139V109.125ZM298.551 111.938V172.777H304.177V111.938H298.551ZM301.203 175.585C302.271 175.646 303.324 175.692 304.363 175.723L304.529 170.1C303.543 170.071 302.542 170.027 301.524 169.969L301.203 175.585ZM304.363 175.723C305.403 175.753 306.443 175.768 307.484 175.768V170.143C306.499 170.143 305.514 170.128 304.529 170.1L304.363 175.723ZM307.484 175.768C319.132 175.768 328.907 173.418 336.606 168.49L333.573 163.752C327.036 167.937 318.408 170.143 307.484 170.143V175.768ZM336.601 168.493C344.838 163.242 348.622 154.084 348.622 141.955H342.997C342.997 152.936 339.634 159.888 333.577 163.75L336.601 168.493ZM353.807 141.955C353.807 153.845 349.929 162.549 342.446 168.524L345.957 172.92C355.031 165.674 359.432 155.2 359.432 141.955H353.807ZM342.446 168.524C334.756 174.666 324.973 177.826 312.889 177.826V183.452C325.998 183.452 337.09 180.001 345.957 172.92L342.446 168.524ZM312.889 177.826H279.029V183.452H312.889V177.826ZM279.029 177.826C278.936 177.826 278.875 177.818 278.841 177.811C278.824 177.807 278.813 177.804 278.806 177.802C278.803 177.801 278.801 177.8 278.799 177.8C278.799 177.8 278.798 177.799 278.798 177.799C278.798 177.799 278.797 177.799 278.797 177.799C278.797 177.799 278.797 177.799 278.798 177.799C278.798 177.799 278.798 177.799 278.799 177.8C278.799 177.8 278.8 177.8 278.801 177.801C278.803 177.802 278.804 177.803 278.804 177.803C278.804 177.803 278.801 177.8 278.795 177.795C278.79 177.789 278.781 177.78 278.769 177.765L274.376 181.279C275.56 182.759 277.224 183.452 279.029 183.452V177.826ZM278.844 177.863C278.639 177.583 278.537 177.289 278.537 176.887H272.911C272.911 178.45 273.374 179.913 274.302 181.182L278.844 177.863ZM278.537 176.887C278.537 176.229 278.682 175.814 278.863 175.526L274.103 172.529C273.271 173.85 272.911 175.341 272.911 176.887H278.537ZM278.887 175.488C278.892 175.48 278.882 175.498 278.852 175.526C278.821 175.555 278.785 175.58 278.753 175.596C278.722 175.612 278.713 175.611 278.738 175.606C278.765 175.6 278.829 175.59 278.94 175.59V169.964C277.012 169.964 275.185 170.747 274.079 172.568L278.887 175.488ZM278.94 175.59H290.911V169.964H278.94V175.59ZM293.724 172.777V111.938H288.099V172.777H293.724ZM290.911 109.125H281.843V114.75H290.911V109.125ZM281.843 109.125C281.606 109.125 281.562 109.083 281.62 109.111C281.649 109.125 281.684 109.148 281.718 109.179C281.734 109.193 281.746 109.207 281.755 109.217C281.763 109.227 281.767 109.233 281.767 109.233L277.006 112.23C278.133 114.019 279.96 114.75 281.843 114.75V109.125ZM281.829 109.336C281.629 108.987 281.485 108.514 281.485 107.828H275.859C275.859 109.346 276.191 110.809 276.945 112.127L281.829 109.336ZM281.485 107.828C281.485 107.427 281.586 107.168 281.76 106.939L277.281 103.535C276.324 104.795 275.859 106.264 275.859 107.828H281.485ZM281.75 106.952C281.777 106.917 281.793 106.904 281.794 106.903C281.794 106.903 281.79 106.906 281.784 106.909C281.765 106.918 281.81 106.889 281.977 106.889V101.263C280.13 101.263 278.459 102.004 277.291 103.522L281.75 106.952ZM281.977 106.889H312.889V101.263H281.977V106.889ZM312.889 106.889C325.29 106.889 335.136 109.911 342.66 115.727L346.1 111.276C337.365 104.524 326.216 101.263 312.889 101.263V106.889ZM342.669 115.734C349.97 121.329 353.807 129.885 353.807 141.955H359.432C359.432 128.594 355.109 118.18 346.091 111.269L342.669 115.734ZM360.818 174.028L363.199 175.526L363.211 175.507L363.223 175.488L360.818 174.028ZM369.484 172.777V175.59H371.315L372.056 173.916L369.484 172.777ZM399.055 105.997L401.627 107.136L401.634 107.12L401.641 107.105L399.055 105.997ZM401.065 103.183L402.984 105.239L403.003 105.222L403.02 105.205L401.065 103.183ZM407.944 103.227L405.819 105.069L405.852 105.107L405.886 105.144L407.944 103.227ZM409.82 106.175L412.429 105.124L412.427 105.119L409.82 106.175ZM436.667 172.777L434.058 173.829L434.768 175.59H436.667V172.777ZM447.03 174.028L444.588 175.423L444.618 175.476L444.65 175.526L447.03 174.028ZM446.94 179.522L449.18 181.224L449.196 181.203L449.211 181.182L446.94 179.522ZM413.26 179.522L410.989 181.182L411.025 181.231L411.064 181.279L413.26 179.522ZM413.171 174.028L415.551 175.526L415.563 175.507L415.575 175.488L413.171 174.028ZM425.41 172.777V175.59H429.482L428.041 171.781L425.41 172.777ZM418.799 155.311L421.43 154.316L420.742 152.499H418.799V155.311ZM386.414 155.311V152.499H384.512L383.804 154.263L386.414 155.311ZM379.401 172.777L376.791 171.729L375.24 175.59H379.401V172.777ZM390.166 174.028L387.762 175.488L387.774 175.507L387.786 175.526L390.166 174.028ZM390.032 179.522L387.803 177.807L387.798 177.814L387.793 177.82L390.032 179.522ZM360.908 179.522L358.637 181.182L358.673 181.231L358.711 181.279L360.908 179.522ZM389.183 148.432L386.574 147.383L385.02 151.245H389.183V148.432ZM416.253 148.432V151.245H420.318L418.885 147.441L416.253 148.432ZM403.165 113.68L405.797 112.688L403.251 105.929L400.555 112.63L403.165 113.68ZM362.872 176.887C362.872 176.229 363.018 175.814 363.199 175.526L358.438 172.529C357.607 173.85 357.246 175.341 357.246 176.887H362.872ZM363.223 175.488C363.228 175.48 363.218 175.498 363.187 175.526C363.156 175.555 363.121 175.58 363.088 175.596C363.058 175.612 363.048 175.611 363.073 175.606C363.1 175.6 363.164 175.59 363.275 175.59V169.964C361.347 169.964 359.52 170.747 358.414 172.568L363.223 175.488ZM363.275 175.59H369.484V169.964H363.275V175.59ZM372.056 173.916L401.627 107.136L396.483 104.858L366.912 171.638L372.056 173.916ZM401.641 107.105C401.922 106.449 402.354 105.827 402.984 105.239L399.146 101.126C397.99 102.206 397.082 103.46 396.47 104.889L401.641 107.105ZM403.02 105.205C403.31 104.925 403.731 104.7 404.549 104.7V99.0744C402.509 99.0744 400.608 99.713 399.11 101.16L403.02 105.205ZM404.549 104.7C405.451 104.7 405.712 104.946 405.819 105.069L410.07 101.385C408.628 99.7215 406.626 99.0744 404.549 99.0744V104.7ZM405.886 105.144C406.454 105.755 406.895 106.445 407.214 107.232L412.427 105.119C411.853 103.702 411.042 102.427 410.003 101.311L405.886 105.144ZM407.212 107.227L434.058 173.829L439.275 171.725L412.429 105.124L407.212 107.227ZM436.667 175.59H444.618V169.964H436.667V175.59ZM444.618 175.59C444.843 175.59 444.86 175.631 444.775 175.587C444.732 175.565 444.686 175.533 444.646 175.493C444.627 175.474 444.612 175.457 444.602 175.444C444.597 175.438 444.594 175.432 444.591 175.429C444.589 175.425 444.588 175.423 444.588 175.423L449.472 172.632C448.397 170.751 446.544 169.964 444.618 169.964V175.59ZM444.65 175.526C444.831 175.814 444.976 176.229 444.976 176.887H450.602C450.602 175.341 450.242 173.85 449.41 172.529L444.65 175.526ZM444.976 176.887C444.976 177.289 444.874 177.583 444.67 177.863L449.211 181.182C450.139 179.913 450.602 178.45 450.602 176.887H444.976ZM444.701 177.82C444.686 177.839 444.683 177.839 444.694 177.831C444.706 177.821 444.72 177.813 444.731 177.807C444.759 177.794 444.713 177.826 444.528 177.826V183.452C446.334 183.452 448.016 182.755 449.18 181.224L444.701 177.82ZM444.528 177.826H415.717V183.452H444.528V177.826ZM415.717 177.826C415.624 177.826 415.563 177.818 415.529 177.811C415.511 177.807 415.5 177.804 415.494 177.802C415.49 177.801 415.488 177.8 415.487 177.8C415.486 177.8 415.486 177.799 415.485 177.799C415.485 177.799 415.485 177.799 415.485 177.799C415.485 177.799 415.485 177.799 415.485 177.799C415.485 177.799 415.486 177.799 415.486 177.8C415.487 177.8 415.488 177.8 415.489 177.801C415.491 177.802 415.492 177.803 415.491 177.803C415.491 177.803 415.488 177.8 415.483 177.795C415.477 177.789 415.468 177.78 415.456 177.765L411.064 181.279C412.247 182.759 413.911 183.452 415.717 183.452V177.826ZM415.531 177.863C415.326 177.583 415.224 177.289 415.224 176.887H409.599C409.599 178.45 410.062 179.913 410.989 181.182L415.531 177.863ZM415.224 176.887C415.224 176.229 415.37 175.814 415.551 175.526L410.79 172.529C409.959 173.85 409.599 175.341 409.599 176.887H415.224ZM415.575 175.488C415.58 175.48 415.57 175.498 415.54 175.526C415.508 175.555 415.473 175.58 415.441 175.596C415.41 175.612 415.4 175.611 415.425 175.606C415.452 175.6 415.516 175.59 415.627 175.59V169.964C413.699 169.964 411.872 170.747 410.766 172.568L415.575 175.488ZM415.627 175.59H425.41V169.964H415.627V175.59ZM428.041 171.781L421.43 154.316L416.168 156.307L422.779 173.773L428.041 171.781ZM418.799 152.499H386.414V158.124H418.799V152.499ZM383.804 154.263L376.791 171.729L382.011 173.825L389.024 156.359L383.804 154.263ZM379.401 175.59H387.709V169.964H379.401V175.59ZM387.709 175.59C387.82 175.59 387.885 175.6 387.911 175.606C387.936 175.611 387.927 175.612 387.896 175.596C387.864 175.58 387.828 175.555 387.797 175.526C387.767 175.498 387.757 175.48 387.762 175.488L392.57 172.568C391.464 170.747 389.638 169.964 387.709 169.964V175.59ZM387.786 175.526C387.967 175.814 388.113 176.229 388.113 176.887H393.738C393.738 175.341 393.378 173.85 392.546 172.529L387.786 175.526ZM388.113 176.887C388.113 177.253 388.018 177.528 387.803 177.807L392.261 181.237C393.238 179.968 393.738 178.486 393.738 176.887H388.113ZM387.793 177.82C387.778 177.839 387.775 177.839 387.786 177.831C387.797 177.821 387.811 177.813 387.823 177.807C387.851 177.794 387.804 177.826 387.62 177.826V183.452C389.426 183.452 391.108 182.755 392.271 181.224L387.793 177.82ZM387.62 177.826H363.365V183.452H387.62V177.826ZM363.365 177.826C363.271 177.826 363.211 177.818 363.176 177.811C363.159 177.807 363.148 177.804 363.141 177.802C363.138 177.801 363.136 177.8 363.135 177.8C363.134 177.8 363.133 177.799 363.133 177.799C363.133 177.799 363.133 177.799 363.133 177.799C363.133 177.799 363.133 177.799 363.133 177.799C363.133 177.799 363.133 177.799 363.134 177.8C363.135 177.8 363.135 177.8 363.136 177.801C363.138 177.802 363.14 177.803 363.139 177.803C363.139 177.803 363.136 177.8 363.131 177.795C363.125 177.789 363.116 177.78 363.104 177.765L358.711 181.279C359.895 182.759 361.559 183.452 363.365 183.452V177.826ZM363.179 177.863C362.974 177.583 362.872 177.289 362.872 176.887H357.246C357.246 178.45 357.71 179.913 358.637 181.182L363.179 177.863ZM389.183 151.245H416.253V145.62H389.183V151.245ZM418.885 147.441L405.797 112.688L400.533 114.671L413.621 149.424L418.885 147.441ZM400.555 112.63L386.574 147.383L391.793 149.482L405.774 114.73L400.555 112.63ZM469.543 114.082L471.669 115.924L471.674 115.918L471.679 115.912L469.543 114.082ZM469.052 130.163L467.175 132.258L467.192 132.273L467.208 132.287L469.052 130.163ZM478.075 134.272L478.75 131.542L478.747 131.541L478.075 134.272ZM490.895 137.444L491.574 134.714L491.57 134.713L490.895 137.444ZM505.234 144.635L503.348 146.723L503.358 146.731L505.234 144.635ZM461.815 176.395L463.409 174.077L459.567 171.436L459.022 176.067L461.815 176.395ZM456.008 181.085L457.593 178.762L456.008 181.085ZM454.847 178.897L452.053 179.218L452.053 179.225L454.847 178.897ZM452.301 156.741H449.488V156.902L449.506 157.062L452.301 156.741ZM453.373 154.105L455.119 156.311L455.146 156.289L455.173 156.266L453.373 154.105ZM458.956 154.016L457.223 156.231L457.253 156.255L457.285 156.278L458.956 154.016ZM460.163 156.115L462.957 155.794L462.954 155.769L462.951 155.744L460.163 156.115ZM460.877 162.324L463.674 162.024L463.673 162.013L463.672 162.003L460.877 162.324ZM467.042 170.231L465.498 172.582L465.505 172.587L465.511 172.591L467.042 170.231ZM494.424 171.214L493.427 168.583L493.422 168.585L494.424 171.214ZM497.953 151.738L496.413 154.092L496.419 154.096L496.426 154.1L497.953 151.738ZM489.331 147.941L490.104 145.236L490.099 145.235L489.331 147.941ZM474.68 143.787L475.447 141.081L475.371 141.059L475.293 141.042L474.68 143.787ZM461.413 137.444L459.555 139.555L459.564 139.563L459.574 139.572L461.413 137.444ZM463.825 108.543L465.477 110.82L465.479 110.818L463.825 108.543ZM491.788 104.121L491.136 106.857L491.141 106.858L491.788 104.121ZM499.918 107.962L498.117 110.123L502.731 113.967V107.962H499.918ZM501.079 104.567L498.852 102.849L498.845 102.859L501.079 104.567ZM507.69 105.952L510.503 105.902L510.5 105.741L510.479 105.58L507.69 105.952ZM508.003 123.686H510.816V123.661L510.815 123.636L508.003 123.686ZM506.842 126.5L508.501 128.771L508.529 128.75L508.557 128.729L506.842 126.5ZM501.303 126.679L499.718 129.002L499.742 129.019L499.766 129.034L501.303 126.679ZM500.141 124.534L497.33 124.631L497.335 124.753L497.349 124.873L500.141 124.534ZM499.963 119.353L502.774 119.256L502.77 119.143L502.757 119.031L499.963 119.353ZM483.748 107.204C476.51 107.204 470.605 108.521 467.407 112.251L471.679 115.912C473.127 114.223 476.691 112.83 483.748 112.83V107.204ZM467.417 112.24C464.678 115.401 463.246 119.069 463.246 123.15H468.872C468.872 120.5 469.763 118.123 471.669 115.924L467.417 112.24ZM463.246 123.15C463.246 126.767 464.534 129.892 467.175 132.258L470.928 128.067C469.579 126.86 468.872 125.309 468.872 123.15H463.246ZM467.208 132.287C469.702 134.451 473.189 135.966 477.402 137.003L478.747 131.541C474.98 130.613 472.451 129.388 470.895 128.038L467.208 132.287ZM477.399 137.003L490.219 140.174L491.57 134.713L478.75 131.542L477.399 137.003ZM490.216 140.173C495.729 141.545 500.065 143.757 503.348 146.723L507.119 142.548C503.017 138.843 497.794 136.261 491.574 134.714L490.216 140.173ZM503.358 146.731C506.236 149.308 507.96 153.574 507.96 160.18H513.585C513.585 152.671 511.616 146.574 507.11 142.54L503.358 146.731ZM507.96 160.18C507.96 167.002 505.354 171.525 500.258 174.334L502.973 179.261C510.086 175.34 513.585 168.785 513.585 160.18H507.96ZM500.258 174.334C494.616 177.443 488.14 179.032 480.755 179.032V184.658C488.974 184.658 496.405 182.881 502.973 179.261L500.258 174.334ZM480.755 179.032C477.848 179.032 474.848 178.648 471.75 177.867L470.374 183.321C473.886 184.207 477.349 184.658 480.755 184.658V179.032ZM471.75 177.867C468.774 177.116 465.997 175.857 463.409 174.077L460.222 178.713C463.351 180.864 466.739 182.404 470.374 183.321L471.75 177.867ZM459.022 176.067C458.939 176.77 458.707 177.673 458.262 178.801L463.493 180.869C464.06 179.435 464.453 178.046 464.609 176.724L459.022 176.067ZM458.262 178.801C458.193 178.975 458.135 179.077 458.101 179.127C458.069 179.177 458.069 179.164 458.115 179.125C458.165 179.082 458.247 179.029 458.355 178.99C458.462 178.951 458.551 178.943 458.599 178.943V184.568C459.755 184.568 460.843 184.183 461.741 183.426C462.587 182.712 463.131 181.783 463.493 180.869L458.262 178.801ZM458.599 178.943C457.898 178.943 457.643 178.795 457.593 178.762L454.424 183.409C455.684 184.269 457.156 184.568 458.599 184.568V178.943ZM457.593 178.762C457.619 178.779 457.647 178.804 457.672 178.832C457.697 178.86 457.709 178.881 457.711 178.885C457.714 178.891 457.668 178.807 457.64 178.568L452.053 179.225C452.239 180.799 452.914 182.38 454.424 183.409L457.593 178.762ZM457.641 178.576L455.095 156.42L449.506 157.062L452.053 179.218L457.641 178.576ZM455.113 156.741C455.113 156.419 455.163 156.277 455.174 156.248C455.179 156.236 455.177 156.245 455.162 156.265C455.147 156.285 455.131 156.301 455.119 156.311L451.627 151.9C450.043 153.154 449.488 154.975 449.488 156.741H455.113ZM455.173 156.266C455.174 156.266 455.19 156.252 455.234 156.23C455.278 156.208 455.352 156.177 455.466 156.145C455.699 156.081 456.06 156.025 456.589 156.025V150.399C454.838 150.399 453.002 150.753 451.572 151.945L455.173 156.266ZM456.589 156.025C456.872 156.025 457.047 156.094 457.223 156.231L460.69 151.801C459.496 150.866 458.092 150.399 456.589 150.399V156.025ZM457.285 156.278C457.312 156.298 457.324 156.311 457.328 156.315C457.331 156.319 457.332 156.32 457.333 156.322C457.334 156.323 457.339 156.333 457.347 156.356C457.355 156.38 457.366 156.422 457.374 156.487L462.951 155.744C462.737 154.144 461.965 152.742 460.628 151.754L457.285 156.278ZM457.368 156.437L458.083 162.646L463.672 162.003L462.957 155.794L457.368 156.437ZM458.081 162.625C458.513 166.643 461.424 169.908 465.498 172.582L468.585 167.879C465.036 165.55 463.837 163.545 463.674 162.024L458.081 162.625ZM465.511 172.591C469.783 175.361 474.515 176.751 479.638 176.751V171.126C475.59 171.126 471.923 170.044 468.572 167.871L465.511 172.591ZM479.638 176.751C485.073 176.751 490.341 175.78 495.426 173.842L493.422 168.585C488.977 170.28 484.388 171.126 479.638 171.126V176.751ZM495.42 173.844C498.282 172.76 500.601 171.041 502.177 168.613C503.741 166.204 504.428 163.32 504.428 160.136H498.803C498.803 162.52 498.292 164.267 497.458 165.55C496.637 166.815 495.36 167.851 493.427 168.583L495.42 173.844ZM504.428 160.136C504.428 155.563 503.01 151.658 499.479 149.376L496.426 154.1C497.779 154.975 498.803 156.668 498.803 160.136H504.428ZM499.493 149.384C496.801 147.623 493.658 146.252 490.104 145.237L488.559 150.646C491.675 151.536 494.279 152.696 496.413 154.092L499.493 149.384ZM490.099 145.235L475.447 141.081L473.913 146.493L488.564 150.647L490.099 145.235ZM475.293 141.042C470.336 139.934 466.358 138 463.253 135.316L459.574 139.572C463.496 142.962 468.363 145.257 474.067 146.532L475.293 141.042ZM463.272 135.333C460.559 132.945 459 129.292 459 123.864H453.374C453.374 130.409 455.299 135.808 459.555 139.555L463.272 135.333ZM459 123.864C459 118.205 461.145 113.961 465.477 110.82L462.174 106.266C456.321 110.51 453.374 116.481 453.374 123.864H459ZM465.479 110.818C470.058 107.491 475.608 105.772 482.274 105.772V100.146C474.585 100.146 467.837 102.15 462.172 106.268L465.479 110.818ZM482.274 105.772C485.135 105.772 488.087 106.129 491.136 106.857L492.441 101.385C488.998 100.563 485.607 100.146 482.274 100.146V105.772ZM491.141 106.858C494.079 107.552 496.37 108.667 498.117 110.123L501.719 105.801C499.178 103.684 496.049 102.237 492.435 101.383L491.141 106.858ZM502.731 107.962C502.731 107.342 502.907 106.808 503.314 106.276L498.845 102.859C497.703 104.352 497.105 106.081 497.105 107.962H502.731ZM503.306 106.285C503.626 105.871 503.844 105.817 504.117 105.817V100.191C501.948 100.191 500.141 101.179 498.852 102.849L503.306 106.285ZM504.117 105.817C504.4 105.817 504.575 105.885 504.751 106.023L508.218 101.593C507.024 100.658 505.62 100.191 504.117 100.191V105.817ZM504.751 106.023C504.819 106.076 504.84 106.11 504.848 106.125C504.857 106.141 504.885 106.196 504.902 106.324L510.479 105.58C510.266 103.988 509.505 102.6 508.218 101.593L504.751 106.023ZM504.878 106.002L505.191 123.735L510.815 123.636L510.503 105.902L504.878 106.002ZM505.19 123.686C505.19 124.051 505.134 124.224 505.113 124.277C505.103 124.301 505.099 124.302 505.108 124.291C505.111 124.286 505.115 124.281 505.12 124.277C505.122 124.275 505.123 124.273 505.125 124.272C505.126 124.271 505.127 124.27 505.127 124.27L508.557 128.729C510.227 127.444 510.816 125.545 510.816 123.686H505.19ZM505.182 124.229C504.996 124.365 504.635 124.536 503.894 124.536V130.161C505.535 130.161 507.139 129.766 508.501 128.771L505.182 124.229ZM503.894 124.536C503.248 124.536 502.957 124.399 502.839 124.323L499.766 129.034C501.019 129.851 502.454 130.161 503.894 130.161V124.536ZM502.887 124.355C502.907 124.368 502.932 124.389 502.955 124.415C502.978 124.44 502.99 124.461 502.994 124.468C503.001 124.481 502.96 124.411 502.934 124.196L497.349 124.873C497.54 126.445 498.232 127.989 499.718 129.002L502.887 124.355ZM502.952 124.437L502.774 119.256L497.152 119.45L497.33 124.631L502.952 124.437ZM502.757 119.031C502.246 114.592 499.697 111.377 495.54 109.579L493.307 114.743C495.761 115.804 496.905 117.383 497.168 119.674L502.757 119.031ZM495.54 109.579C491.862 107.989 487.921 107.204 483.748 107.204V112.83C487.198 112.83 490.375 113.475 493.307 114.743L495.54 109.579Z" fill="white"/>
<path d="M614.996 191.857C614.727 209.342 600.155 225.148 576.496 236.917C554.924 247.646 525.78 255.029 493.035 257.272C487.263 257.674 482.535 260.719 481.307 264.768L465.355 317.248L453.441 356.442C451.018 364.439 436.597 366.72 429.648 360.215L398.468 331.048L349.653 285.386L325.052 263.514L319.516 258.601C309.722 249.89 291.953 248.636 279.787 255.643C279.67 255.706 279.569 255.768 279.451 255.831C268.194 262.211 248.035 268.252 205.093 268.039C165.112 267.839 128.311 256.896 101.573 241.354C74.8355 225.812 58.1768 205.67 58.4629 187.069C58.4965 184.738 58.7994 182.432 59.3211 180.15L59.3379 180.088C60.297 176.064 57.6552 172.041 52.7417 169.948C39.398 164.27 28.3091 157.451 20.1816 149.843C10.3211 140.606 4.83549 130.202 5.00376 119.222C5.20568 106.149 13.4004 94.0039 27.434 83.7886C40.2225 74.4758 57.8235 66.7674 78.6384 61.4028C82.3571 60.4377 85.3018 58.3821 86.6816 55.7249C94.0518 41.599 111.03 29.278 134.235 20.3162C159.694 10.4895 192.607 4.69875 228.482 5.0121C250.222 5.20011 270.802 7.60666 289.244 11.7554C305.785 15.478 320.609 20.6044 332.977 26.7963C335.686 28.1499 338.984 28.7516 342.266 28.4508C346.355 28.0747 350.494 27.7864 354.701 27.5734C360.674 27.2725 366.766 27.1472 372.941 27.1974C407.117 27.4982 438.448 33.2764 463.066 42.702C485.665 51.3505 502.609 63.0699 510.956 76.4437C512.386 78.7374 514.91 80.5924 518.141 81.5575C537.795 87.4235 554.251 95.4077 566.03 104.796C578.819 114.998 586.071 126.843 585.869 139.452C585.835 141.182 585.667 142.887 585.364 144.591L585.347 144.654C584.792 147.762 586.29 150.896 589.47 153.064C596.739 158.015 602.645 163.417 606.936 169.171C612.287 176.277 615.114 183.923 614.996 191.857Z" stroke="white" stroke-width="9.37203" stroke-miterlimit="10"/>
</svg>
