<svg width="198" height="208" viewBox="0 0 198 208" fill="none" xmlns="http://www.w3.org/2000/svg">
<g clip-path="url(#clip0)">
<path d="M32.992 138.22C28.4453 138.22 24.7441 142.096 24.7441 146.858C24.7441 151.62 28.4453 155.497 32.992 155.497C37.5388 155.497 41.2399 151.621 41.2399 146.859C41.2399 142.097 37.5391 138.22 32.992 138.22Z" fill="url(#paint0_linear)"/>
<path d="M74.2324 25.9164C69.6857 25.9164 65.9845 29.7929 65.9845 34.555C65.9845 39.3171 69.6857 43.1936 74.2324 43.1936C78.7791 43.1936 82.4803 39.3171 82.4803 34.555C82.4803 29.7929 78.7791 25.9164 74.2324 25.9164Z" fill="url(#paint1_linear)"/>
<path d="M164.961 43.194C146.77 43.194 131.969 58.6955 131.969 77.7488C131.969 90.6243 146.136 113.728 154.997 126.929C154.466 127.351 153.995 127.861 153.701 128.54C152.806 130.594 153.58 132.998 155.42 134.087C153.62 135.247 152.931 137.676 153.894 139.697C154.619 141.211 156.073 142.084 157.587 142.084C158.207 142.084 158.835 141.936 159.427 141.629L166.786 137.775L166.788 137.774L166.806 137.765C166.829 137.752 166.839 137.723 166.862 137.71C167.387 137.423 167.865 137.035 168.235 136.529C171.276 132.369 197.953 95.4018 197.953 77.7488C197.953 58.6955 183.153 43.194 164.961 43.194ZM164.961 126.671C155.895 113.607 140.217 88.7458 140.217 77.7488C140.217 63.4576 151.316 51.8326 164.961 51.8326C178.606 51.8326 189.705 63.4576 189.705 77.7488C189.705 88.7453 174.027 113.607 164.961 126.671Z" fill="url(#paint2_linear)"/>
<path d="M164.961 69.1101C160.414 69.1101 156.713 72.9866 156.713 77.7487C156.713 82.5108 160.414 86.3873 164.961 86.3873C169.508 86.3873 173.209 82.5108 173.209 77.7487C173.209 72.9866 169.508 69.1101 164.961 69.1101Z" fill="url(#paint3_linear)"/>
<path d="M43.0637 195.878C51.9313 182.651 65.9845 159.683 65.9845 146.859C65.9845 127.805 51.184 112.304 32.9924 112.304C14.8005 112.304 0 127.805 0 146.859C0 164.512 26.6773 201.479 29.7181 205.638C29.9377 205.938 30.2532 206.113 30.5327 206.339C30.7009 206.475 30.8258 206.643 31.0098 206.749C31.6149 207.102 32.2803 207.33 32.9924 207.33L32.9944 207.329L32.9963 207.33C33.091 207.33 33.1819 207.267 33.2766 207.26C33.8171 207.219 34.3514 207.124 34.827 206.877C34.8301 206.875 34.8335 206.875 34.8366 206.874L42.2146 203.01C44.2525 201.943 45.078 199.348 44.0592 197.214C43.8075 196.686 43.4642 196.24 43.0637 195.878ZM32.992 195.78C23.9264 182.717 8.24791 157.855 8.24791 146.858C8.24791 132.567 19.3472 120.942 32.992 120.942C46.6369 120.942 57.7362 132.567 57.7362 146.858C57.7362 157.855 42.0577 182.717 32.992 195.78Z" fill="url(#paint4_linear)"/>
<path d="M142.718 140.717L129.693 147.538C127.655 148.605 126.83 151.199 127.848 153.334C128.573 154.848 130.027 155.721 131.541 155.721C132.162 155.721 132.79 155.573 133.382 155.266L146.406 148.445C148.444 147.378 149.27 144.783 148.251 142.649C147.233 140.519 144.752 139.663 142.718 140.717Z" fill="url(#paint5_linear)"/>
<path d="M64.5749 181.641L51.5502 188.462C49.5123 189.529 48.6868 192.124 49.7056 194.258C50.4305 195.773 51.8842 196.646 53.3986 196.646C54.0188 196.646 54.6471 196.498 55.239 196.19L68.2637 189.369C70.3016 188.302 71.127 185.708 70.1083 183.573C69.0857 181.439 66.6085 180.587 64.5749 181.641Z" fill="url(#paint6_linear)"/>
<path d="M116.669 154.359L103.644 161.179C101.606 162.247 100.78 164.841 101.799 166.975C102.524 168.49 103.978 169.363 105.492 169.363C106.112 169.363 106.741 169.215 107.333 168.907L120.357 162.087C122.395 161.02 123.221 158.425 122.202 156.291C121.179 154.156 118.706 153.296 116.669 154.359Z" fill="url(#paint7_linear)"/>
<path d="M90.6194 168L77.5989 174.821C75.561 175.888 74.7356 178.482 75.7543 180.617C76.4793 182.131 77.933 183.004 79.4474 183.004C80.0675 183.004 80.6958 182.856 81.2877 182.549L94.3082 175.728C96.3461 174.661 97.1715 172.066 96.1528 169.932C95.1301 167.797 92.6492 166.941 90.6194 168Z" fill="url(#paint8_linear)"/>
<path d="M93.1325 99.7042C92.19 101.877 93.1043 104.437 95.1786 105.424L110.317 112.633C110.873 112.898 111.453 113.021 112.021 113.021C113.592 113.021 115.09 112.08 115.778 110.49C116.721 108.317 115.807 105.757 113.732 104.77L98.5937 97.5613C96.5078 96.5615 94.067 97.5402 93.1325 99.7042Z" fill="url(#paint9_linear)"/>
<path d="M142.307 127.438C143.878 127.438 145.376 126.498 146.065 124.907C147.007 122.735 146.093 120.174 144.019 119.188L128.876 111.979C126.777 110.983 124.353 111.958 123.414 114.122C122.472 116.294 123.386 118.855 125.46 119.842L140.603 127.05C141.159 127.316 141.739 127.438 142.307 127.438Z" fill="url(#paint10_linear)"/>
<path d="M81.7353 98.5992C83.3062 98.5992 84.8043 97.6585 85.4929 96.0683C86.4355 93.8958 85.5173 91.3354 83.4469 90.3485L80.5986 88.9928C88.4108 77.8237 107.224 49.3976 107.224 34.5549C107.224 15.5017 92.424 0.00012207 74.2324 0.00012207C56.0408 0.00012207 41.2404 15.5017 41.2404 34.5549C41.2404 52.2079 67.9176 89.1754 70.9585 93.3345C70.994 93.3835 71.0536 93.4022 71.0915 93.4491C71.3652 93.795 71.7147 94.063 72.0928 94.3109C72.2262 94.3979 72.3275 94.5255 72.4694 94.5959C72.4911 94.6065 72.5038 94.6275 72.5255 94.638L80.0318 98.2108C80.5878 98.4769 81.1677 98.5992 81.7353 98.5992ZM49.4883 34.5549C49.4883 20.2638 60.5876 8.63873 74.2324 8.63873C87.8773 8.63873 98.9765 20.2638 98.9765 34.5549C98.9765 45.5515 83.298 70.4133 74.2324 83.4771C65.1668 70.4133 49.4883 45.5519 49.4883 34.5549Z" fill="url(#paint11_linear)"/>
</g>
<defs>
<linearGradient id="paint0_linear" x1="24.5401" y1="160.362" x2="50.7705" y2="143.649" gradientUnits="userSpaceOnUse">
<stop stop-color="#003F8A"/>
<stop offset="0.518" stop-color="#00D7DF"/>
<stop offset="1" stop-color="#006DF0"/>
</linearGradient>
<linearGradient id="paint1_linear" x1="65.7805" y1="48.0578" x2="92.0105" y2="31.3454" gradientUnits="userSpaceOnUse">
<stop stop-color="#003F8A"/>
<stop offset="0.518" stop-color="#00D7DF"/>
<stop offset="1" stop-color="#006DF0"/>
</linearGradient>
<linearGradient id="paint2_linear" x1="131.153" y1="169.926" x2="254.26" y2="115.11" gradientUnits="userSpaceOnUse">
<stop stop-color="#003F8A"/>
<stop offset="0.518" stop-color="#00D7DF"/>
<stop offset="1" stop-color="#006DF0"/>
</linearGradient>
<linearGradient id="paint3_linear" x1="156.509" y1="91.2515" x2="182.739" y2="74.5391" gradientUnits="userSpaceOnUse">
<stop stop-color="#003F8A"/>
<stop offset="0.518" stop-color="#00D7DF"/>
<stop offset="1" stop-color="#006DF0"/>
</linearGradient>
<linearGradient id="paint4_linear" x1="-0.816125" y1="234.083" x2="120.624" y2="177.81" gradientUnits="userSpaceOnUse">
<stop stop-color="#003F8A"/>
<stop offset="0.518" stop-color="#00D7DF"/>
<stop offset="1" stop-color="#006DF0"/>
</linearGradient>
<linearGradient id="paint5_linear" x1="127.149" y1="160.073" x2="152.944" y2="136.376" gradientUnits="userSpaceOnUse">
<stop stop-color="#003F8A"/>
<stop offset="0.518" stop-color="#00D7DF"/>
<stop offset="1" stop-color="#006DF0"/>
</linearGradient>
<linearGradient id="paint6_linear" x1="49.006" y1="200.997" x2="74.8026" y2="177.301" gradientUnits="userSpaceOnUse">
<stop stop-color="#003F8A"/>
<stop offset="0.518" stop-color="#00D7DF"/>
<stop offset="1" stop-color="#006DF0"/>
</linearGradient>
<linearGradient id="paint7_linear" x1="101.1" y1="173.715" x2="126.902" y2="150.019" gradientUnits="userSpaceOnUse">
<stop stop-color="#003F8A"/>
<stop offset="0.518" stop-color="#00D7DF"/>
<stop offset="1" stop-color="#006DF0"/>
</linearGradient>
<linearGradient id="paint8_linear" x1="75.0548" y1="187.356" x2="100.854" y2="163.665" gradientUnits="userSpaceOnUse">
<stop stop-color="#003F8A"/>
<stop offset="0.518" stop-color="#00D7DF"/>
<stop offset="1" stop-color="#006DF0"/>
</linearGradient>
<linearGradient id="paint9_linear" x1="92.4721" y1="117.484" x2="119.022" y2="91.3434" gradientUnits="userSpaceOnUse">
<stop stop-color="#003F8A"/>
<stop offset="0.518" stop-color="#00D7DF"/>
<stop offset="1" stop-color="#006DF0"/>
</linearGradient>
<linearGradient id="paint10_linear" x1="122.754" y1="131.901" x2="149.301" y2="105.756" gradientUnits="userSpaceOnUse">
<stop stop-color="#003F8A"/>
<stop offset="0.518" stop-color="#00D7DF"/>
<stop offset="1" stop-color="#006DF0"/>
</linearGradient>
<linearGradient id="paint11_linear" x1="40.4243" y1="126.359" x2="163.411" y2="71.4346" gradientUnits="userSpaceOnUse">
<stop stop-color="#003F8A"/>
<stop offset="0.518" stop-color="#00D7DF"/>
<stop offset="1" stop-color="#006DF0"/>
</linearGradient>
<clipPath id="clip0">
<rect width="197.953" height="207.33" fill="white"/>
</clipPath>
</defs>
</svg>
