<svg width="788" height="107" viewBox="0 0 788 107" fill="none" xmlns="http://www.w3.org/2000/svg">
<ellipse cx="73.8886" cy="53.5" rx="73.3298" ry="53.5" fill="#F2C960"/>
<ellipse cx="238.252" cy="53.5" rx="73.3298" ry="53.5" fill="#8178E1"/>
<ellipse cx="394.451" cy="53.5" rx="73.3298" ry="53.5" fill="#69E03F"/>
<ellipse cx="558.815" cy="53.5" rx="73.3298" ry="53.5" fill="#EC6E8C"/>
<ellipse cx="713.994" cy="53.5" rx="73.3298" ry="53.5" fill="#7E27EC"/>
<path d="M74.4997 28.7L83.4885 45.01L84.9839 47.7234H88.0821H106.469L94.4113 52.8884L89.0873 55.1689L91.8829 60.2415L98.1029 71.5276L76.5649 62.302L74.4997 61.4174L72.4345 62.302L50.8965 71.5276L57.1165 60.2415L59.9121 55.1689L54.588 52.8884L42.5299 47.7234H60.9172H64.0155L65.5109 45.01L74.4997 28.7Z" fill="#E5E5E5" stroke="white" stroke-width="10.4902"/>
<path d="M238.614 28.7L247.602 45.01L249.098 47.7234H252.196H270.583L258.525 52.8884L253.201 55.1689L255.997 60.2415L262.217 71.5276L240.679 62.302L238.614 61.4174L236.548 62.302L215.01 71.5276L221.23 60.2415L224.026 55.1689L218.702 52.8884L206.644 47.7234H225.031H228.129L229.625 45.01L238.614 28.7Z" fill="#E5E5E5" stroke="white" stroke-width="10.4902"/>
<path d="M395.062 28.7L404.051 45.01L405.547 47.7234H408.645H427.032L414.974 52.8884L409.65 55.1689L412.446 60.2415L418.666 71.5276L397.128 62.302L395.062 61.4174L392.997 62.302L371.459 71.5276L377.679 60.2415L380.475 55.1689L375.151 52.8884L363.093 47.7234H381.48H384.578L386.074 45.01L395.062 28.7Z" fill="#E5E5E5" stroke="white" stroke-width="10.4902"/>
<path d="M558.014 28.7L567.002 45.01L568.498 47.7234H571.596H589.983L577.925 52.8884L572.601 55.1689L575.397 60.2415L581.617 71.5276L560.079 62.302L558.014 61.4174L555.948 62.302L534.41 71.5276L540.63 60.2415L543.426 55.1689L538.102 52.8884L526.044 47.7234H544.431H547.529L549.025 45.01L558.014 28.7Z" fill="#E5E5E5" stroke="white" stroke-width="10.4902"/>
<path d="M718.324 28.7L727.313 45.01L728.808 47.7234H731.907H750.294L738.236 52.8884L732.912 55.1689L735.707 60.2415L741.927 71.5276L720.389 62.302L718.324 61.4174L716.259 62.302L694.721 71.5276L700.941 60.2415L703.737 55.1689L698.413 52.8884L686.354 47.7234H704.742H707.84L709.335 45.01L718.324 28.7Z" fill="#E5E5E5" stroke="white" stroke-width="10.4902"/>
</svg>
