<svg width="305" height="18" viewBox="0 0 305 18" fill="none" xmlns="http://www.w3.org/2000/svg">
<path d="M10.7378 12.5389C10.697 13.4251 10.4579 14.2093 10.0206 14.8915C9.58332 15.5679 8.9682 16.0926 8.17523 16.4658C7.3881 16.8389 6.48728 17.0255 5.47275 17.0255C3.79937 17.0255 2.48166 16.4803 1.51961 15.39C0.557559 14.2997 0.076535 12.7604 0.076535 10.7722V10.1425C0.076535 8.89474 0.292267 7.80441 0.723731 6.87152C1.16103 5.93279 1.78782 5.2098 2.6041 4.70254C3.42038 4.18944 4.36494 3.9329 5.43777 3.9329C6.98288 3.9329 8.22479 4.34104 9.16352 5.15732C10.1022 5.96778 10.6357 7.08725 10.764 8.51575H7.70296C7.67963 7.74028 7.48431 7.18346 7.11698 6.84528C6.74965 6.50711 6.18992 6.33802 5.43777 6.33802C4.67396 6.33802 4.11422 6.62372 3.75856 7.19512C3.40289 7.76652 3.21631 8.679 3.19882 9.93258V10.8334C3.19882 12.1919 3.36791 13.1627 3.70608 13.7458C4.05009 14.3289 4.63898 14.6204 5.47275 14.6204C6.17825 14.6204 6.71759 14.4542 7.09074 14.1219C7.4639 13.7895 7.66214 13.2619 7.68546 12.5389H10.7378ZM22.1774 4.11656V12.4514C22.1774 13.396 21.9763 14.2152 21.5739 14.909C21.1716 15.597 20.5944 16.1218 19.8423 16.4833C19.0901 16.8448 18.2009 17.0255 17.1748 17.0255C15.6238 17.0255 14.4023 16.6232 13.5102 15.8186C12.6182 15.0139 12.1634 13.912 12.1459 12.5126V4.11656H15.2332V12.5738C15.2682 13.9674 15.9154 14.6641 17.1748 14.6641C17.8103 14.6641 18.2913 14.4892 18.6178 14.1394C18.9443 13.7895 19.1076 13.221 19.1076 12.4339V4.11656H22.1774ZM27.3725 16.8506H24.3114V4.11656H27.3725V16.8506ZM29.5065 16.8506V4.11656H33.6083C34.7336 4.11656 35.7452 4.37311 36.6431 4.8862C37.541 5.39346 38.2407 6.11354 38.7421 7.04644C39.2494 7.9735 39.506 9.01426 39.5118 10.1687V10.7547C39.5118 11.9208 39.264 12.9674 38.7684 13.8945C38.2786 14.8157 37.5848 15.5387 36.6869 16.0635C35.7948 16.5824 34.7977 16.8448 33.6958 16.8506H29.5065ZM32.5763 6.4867V14.4892H33.6433C34.5237 14.4892 35.2001 14.1773 35.6723 13.5534C36.1446 12.9237 36.3808 11.9908 36.3808 10.7547V10.2037C36.3808 8.97345 36.1446 8.04638 35.6723 7.42251C35.2001 6.79864 34.512 6.4867 33.6083 6.4867H32.5763ZM48.1265 14.4717H43.9197L43.1851 16.8506H39.9053L44.5757 4.11656H47.4618L52.1671 16.8506H48.8699L48.1265 14.4717ZM44.6544 12.1016H47.3918L46.0187 7.68489L44.6544 12.1016ZM53.1029 16.8506V4.11656H57.2047C58.33 4.11656 59.3416 4.37311 60.2396 4.8862C61.1375 5.39346 61.8371 6.11354 62.3386 7.04644C62.8458 7.9735 63.1024 9.01426 63.1082 10.1687V10.7547C63.1082 11.9208 62.8604 12.9674 62.3648 13.8945C61.875 14.8157 61.1812 15.5387 60.2833 16.0635C59.3912 16.5824 58.3942 16.8448 57.2922 16.8506H53.1029ZM56.1727 6.4867V14.4892H57.2397C58.1201 14.4892 58.7965 14.1773 59.2688 13.5534C59.741 12.9237 59.9772 11.9908 59.9772 10.7547V10.2037C59.9772 8.97345 59.741 8.04638 59.2688 7.42251C58.7965 6.79864 58.1085 6.4867 57.2047 6.4867H56.1727ZM75.4662 10.746C75.4662 11.9879 75.2359 13.0869 74.7752 14.0432C74.3146 14.9994 73.6587 15.7369 72.8074 16.2559C71.962 16.769 70.997 17.0255 69.9125 17.0255C68.828 17.0255 67.866 16.7777 67.0264 16.2821C66.1868 15.7807 65.5308 15.0664 65.0586 14.1394C64.5921 13.2123 64.3472 12.1482 64.3239 10.9471V10.2299C64.3239 8.9822 64.5513 7.88313 65.0061 6.93274C65.4667 5.97652 66.1226 5.23895 66.9739 4.72003C67.831 4.20111 68.8047 3.94164 69.895 3.94164C70.9737 3.94164 71.9357 4.19819 72.7812 4.71128C73.6266 5.22438 74.2826 5.95612 74.749 6.9065C75.2213 7.85106 75.4603 8.93555 75.4662 10.16V10.746ZM72.3439 10.2125C72.3439 8.94721 72.1311 7.98808 71.7054 7.33505C71.2856 6.67619 70.6822 6.34677 69.895 6.34677C68.3558 6.34677 67.5424 7.50122 67.4549 9.81014L67.4462 10.746C67.4462 11.9937 67.6532 12.9528 68.0671 13.6234C68.4811 14.2939 69.0962 14.6291 69.9125 14.6291C70.688 14.6291 71.2856 14.2997 71.7054 13.6408C72.1252 12.982 72.3381 12.0345 72.3439 10.7984V10.2125ZM83.6173 13.4659C83.6173 13.017 83.457 12.6671 83.1363 12.4164C82.8214 12.1657 82.2646 11.9062 81.4658 11.638C80.667 11.3698 80.014 11.1104 79.5067 10.8596C77.8567 10.0492 77.0317 8.93555 77.0317 7.51872C77.0317 6.81321 77.2357 6.19225 77.6439 5.65584C78.0578 5.11359 78.6409 4.69379 79.393 4.39643C80.1452 4.09324 80.9906 3.94164 81.9294 3.94164C82.8448 3.94164 83.664 4.1049 84.387 4.43141C85.1158 4.75793 85.6813 5.22438 86.0837 5.83076C86.486 6.43131 86.6871 7.11932 86.6871 7.89479H83.6261C83.6261 7.37587 83.4657 6.97355 83.145 6.68786C82.8302 6.40216 82.4016 6.25931 81.8594 6.25931C81.3113 6.25931 80.8769 6.38175 80.5562 6.62663C80.2414 6.86569 80.084 7.17179 80.084 7.54495C80.084 7.87147 80.2589 8.16883 80.6087 8.43703C80.9586 8.69941 81.5737 8.97345 82.4541 9.25915C83.3345 9.53902 84.0575 9.84221 84.6231 10.1687C85.9991 10.9617 86.6871 12.0549 86.6871 13.4484C86.6871 14.5621 86.2673 15.4367 85.4277 16.0722C84.5881 16.7077 83.4366 17.0255 81.9731 17.0255C80.9411 17.0255 80.0053 16.8418 79.1657 16.4745C78.3319 16.1014 77.7022 15.5941 77.2765 14.9527C76.8567 14.3055 76.6468 13.5621 76.6468 12.7225H79.7254C79.7254 13.4047 79.9003 13.909 80.2501 14.2356C80.6058 14.5562 81.1801 14.7166 81.9731 14.7166C82.4803 14.7166 82.8797 14.6087 83.1713 14.393C83.4686 14.1714 83.6173 13.8624 83.6173 13.4659ZM100.742 11.778H95.7916V16.8506H92.7218V4.11656H101.24V6.4867H95.7916V9.41657H100.742V11.778ZM105.788 16.8506H102.727V4.11656H105.788V16.8506ZM104.625 0.705662H107.739L105.307 3.45187H102.902L104.625 0.705662ZM114.49 13.4659C114.49 13.017 114.33 12.6671 114.009 12.4164C113.694 12.1657 113.138 11.9062 112.339 11.638C111.54 11.3698 110.887 11.1104 110.38 10.8596C108.73 10.0492 107.905 8.93555 107.905 7.51872C107.905 6.81321 108.109 6.19225 108.517 5.65584C108.931 5.11359 109.514 4.69379 110.266 4.39643C111.018 4.09324 111.864 3.94164 112.802 3.94164C113.718 3.94164 114.537 4.1049 115.26 4.43141C115.989 4.75793 116.554 5.22438 116.957 5.83076C117.359 6.43131 117.56 7.11932 117.56 7.89479H114.499C114.499 7.37587 114.339 6.97355 114.018 6.68786C113.703 6.40216 113.275 6.25931 112.732 6.25931C112.184 6.25931 111.75 6.38175 111.429 6.62663C111.114 6.86569 110.957 7.17179 110.957 7.54495C110.957 7.87147 111.132 8.16883 111.482 8.43703C111.832 8.69941 112.447 8.97345 113.327 9.25915C114.208 9.53902 114.931 9.84221 115.496 10.1687C116.872 10.9617 117.56 12.0549 117.56 13.4484C117.56 14.5621 117.14 15.4367 116.301 16.0722C115.461 16.7077 114.31 17.0255 112.846 17.0255C111.814 17.0255 110.878 16.8418 110.039 16.4745C109.205 16.1014 108.575 15.5941 108.15 14.9527C107.73 14.3055 107.52 13.5621 107.52 12.7225H110.598C110.598 13.4047 110.773 13.909 111.123 14.2356C111.479 14.5562 112.053 14.7166 112.846 14.7166C113.353 14.7166 113.753 14.6087 114.044 14.393C114.342 14.1714 114.49 13.8624 114.49 13.4659ZM122.405 16.8506H119.344V4.11656H122.405V16.8506ZM134.842 12.5389C134.801 13.4251 134.562 14.2093 134.125 14.8915C133.688 15.5679 133.072 16.0926 132.279 16.4658C131.492 16.8389 130.592 17.0255 129.577 17.0255C127.904 17.0255 126.586 16.4803 125.624 15.39C124.662 14.2997 124.181 12.7604 124.181 10.7722V10.1425C124.181 8.89474 124.397 7.80441 124.828 6.87152C125.265 5.93279 125.892 5.2098 126.708 4.70254C127.525 4.18944 128.469 3.9329 129.542 3.9329C131.087 3.9329 132.329 4.34104 133.268 5.15732C134.207 5.96778 134.74 7.08725 134.868 8.51575H131.807C131.784 7.74028 131.589 7.18346 131.221 6.84528C130.854 6.50711 130.294 6.33802 129.542 6.33802C128.778 6.33802 128.218 6.62372 127.863 7.19512C127.507 7.76652 127.321 8.679 127.303 9.93258V10.8334C127.303 12.1919 127.472 13.1627 127.81 13.7458C128.154 14.3289 128.743 14.6204 129.577 14.6204C130.283 14.6204 130.822 14.4542 131.195 14.1219C131.568 13.7895 131.766 13.2619 131.79 12.5389H134.842ZM147.078 10.746C147.078 11.9879 146.847 13.0869 146.387 14.0432C145.926 14.9994 145.27 15.7369 144.419 16.2559C143.573 16.769 142.608 17.0255 141.524 17.0255C140.439 17.0255 139.477 16.7777 138.638 16.2821C137.798 15.7807 137.142 15.0664 136.67 14.1394C136.203 13.2123 135.959 12.1482 135.935 10.9471V10.2299C135.935 8.9822 136.163 7.88313 136.617 6.93274C137.078 5.97652 137.734 5.23895 138.585 4.72003C139.442 4.20111 140.416 3.94164 141.506 3.94164C142.585 3.94164 143.547 4.19819 144.393 4.71128C145.238 5.22438 145.894 5.95612 146.36 6.9065C146.833 7.85106 147.072 8.93555 147.078 10.16V10.746ZM143.955 10.2125C143.955 8.94721 143.742 7.98808 143.317 7.33505C142.897 6.67619 142.294 6.34677 141.506 6.34677C139.967 6.34677 139.154 7.50122 139.066 9.81014L139.058 10.746C139.058 11.9937 139.265 12.9528 139.679 13.6234C140.093 14.2939 140.708 14.6291 141.524 14.6291C142.299 14.6291 142.897 14.2997 143.317 13.6408C143.737 12.982 143.949 12.0345 143.955 10.7984V10.2125ZM155.229 13.4659C155.229 13.017 155.068 12.6671 154.748 12.4164C154.433 12.1657 153.876 11.9062 153.077 11.638C152.278 11.3698 151.625 11.1104 151.118 10.8596C149.468 10.0492 148.643 8.93555 148.643 7.51872C148.643 6.81321 148.847 6.19225 149.255 5.65584C149.669 5.11359 150.252 4.69379 151.004 4.39643C151.757 4.09324 152.602 3.94164 153.541 3.94164C154.456 3.94164 155.275 4.1049 155.998 4.43141C156.727 4.75793 157.293 5.22438 157.695 5.83076C158.097 6.43131 158.299 7.11932 158.299 7.89479H155.237C155.237 7.37587 155.077 6.97355 154.756 6.68786C154.442 6.40216 154.013 6.25931 153.471 6.25931C152.923 6.25931 152.488 6.38175 152.168 6.62663C151.853 6.86569 151.695 7.17179 151.695 7.54495C151.695 7.87147 151.87 8.16883 152.22 8.43703C152.57 8.69941 153.185 8.97345 154.066 9.25915C154.946 9.53902 155.669 9.84221 156.235 10.1687C157.611 10.9617 158.299 12.0549 158.299 13.4484C158.299 14.5621 157.879 15.4367 157.039 16.0722C156.2 16.7077 155.048 17.0255 153.585 17.0255C152.552 17.0255 151.617 16.8418 150.777 16.4745C149.943 16.1014 149.314 15.5941 148.888 14.9527C148.468 14.3055 148.258 13.5621 148.258 12.7225H151.337C151.337 13.4047 151.512 13.909 151.862 14.2356C152.217 14.5562 152.792 14.7166 153.585 14.7166C154.092 14.7166 154.491 14.6087 154.783 14.393C155.08 14.1714 155.229 13.8624 155.229 13.4659ZM172.231 11.4544H167.403V14.4892H173.105V16.8506H164.333V4.11656H173.123V6.4867H167.403V9.17169H172.231V11.4544ZM186.714 11.4544H181.886V14.4892H187.589V16.8506H178.816V4.11656H187.606V6.4867H181.886V9.17169H186.714V11.4544ZM193.571 12.3552H191.909V16.8506H188.839V4.11656H193.851C195.361 4.11656 196.541 4.45182 197.393 5.12234C198.244 5.79286 198.67 6.74033 198.67 7.96476C198.67 8.85101 198.489 9.58566 198.127 10.1687C197.772 10.7518 197.212 11.2241 196.448 11.5856L199.107 16.7194V16.8506H195.818L193.571 12.3552ZM191.909 9.98506H193.851C194.434 9.98506 194.871 9.83346 195.162 9.53027C195.46 9.22125 195.609 8.7927 195.609 8.24462C195.609 7.69655 195.46 7.268 195.162 6.95898C194.865 6.64413 194.428 6.4867 193.851 6.4867H191.909V9.98506ZM210.949 15.2763C210.477 15.8011 209.786 16.2238 208.876 16.5445C207.966 16.8652 206.969 17.0255 205.885 17.0255C204.217 17.0255 202.885 16.5153 201.888 15.495C200.891 14.4746 200.358 13.0549 200.288 11.2357L200.279 10.1337C200.279 8.88016 200.5 7.78692 200.944 6.85403C201.387 5.9153 202.019 5.19522 202.841 4.69379C203.669 4.18653 204.626 3.9329 205.71 3.9329C207.296 3.9329 208.526 4.29731 209.401 5.02613C210.281 5.74913 210.794 6.8307 210.94 8.27086H207.984C207.879 7.55953 207.652 7.05227 207.302 6.74908C206.952 6.44589 206.456 6.29429 205.815 6.29429C205.045 6.29429 204.451 6.6208 204.031 7.27383C203.611 7.92686 203.398 8.85975 203.392 10.0725V10.8422C203.392 12.1132 203.608 13.0694 204.04 13.7108C204.477 14.3463 205.162 14.6641 206.095 14.6641C206.894 14.6641 207.488 14.4863 207.879 14.1306V12.154H205.745V10.0463H210.949V15.2763ZM223.517 10.746C223.517 11.9879 223.286 13.0869 222.826 14.0432C222.365 14.9994 221.709 15.7369 220.858 16.2559C220.012 16.769 219.048 17.0255 217.963 17.0255C216.879 17.0255 215.916 16.7777 215.077 16.2821C214.237 15.7807 213.581 15.0664 213.109 14.1394C212.643 13.2123 212.398 12.1482 212.374 10.9471V10.2299C212.374 8.9822 212.602 7.88313 213.057 6.93274C213.517 5.97652 214.173 5.23895 215.024 4.72003C215.882 4.20111 216.855 3.94164 217.946 3.94164C219.024 3.94164 219.986 4.19819 220.832 4.71128C221.677 5.22438 222.333 5.95612 222.8 6.9065C223.272 7.85106 223.511 8.93555 223.517 10.16V10.746ZM220.394 10.2125C220.394 8.94721 220.182 7.98808 219.756 7.33505C219.336 6.67619 218.733 6.34677 217.946 6.34677C216.406 6.34677 215.593 7.50122 215.505 9.81014L215.497 10.746C215.497 11.9937 215.704 12.9528 216.118 13.6234C216.532 14.2939 217.147 14.6291 217.963 14.6291C218.738 14.6291 219.336 14.2997 219.756 13.6408C220.176 12.982 220.389 12.0345 220.394 10.7984V10.2125ZM235.735 16.8506H232.682L228.169 8.9268V16.8506H225.1V4.11656H228.169L232.674 12.0403V4.11656H235.735V16.8506ZM248.46 10.746C248.46 11.9879 248.23 13.0869 247.769 14.0432C247.308 14.9994 246.652 15.7369 245.801 16.2559C244.956 16.769 243.991 17.0255 242.906 17.0255C241.822 17.0255 240.86 16.7777 240.02 16.2821C239.181 15.7807 238.525 15.0664 238.052 14.1394C237.586 13.2123 237.341 12.1482 237.318 10.9471V10.2299C237.318 8.9822 237.545 7.88313 238 6.93274C238.46 5.97652 239.116 5.23895 239.968 4.72003C240.825 4.20111 241.799 3.94164 242.889 3.94164C243.967 3.94164 244.93 4.19819 245.775 4.71128C246.62 5.22438 247.276 5.95612 247.743 6.9065C248.215 7.85106 248.454 8.93555 248.46 10.16V10.746ZM245.338 10.2125C245.338 8.94721 245.125 7.98808 244.699 7.33505C244.279 6.67619 243.676 6.34677 242.889 6.34677C241.35 6.34677 240.536 7.50122 240.449 9.81014L240.44 10.746C240.44 11.9937 240.647 12.9528 241.061 13.6234C241.475 14.2939 242.09 14.6291 242.906 14.6291C243.682 14.6291 244.279 14.2997 244.699 13.6408C245.119 12.982 245.332 12.0345 245.338 10.7984V10.2125ZM254.075 4.11656L256.917 12.9762L259.751 4.11656H263.792V16.8506H260.713V13.877L261.01 7.78984L257.932 16.8506H255.903L252.815 7.78109L253.113 13.877V16.8506H250.043V4.11656H254.075ZM269.022 16.8506H265.961V4.11656H269.022V16.8506ZM281.458 12.5389C281.417 13.4251 281.178 14.2093 280.741 14.8915C280.304 15.5679 279.689 16.0926 278.896 16.4658C278.109 16.8389 277.208 17.0255 276.193 17.0255C274.52 17.0255 273.202 16.4803 272.24 15.39C271.278 14.2997 270.797 12.7604 270.797 10.7722V10.1425C270.797 8.89474 271.013 7.80441 271.444 6.87152C271.882 5.93279 272.508 5.2098 273.325 4.70254C274.141 4.18944 275.085 3.9329 276.158 3.9329C277.703 3.9329 278.945 4.34104 279.884 5.15732C280.823 5.96778 281.356 7.08725 281.484 8.51575H278.423C278.4 7.74028 278.205 7.18346 277.837 6.84528C277.47 6.50711 276.91 6.33802 276.158 6.33802C275.394 6.33802 274.835 6.62372 274.479 7.19512C274.123 7.76652 273.937 8.679 273.919 9.93258V10.8334C273.919 12.1919 274.088 13.1627 274.427 13.7458C274.771 14.3289 275.359 14.6204 276.193 14.6204C276.899 14.6204 277.438 14.4542 277.811 14.1219C278.184 13.7895 278.383 13.2619 278.406 12.5389H281.458ZM293.694 10.746C293.694 11.9879 293.463 13.0869 293.003 14.0432C292.542 14.9994 291.886 15.7369 291.035 16.2559C290.19 16.769 289.225 17.0255 288.14 17.0255C287.056 17.0255 286.094 16.7777 285.254 16.2821C284.414 15.7807 283.758 15.0664 283.286 14.1394C282.82 13.2123 282.575 12.1482 282.551 10.9471V10.2299C282.551 8.9822 282.779 7.88313 283.234 6.93274C283.694 5.97652 284.35 5.23895 285.201 4.72003C286.059 4.20111 287.032 3.94164 288.123 3.94164C289.201 3.94164 290.163 4.19819 291.009 4.71128C291.854 5.22438 292.51 5.95612 292.977 6.9065C293.449 7.85106 293.688 8.93555 293.694 10.16V10.746ZM290.571 10.2125C290.571 8.94721 290.359 7.98808 289.933 7.33505C289.513 6.67619 288.91 6.34677 288.123 6.34677C286.583 6.34677 285.77 7.50122 285.682 9.81014L285.674 10.746C285.674 11.9937 285.881 12.9528 286.295 13.6234C286.709 14.2939 287.324 14.6291 288.14 14.6291C288.916 14.6291 289.513 14.2997 289.933 13.6408C290.353 12.982 290.566 12.0345 290.571 10.7984V10.2125ZM301.845 13.4659C301.845 13.017 301.685 12.6671 301.364 12.4164C301.049 12.1657 300.492 11.9062 299.693 11.638C298.895 11.3698 298.242 11.1104 297.734 10.8596C296.084 10.0492 295.259 8.93555 295.259 7.51872C295.259 6.81321 295.463 6.19225 295.871 5.65584C296.285 5.11359 296.868 4.69379 297.621 4.39643C298.373 4.09324 299.218 3.94164 300.157 3.94164C301.072 3.94164 301.892 4.1049 302.615 4.43141C303.343 4.75793 303.909 5.22438 304.311 5.83076C304.714 6.43131 304.915 7.11932 304.915 7.89479H301.854C301.854 7.37587 301.693 6.97355 301.373 6.68786C301.058 6.40216 300.629 6.25931 300.087 6.25931C299.539 6.25931 299.105 6.38175 298.784 6.62663C298.469 6.86569 298.312 7.17179 298.312 7.54495C298.312 7.87147 298.486 8.16883 298.836 8.43703C299.186 8.69941 299.801 8.97345 300.682 9.25915C301.562 9.53902 302.285 9.84221 302.851 10.1687C304.227 10.9617 304.915 12.0549 304.915 13.4484C304.915 14.5621 304.495 15.4367 303.655 16.0722C302.816 16.7077 301.664 17.0255 300.201 17.0255C299.169 17.0255 298.233 16.8418 297.393 16.4745C296.559 16.1014 295.93 15.5941 295.504 14.9527C295.084 14.3055 294.874 13.5621 294.874 12.7225H297.953C297.953 13.4047 298.128 13.909 298.478 14.2356C298.833 14.5562 299.408 14.7166 300.201 14.7166C300.708 14.7166 301.107 14.6087 301.399 14.393C301.696 14.1714 301.845 13.8624 301.845 13.4659Z" fill="black"/>
</svg>
