<svg width="1260" height="74" viewBox="0 0 1260 74" fill="none" xmlns="http://www.w3.org/2000/svg">
<path d="M365.355 23V5.22656H371.081C372.651 5.22656 374.063 5.58464 375.316 6.30078C376.57 7.00879 377.546 8.01383 378.246 9.31592C378.954 10.6099 379.312 12.0625 379.32 13.6738V14.4917C379.32 16.1193 378.974 17.5801 378.283 18.874C377.599 20.1598 376.631 21.1689 375.377 21.9014C374.132 22.6257 372.741 22.9919 371.203 23H365.355ZM369.64 8.53467V19.7041H371.129C372.358 19.7041 373.302 19.2687 373.961 18.3979C374.621 17.519 374.95 16.217 374.95 14.4917V13.7227C374.95 12.0055 374.621 10.7116 373.961 9.84082C373.302 8.97005 372.342 8.53467 371.081 8.53467H369.64ZM392.541 15.4683H385.802V19.7041H393.761V23H381.518V5.22656H393.786V8.53467H385.802V12.2822H392.541V15.4683ZM399.792 16.9697V23H395.507V5.22656H402.599C403.958 5.22656 405.159 5.47884 406.2 5.9834C407.25 6.47982 408.06 7.19189 408.629 8.11963C409.207 9.03923 409.496 10.085 409.496 11.2568C409.496 12.9902 408.874 14.3778 407.628 15.4194C406.391 16.453 404.691 16.9697 402.526 16.9697H399.792ZM399.792 13.6616H402.599C403.429 13.6616 404.06 13.4541 404.491 13.0391C404.931 12.624 405.15 12.0381 405.15 11.2812C405.15 10.4512 404.927 9.78792 404.479 9.2915C404.031 8.79508 403.421 8.54281 402.648 8.53467H399.792V13.6616ZM426.842 14.4795C426.842 16.2129 426.521 17.7469 425.878 19.0815C425.235 20.4162 424.319 21.4456 423.131 22.1699C421.951 22.8861 420.604 23.2441 419.091 23.2441C417.577 23.2441 416.234 22.8983 415.062 22.2065C413.891 21.5067 412.975 20.5098 412.316 19.2158C411.665 17.9219 411.323 16.4367 411.291 14.7603V13.7593C411.291 12.0177 411.608 10.4837 412.243 9.15723C412.886 7.82259 413.801 6.79313 414.989 6.06885C416.186 5.34456 417.545 4.98242 419.066 4.98242C420.572 4.98242 421.915 5.34049 423.095 6.05664C424.275 6.77279 425.19 7.79411 425.841 9.12061C426.5 10.439 426.834 11.9526 426.842 13.6616V14.4795ZM422.484 13.7349C422.484 11.9689 422.187 10.6302 421.593 9.71875C421.007 8.79915 420.165 8.33936 419.066 8.33936C416.918 8.33936 415.783 9.95068 415.661 13.1733L415.648 14.4795C415.648 16.221 415.937 17.5597 416.515 18.4956C417.093 19.4315 417.951 19.8994 419.091 19.8994C420.173 19.8994 421.007 19.4396 421.593 18.52C422.179 17.6004 422.476 16.278 422.484 14.5527V13.7349ZM433.617 23H429.345V5.22656H433.617V23ZM442.223 5.22656L446.19 17.5923L450.146 5.22656H455.785V23H451.488V18.8496L451.903 10.3535L447.606 23H444.774L440.465 10.3413L440.88 18.8496V23H436.596V5.22656H442.223ZM469.542 15.4683H462.804V19.7041H470.763V23H458.52V5.22656H470.788V8.53467H462.804V12.2822H469.542V15.4683ZM487.353 23H483.092L476.793 11.9404V23H472.509V5.22656H476.793L483.08 16.2861V5.22656H487.353V23ZM503.649 8.53467H498.314V23H494.03V8.53467H488.793V5.22656H503.649V8.53467ZM520.177 14.4795C520.177 16.2129 519.856 17.7469 519.213 19.0815C518.57 20.4162 517.654 21.4456 516.466 22.1699C515.286 22.8861 513.939 23.2441 512.426 23.2441C510.912 23.2441 509.569 22.8983 508.397 22.2065C507.226 21.5067 506.31 20.5098 505.651 19.2158C505 17.9219 504.658 16.4367 504.625 14.7603V13.7593C504.625 12.0177 504.943 10.4837 505.578 9.15723C506.221 7.82259 507.136 6.79313 508.324 6.06885C509.521 5.34456 510.88 4.98242 512.401 4.98242C513.907 4.98242 515.25 5.34049 516.43 6.05664C517.61 6.77279 518.525 7.79411 519.176 9.12061C519.835 10.439 520.169 11.9526 520.177 13.6616V14.4795ZM515.819 13.7349C515.819 11.9689 515.522 10.6302 514.928 9.71875C514.342 8.79915 513.5 8.33936 512.401 8.33936C510.253 8.33936 509.118 9.95068 508.996 13.1733L508.983 14.4795C508.983 16.221 509.272 17.5597 509.85 18.4956C510.428 19.4315 511.286 19.8994 512.426 19.8994C513.508 19.8994 514.342 19.4396 514.928 18.52C515.514 17.6004 515.811 16.278 515.819 14.5527V13.7349ZM531.554 18.2759C531.554 17.6493 531.33 17.161 530.883 16.811C530.443 16.4611 529.666 16.099 528.551 15.7246C527.436 15.3503 526.525 14.9881 525.817 14.6382C523.514 13.507 522.362 11.9526 522.362 9.9751C522.362 8.9904 522.647 8.1237 523.217 7.375C523.795 6.61816 524.608 6.03223 525.658 5.61719C526.708 5.19401 527.888 4.98242 529.198 4.98242C530.476 4.98242 531.619 5.21029 532.628 5.66602C533.646 6.12174 534.435 6.77279 534.997 7.61914C535.558 8.45736 535.839 9.41764 535.839 10.5H531.566C531.566 9.77572 531.343 9.21419 530.895 8.81543C530.456 8.41667 529.857 8.21729 529.101 8.21729C528.336 8.21729 527.729 8.38818 527.282 8.72998C526.842 9.06364 526.623 9.49089 526.623 10.0117C526.623 10.4674 526.867 10.8825 527.355 11.2568C527.843 11.623 528.702 12.0055 529.931 12.4043C531.16 12.7949 532.169 13.2181 532.958 13.6738C534.879 14.7806 535.839 16.3065 535.839 18.2515C535.839 19.8058 535.253 21.0265 534.081 21.9136C532.909 22.8006 531.302 23.2441 529.259 23.2441C527.819 23.2441 526.513 22.9878 525.341 22.4751C524.177 21.9543 523.298 21.2463 522.704 20.3511C522.118 19.4478 521.825 18.4102 521.825 17.2383H526.122C526.122 18.1904 526.366 18.8944 526.854 19.3501C527.351 19.7977 528.153 20.0215 529.259 20.0215C529.967 20.0215 530.525 19.8709 530.932 19.5698C531.347 19.2606 531.554 18.8293 531.554 18.2759ZM550.866 16.7256H548.546V23H544.262V5.22656H551.256C553.364 5.22656 555.012 5.6945 556.2 6.63037C557.388 7.56624 557.982 8.88867 557.982 10.5977C557.982 11.8346 557.73 12.86 557.226 13.6738C556.729 14.4876 555.948 15.1468 554.882 15.6514L558.593 22.8169V23H554.003L550.866 16.7256ZM548.546 13.4175H551.256C552.07 13.4175 552.681 13.2059 553.087 12.7827C553.502 12.3514 553.71 11.7533 553.71 10.9883C553.71 10.2233 553.502 9.62516 553.087 9.19385C552.672 8.75439 552.062 8.53467 551.256 8.53467H548.546V13.4175ZM571.593 15.4683H564.855V19.7041H572.814V23H560.57V5.22656H572.838V8.53467H564.855V12.2822H571.593V15.4683ZM584.655 19.6797H578.783L577.758 23H573.18L579.699 5.22656H583.727L590.294 23H585.692L584.655 19.6797ZM579.809 16.3716H583.629L581.713 10.207L579.809 16.3716ZM596.166 23H591.894V5.22656H596.166V23ZM608.312 18.2759C608.312 17.6493 608.088 17.161 607.641 16.811C607.201 16.4611 606.424 16.099 605.309 15.7246C604.194 15.3503 603.283 14.9881 602.575 14.6382C600.272 13.507 599.12 11.9526 599.12 9.9751C599.12 8.9904 599.405 8.1237 599.975 7.375C600.552 6.61816 601.366 6.03223 602.416 5.61719C603.466 5.19401 604.646 4.98242 605.956 4.98242C607.234 4.98242 608.377 5.21029 609.386 5.66602C610.403 6.12174 611.193 6.77279 611.754 7.61914C612.316 8.45736 612.597 9.41764 612.597 10.5H608.324C608.324 9.77572 608.1 9.21419 607.653 8.81543C607.213 8.41667 606.615 8.21729 605.858 8.21729C605.093 8.21729 604.487 8.38818 604.04 8.72998C603.6 9.06364 603.38 9.49089 603.38 10.0117C603.38 10.4674 603.625 10.8825 604.113 11.2568C604.601 11.623 605.46 12.0055 606.688 12.4043C607.917 12.7949 608.926 13.2181 609.716 13.6738C611.636 14.7806 612.597 16.3065 612.597 18.2515C612.597 19.8058 612.011 21.0265 610.839 21.9136C609.667 22.8006 608.06 23.2441 606.017 23.2441C604.577 23.2441 603.271 22.9878 602.099 22.4751C600.935 21.9543 600.056 21.2463 599.462 20.3511C598.876 19.4478 598.583 18.4102 598.583 17.2383H602.88C602.88 18.1904 603.124 18.8944 603.612 19.3501C604.109 19.7977 604.91 20.0215 606.017 20.0215C606.725 20.0215 607.283 19.8709 607.689 19.5698C608.104 19.2606 608.312 18.8293 608.312 18.2759ZM621.02 23V5.22656H626.745C628.315 5.22656 629.727 5.58464 630.98 6.30078C632.234 7.00879 633.21 8.01383 633.91 9.31592C634.618 10.6099 634.976 12.0625 634.984 13.6738V14.4917C634.984 16.1193 634.639 17.5801 633.947 18.874C633.263 20.1598 632.295 21.1689 631.042 21.9014C629.796 22.6257 628.405 22.9919 626.867 23H621.02ZM625.304 8.53467V19.7041H626.793C628.022 19.7041 628.966 19.2687 629.625 18.3979C630.285 17.519 630.614 16.217 630.614 14.4917V13.7227C630.614 12.0055 630.285 10.7116 629.625 9.84082C628.966 8.97005 628.006 8.53467 626.745 8.53467H625.304ZM648.205 15.4683H641.466V19.7041H649.425V23H637.182V5.22656H649.45V8.53467H641.466V12.2822H648.205V15.4683ZM671.776 16.9819C671.719 18.2189 671.386 19.3135 670.775 20.2656C670.165 21.2096 669.306 21.9421 668.2 22.4629C667.101 22.9837 665.844 23.2441 664.428 23.2441C662.092 23.2441 660.253 22.4832 658.91 20.9614C657.567 19.4396 656.896 17.2912 656.896 14.5161V13.6372C656.896 11.8957 657.197 10.3739 657.799 9.07178C658.41 7.76156 659.285 6.75244 660.424 6.04443C661.563 5.32829 662.882 4.97021 664.379 4.97021C666.535 4.97021 668.269 5.53988 669.579 6.6792C670.889 7.81038 671.634 9.37288 671.813 11.3667H667.541C667.508 10.2843 667.235 9.50716 666.723 9.03516C666.21 8.56315 665.429 8.32715 664.379 8.32715C663.313 8.32715 662.532 8.72591 662.035 9.52344C661.539 10.321 661.278 11.5946 661.254 13.3442V14.6016C661.254 16.4977 661.49 17.8527 661.962 18.6665C662.442 19.4803 663.264 19.8872 664.428 19.8872C665.412 19.8872 666.165 19.6553 666.686 19.1914C667.207 18.7275 667.484 17.991 667.516 16.9819H671.776ZM687.743 5.22656V16.8599C687.743 18.1782 687.462 19.3216 686.901 20.29C686.339 21.2503 685.534 21.9827 684.484 22.4873C683.434 22.9919 682.193 23.2441 680.761 23.2441C678.596 23.2441 676.891 22.6826 675.646 21.5596C674.401 20.4365 673.766 18.8984 673.742 16.9453V5.22656H678.051V17.0308C678.1 18.9757 679.003 19.9482 680.761 19.9482C681.648 19.9482 682.319 19.7041 682.775 19.2158C683.231 18.7275 683.458 17.9341 683.458 16.8354V5.22656H687.743ZM694.994 23H690.722V5.22656H694.994V23ZM697.973 23V5.22656H703.698C705.268 5.22656 706.68 5.58464 707.934 6.30078C709.187 7.00879 710.163 8.01383 710.863 9.31592C711.571 10.6099 711.929 12.0625 711.938 13.6738V14.4917C711.938 16.1193 711.592 17.5801 710.9 18.874C710.216 20.1598 709.248 21.1689 707.995 21.9014C706.75 22.6257 705.358 22.9919 703.82 23H697.973ZM702.257 8.53467V19.7041H703.747C704.975 19.7041 705.919 19.2687 706.579 18.3979C707.238 17.519 707.567 16.217 707.567 14.4917V13.7227C707.567 12.0055 707.238 10.7116 706.579 9.84082C705.919 8.97005 704.959 8.53467 703.698 8.53467H702.257ZM723.961 19.6797H718.09L717.064 23H712.487L719.005 5.22656H723.034L729.601 23H724.999L723.961 19.6797ZM719.115 16.3716H722.936L721.02 10.207L719.115 16.3716ZM730.907 23V5.22656H736.632C738.203 5.22656 739.615 5.58464 740.868 6.30078C742.121 7.00879 743.098 8.01383 743.798 9.31592C744.506 10.6099 744.864 12.0625 744.872 13.6738V14.4917C744.872 16.1193 744.526 17.5801 743.834 18.874C743.151 20.1598 742.182 21.1689 740.929 21.9014C739.684 22.6257 738.292 22.9919 736.754 23H730.907ZM735.192 8.53467V19.7041H736.681C737.91 19.7041 738.854 19.2687 739.513 18.3979C740.172 17.519 740.502 16.217 740.502 14.4917V13.7227C740.502 12.0055 740.172 10.7116 739.513 9.84082C738.854 8.97005 737.894 8.53467 736.632 8.53467H735.192ZM762.121 14.4795C762.121 16.2129 761.799 17.7469 761.156 19.0815C760.513 20.4162 759.598 21.4456 758.41 22.1699C757.23 22.8861 755.883 23.2441 754.369 23.2441C752.855 23.2441 751.513 22.8983 750.341 22.2065C749.169 21.5067 748.253 20.5098 747.594 19.2158C746.943 17.9219 746.601 16.4367 746.569 14.7603V13.7593C746.569 12.0177 746.886 10.4837 747.521 9.15723C748.164 7.82259 749.079 6.79313 750.268 6.06885C751.464 5.34456 752.823 4.98242 754.345 4.98242C755.85 4.98242 757.193 5.34049 758.373 6.05664C759.553 6.77279 760.469 7.79411 761.12 9.12061C761.779 10.439 762.112 11.9526 762.121 13.6616V14.4795ZM757.763 13.7349C757.763 11.9689 757.466 10.6302 756.872 9.71875C756.286 8.79915 755.443 8.33936 754.345 8.33936C752.196 8.33936 751.061 9.95068 750.939 13.1733L750.927 14.4795C750.927 16.221 751.216 17.5597 751.793 18.4956C752.371 19.4315 753.23 19.8994 754.369 19.8994C755.451 19.8994 756.286 19.4396 756.872 18.52C757.458 17.6004 757.755 16.278 757.763 14.5527V13.7349Z" fill="black"/>
</svg>
