<svg width="301" height="19" viewBox="0 0 301 19" fill="none" xmlns="http://www.w3.org/2000/svg">
<path d="M5.0642 14.7378H12.4464V18H0.823384V0.408475H5.0642V14.7378ZM28.3585 9.5667C28.3585 11.2824 28.0403 12.8007 27.404 14.1216C26.7677 15.4426 25.8615 16.4615 24.6855 17.1784C23.5176 17.8872 22.1845 18.2416 20.6864 18.2416C19.1882 18.2416 17.8591 17.8993 16.6993 17.2147C15.5394 16.522 14.6332 15.5353 13.9808 14.2546C13.3364 12.9738 12.9981 11.5039 12.9659 9.84459V8.85386C12.9659 7.13014 13.28 5.61183 13.9083 4.29891C14.5446 2.97793 15.4508 1.95901 16.6268 1.24214C17.8108 0.525268 19.156 0.166833 20.6622 0.166833C22.1523 0.166833 23.4813 0.521241 24.6493 1.23006C25.8172 1.93887 26.7234 2.94974 27.3678 4.26266C28.0202 5.56753 28.3504 7.06571 28.3585 8.7572V9.5667ZM24.0452 8.82969C24.0452 7.08182 23.7512 5.75681 23.1632 4.85468C22.5832 3.9445 21.7496 3.48941 20.6622 3.48941C18.5357 3.48941 17.4121 5.08424 17.2913 8.27392L17.2792 9.5667C17.2792 11.2904 17.5651 12.6154 18.137 13.5417C18.7089 14.468 19.5587 14.9311 20.6864 14.9311C21.7576 14.9311 22.5832 14.4761 23.1632 13.5659C23.7431 12.6557 24.0371 11.3468 24.0452 9.63919V8.82969ZM44.778 12.0435C44.7217 13.2678 44.3914 14.3512 43.7873 15.2936C43.1832 16.228 42.3334 16.9529 41.238 17.4684C40.1506 17.9839 38.9061 18.2416 37.5046 18.2416C35.1929 18.2416 33.3725 17.4885 32.0435 15.9823C30.7145 14.4761 30.05 12.3496 30.05 9.60295V8.73304C30.05 7.00932 30.348 5.50309 30.944 4.21433C31.5482 2.91752 32.414 1.91874 33.5417 1.21797C34.6694 0.509159 35.9742 0.154751 37.4563 0.154751C39.5908 0.154751 41.3065 0.718582 42.6033 1.84624C43.9001 2.96585 44.6371 4.51236 44.8143 6.48577H40.5856C40.5533 5.41449 40.2835 4.64526 39.7761 4.17809C39.2686 3.71091 38.4954 3.47733 37.4563 3.47733C36.4011 3.47733 35.6279 3.87201 35.1365 4.66137C34.6452 5.45073 34.3874 6.7113 34.3633 8.44307V9.68752C34.3633 11.5643 34.5969 12.9054 35.064 13.7109C35.5393 14.5163 36.3528 14.9191 37.5046 14.9191C38.4792 14.9191 39.2243 14.6895 39.7398 14.2304C40.2553 13.7713 40.5292 13.0423 40.5614 12.0435H44.778ZM56.7755 14.7137H50.9641L49.9492 18H45.4184L51.8702 0.408475H55.8573L62.3575 18H57.8025L56.7755 14.7137ZM51.9789 11.4394H55.7606L53.8638 5.33797L51.9789 11.4394ZM67.8911 14.7378H75.2732V18H63.6503V0.408475H67.8911V14.7378ZM81.5801 18H77.3514V0.408475H81.5801V18ZM89.2885 14.7378H97.6976V18H83.9965V15.7648L92.3815 3.68272H83.9482V0.408475H97.613V2.58325L89.2885 14.7378ZM110.541 10.5453H103.872V14.7378H111.749V18H99.6307V0.408475H111.773V3.68272H103.872V7.39192H110.541V10.5453ZM126.175 11.7898H123.879V18H119.639V0.408475H126.562C128.648 0.408475 130.279 0.871622 131.455 1.79792C132.631 2.72421 133.219 4.0331 133.219 5.7246C133.219 6.94891 132.969 7.96381 132.47 8.76928C131.979 9.57475 131.205 10.2272 130.15 10.7266L133.823 17.8188V18H129.28L126.175 11.7898ZM123.879 8.51556H126.562C127.367 8.51556 127.971 8.30614 128.374 7.88729C128.785 7.46039 128.99 6.86837 128.99 6.11122C128.99 5.35408 128.785 4.76206 128.374 4.33515C127.963 3.9002 127.359 3.68272 126.562 3.68272H123.879V8.51556ZM146.69 10.5453H140.021V14.7378H147.899V18H135.78V0.408475H147.923V3.68272H140.021V7.39192H146.69V10.5453ZM149.626 18V0.408475H155.293C156.847 0.408475 158.245 0.762883 159.485 1.4717C160.726 2.17246 161.692 3.16722 162.385 4.45598C163.086 5.73668 163.44 7.17445 163.448 8.76928V9.57878C163.448 11.1897 163.106 12.6356 162.421 13.9163C161.745 15.1889 160.786 16.1877 159.546 16.9126C158.313 17.6295 156.936 17.9919 155.414 18H149.626ZM153.867 3.68272V14.7378H155.341C156.558 14.7378 157.492 14.3069 158.144 13.4451C158.797 12.5751 159.123 11.2864 159.123 9.57878V8.81761C159.123 7.11806 158.797 5.83736 158.144 4.97551C157.492 4.11365 156.541 3.68272 155.293 3.68272H153.867ZM176.533 10.5453H169.864V14.7378H177.741V18H165.623V0.408475H177.766V3.68272H169.864V7.39192H176.533V10.5453ZM185.631 18V0.408475H191.298C192.852 0.408475 194.25 0.762883 195.49 1.4717C196.73 2.17246 197.697 3.16722 198.39 4.45598C199.09 5.73668 199.445 7.17445 199.453 8.76928V9.57878C199.453 11.1897 199.111 12.6356 198.426 13.9163C197.749 15.1889 196.791 16.1877 195.55 16.9126C194.318 17.6295 192.941 17.9919 191.418 18H185.631ZM189.872 3.68272V14.7378H191.346C192.562 14.7378 193.496 14.3069 194.149 13.4451C194.801 12.5751 195.128 11.2864 195.128 9.57878V8.81761C195.128 7.11806 194.801 5.83736 194.149 4.97551C193.496 4.11365 192.546 3.68272 191.298 3.68272H189.872ZM212.538 10.5453H205.869V14.7378H213.746V18H201.628V0.408475H213.77V3.68272H205.869V7.39192H212.538V10.5453ZM231.628 14.7137H225.816L224.801 18H220.27L226.722 0.408475H230.709L237.209 18H232.655L231.628 14.7137ZM226.831 11.4394H230.613L228.716 5.33797L226.831 11.4394ZM245.51 0.408475H249.739V12.4785C249.739 13.5981 249.477 14.5969 248.953 15.4748C248.438 16.3528 247.713 17.0334 246.779 17.5167C245.852 18 244.817 18.2416 243.673 18.2416C241.756 18.2416 240.266 17.7584 239.203 16.7918C238.14 15.8252 237.608 14.4559 237.608 12.6839H241.861C241.861 13.4894 241.998 14.0733 242.272 14.4358C242.554 14.7982 243.021 14.9795 243.673 14.9795C244.261 14.9795 244.713 14.762 245.027 14.327C245.349 13.884 245.51 13.2678 245.51 12.4785V0.408475ZM266.219 0.408475V11.9227C266.219 13.2276 265.941 14.3593 265.385 15.3178C264.829 16.2682 264.032 16.9932 262.993 17.4926C261.954 17.9919 260.725 18.2416 259.308 18.2416C257.165 18.2416 255.478 17.6859 254.245 16.5743C253.013 15.4628 252.385 13.9404 252.36 12.0073V0.408475H256.625V12.0919C256.674 14.0169 257.568 14.9795 259.308 14.9795C260.186 14.9795 260.85 14.7378 261.301 14.2546C261.752 13.7713 261.978 12.9859 261.978 11.8985V0.408475H266.219ZM268.877 18V0.408475H274.543C276.098 0.408475 277.495 0.762883 278.736 1.4717C279.976 2.17246 280.943 3.16722 281.635 4.45598C282.336 5.73668 282.69 7.17445 282.699 8.76928V9.57878C282.699 11.1897 282.356 12.6356 281.672 13.9163C280.995 15.1889 280.036 16.1877 278.796 16.9126C277.564 17.6295 276.186 17.9919 274.664 18H268.877ZM273.117 3.68272V14.7378H274.591C275.808 14.7378 276.742 14.3069 277.395 13.4451C278.047 12.5751 278.373 11.2864 278.373 9.57878V8.81761C278.373 7.11806 278.047 5.83736 277.395 4.97551C276.742 4.11365 275.792 3.68272 274.543 3.68272H273.117ZM294.599 14.7137H288.788L287.773 18H283.242L289.694 0.408475H293.681L300.181 18H295.626L294.599 14.7137ZM289.803 11.4394H293.585L291.688 5.33797L289.803 11.4394Z" fill="black"/>
</svg>
