<svg width="193" height="14" viewBox="0 0 193 14" fill="none" xmlns="http://www.w3.org/2000/svg">
<path d="M11.2052 8.93323C11.1638 9.83216 10.9213 10.6276 10.4777 11.3195C10.0342 12.0056 9.41026 12.5378 8.60596 12.9163C7.80757 13.2948 6.89385 13.4841 5.86481 13.4841C4.16749 13.4841 2.83093 12.9311 1.85511 11.8252C0.879303 10.7193 0.391397 9.15796 0.391397 7.14128V6.50257C0.391397 5.23697 0.610215 4.13105 1.04785 3.18481C1.4914 2.23266 2.12716 1.49932 2.95512 0.984799C3.78308 0.464366 4.74115 0.20415 5.82933 0.20415C7.39654 0.20415 8.65623 0.618131 9.60838 1.44609C10.5605 2.26814 11.1017 3.40363 11.2318 4.85256H8.12692C8.10327 4.066 7.90515 3.50121 7.53256 3.1582C7.15998 2.81519 6.59224 2.64368 5.82933 2.64368C5.05459 2.64368 4.48685 2.93347 4.12609 3.51304C3.76534 4.09261 3.57609 5.01815 3.55835 6.28967V7.20338C3.55835 8.58135 3.72986 9.56603 4.07287 10.1574C4.4218 10.7488 5.01911 11.0445 5.86481 11.0445C6.58041 11.0445 7.12746 10.876 7.50595 10.5389C7.88445 10.2018 8.08552 9.66657 8.10918 8.93323H11.2052ZM22.8084 0.390441V8.84452C22.8084 9.80259 22.6044 10.6335 22.1963 11.3373C21.7883 12.0351 21.2028 12.5674 20.4399 12.9341C19.677 13.3007 18.7751 13.4841 17.7342 13.4841C16.1611 13.4841 14.9221 13.076 14.0173 12.2599C13.1124 11.4437 12.6511 10.326 12.6334 8.90662V0.390441H15.7649V8.96871C15.8003 10.3822 16.4568 11.0889 17.7342 11.0889C18.3789 11.0889 18.8668 10.9115 19.1979 10.5566C19.5291 10.2018 19.6947 9.62517 19.6947 8.82678V0.390441H22.8084ZM28.0778 13.3066H24.973V0.390441H28.0778V13.3066ZM30.2424 13.3066V0.390441H34.4029C35.5443 0.390441 36.5703 0.650658 37.4811 1.17109C38.3919 1.68561 39.1015 2.41599 39.6101 3.36223C40.1247 4.30256 40.3849 5.35821 40.3908 6.52918V7.12354C40.3908 8.30634 40.1394 9.36791 39.6368 10.3082C39.14 11.2427 38.4362 11.976 37.5255 12.5082C36.6206 13.0346 35.6093 13.3007 34.4916 13.3066H30.2424ZM33.3561 2.79449V10.9115H34.4383C35.3314 10.9115 36.0174 10.5951 36.4964 9.96227C36.9755 9.32355 37.215 8.37731 37.215 7.12354V6.56467C37.215 5.31681 36.9755 4.37648 36.4964 3.74369C36.0174 3.11089 35.3195 2.79449 34.4029 2.79449H33.3561ZM49.1288 10.8937H44.8618L44.1166 13.3066H40.79L45.5271 0.390441H48.4546L53.2272 13.3066H49.8828L49.1288 10.8937ZM45.607 8.48968H48.3836L46.9908 4.00982L45.607 8.48968ZM54.1764 13.3066V0.390441H58.3369C59.4783 0.390441 60.5044 0.650658 61.4151 1.17109C62.3259 1.68561 63.0356 2.41599 63.5442 3.36223C64.0587 4.30256 64.3189 5.35821 64.3248 6.52918V7.12354C64.3248 8.30634 64.0735 9.36791 63.5708 10.3082C63.074 11.2427 62.3702 11.976 61.4595 12.5082C60.5546 13.0346 59.5433 13.3007 58.4256 13.3066H54.1764ZM57.2901 2.79449V10.9115H58.3724C59.2654 10.9115 59.9514 10.5951 60.4304 9.96227C60.9095 9.32355 61.149 8.37731 61.149 7.12354V6.56467C61.149 5.31681 60.9095 4.37648 60.4304 3.74369C59.9514 3.11089 59.2536 2.79449 58.3369 2.79449H57.2901ZM76.8595 7.11467C76.8595 8.37436 76.6259 9.48915 76.1587 10.459C75.6915 11.4289 75.0262 12.1771 74.1628 12.7034C73.3052 13.2238 72.3265 13.4841 71.2264 13.4841C70.1264 13.4841 69.1506 13.2327 68.299 12.73C67.4474 12.2214 66.7821 11.497 66.303 10.5566C65.8299 9.6163 65.5815 8.53699 65.5579 7.3187V6.59128C65.5579 5.32568 65.7885 4.21089 66.2498 3.24691C66.717 2.27701 67.3823 1.52889 68.2458 1.00254C69.1151 0.476194 70.1028 0.213021 71.2087 0.213021C72.3028 0.213021 73.2786 0.473237 74.1361 0.99367C74.9937 1.5141 75.659 2.25631 76.1321 3.2203C76.6112 4.17837 76.8536 5.27837 76.8595 6.52031V7.11467ZM73.6926 6.57354C73.6926 5.2902 73.4767 4.31734 73.045 3.65498C72.6192 2.98669 72.0071 2.65255 71.2087 2.65255C69.6474 2.65255 68.8224 3.82352 68.7337 6.16547L68.7248 7.11467C68.7248 8.38027 68.9348 9.35312 69.3547 10.0332C69.7746 10.7133 70.3985 11.0534 71.2264 11.0534C72.013 11.0534 72.6192 10.7193 73.045 10.051C73.4708 9.38269 73.6867 8.42167 73.6926 7.1679V6.57354ZM93.4395 8.93323C93.3981 9.83216 93.1556 10.6276 92.7121 11.3195C92.2685 12.0056 91.6446 12.5378 90.8403 12.9163C90.0419 13.2948 89.1282 13.4841 88.0991 13.4841C86.4018 13.4841 85.0652 12.9311 84.0894 11.8252C83.1136 10.7193 82.6257 9.15796 82.6257 7.14128V6.50257C82.6257 5.23697 82.8445 4.13105 83.2822 3.18481C83.7257 2.23266 84.3615 1.49932 85.1894 0.984799C86.0174 0.464366 86.9755 0.20415 88.0636 0.20415C89.6309 0.20415 90.8905 0.618131 91.8427 1.44609C92.7949 2.26814 93.336 3.40363 93.4661 4.85256H90.3612C90.3376 4.066 90.1395 3.50121 89.7669 3.1582C89.3943 2.81519 88.8266 2.64368 88.0636 2.64368C87.2889 2.64368 86.7212 2.93347 86.3604 3.51304C85.9997 4.09261 85.8104 5.01815 85.7927 6.28967V7.20338C85.7927 8.58135 85.9642 9.56603 86.3072 10.1574C86.6561 10.7488 87.2534 11.0445 88.0991 11.0445C88.8147 11.0445 89.3618 10.876 89.7403 10.5389C90.1188 10.2018 90.3198 9.66657 90.3435 8.93323H93.4395ZM105.85 7.11467C105.85 8.37436 105.616 9.48915 105.149 10.459C104.682 11.4289 104.017 12.1771 103.153 12.7034C102.296 13.2238 101.317 13.4841 100.217 13.4841C99.117 13.4841 98.1411 13.2327 97.2895 12.73C96.4379 12.2214 95.7726 11.497 95.2935 10.5566C94.8204 9.6163 94.572 8.53699 94.5484 7.3187V6.59128C94.5484 5.32568 94.779 4.21089 95.2403 3.24691C95.7075 2.27701 96.3729 1.52889 97.2363 1.00254C98.1057 0.476194 99.0933 0.213021 100.199 0.213021C101.293 0.213021 102.269 0.473237 103.127 0.99367C103.984 1.5141 104.65 2.25631 105.123 3.2203C105.602 4.17837 105.844 5.27837 105.85 6.52031V7.11467ZM102.683 6.57354C102.683 5.2902 102.467 4.31734 102.036 3.65498C101.61 2.98669 100.998 2.65255 100.199 2.65255C98.6379 2.65255 97.8129 3.82352 97.7242 6.16547L97.7153 7.11467C97.7153 8.38027 97.9253 9.35312 98.3452 10.0332C98.7651 10.7133 99.389 11.0534 100.217 11.0534C101.004 11.0534 101.61 10.7193 102.036 10.051C102.461 9.38269 102.677 8.42167 102.683 7.1679V6.57354ZM111.545 0.390441L114.428 9.37678L117.302 0.390441H121.401V13.3066H118.278V10.2905L118.58 4.11627L115.457 13.3066H113.399L110.268 4.1074L110.569 10.2905V13.3066H107.456V0.390441H111.545ZM138.85 7.11467C138.85 8.37436 138.617 9.48915 138.149 10.459C137.682 11.4289 137.017 12.1771 136.153 12.7034C135.296 13.2238 134.317 13.4841 133.217 13.4841C132.117 13.4841 131.141 13.2327 130.29 12.73C129.438 12.2214 128.773 11.497 128.294 10.5566C127.821 9.6163 127.572 8.53699 127.549 7.3187V6.59128C127.549 5.32568 127.779 4.21089 128.24 3.24691C128.708 2.27701 129.373 1.52889 130.236 1.00254C131.106 0.476194 132.093 0.213021 133.199 0.213021C134.293 0.213021 135.269 0.473237 136.127 0.99367C136.984 1.5141 137.65 2.25631 138.123 3.2203C138.602 4.17837 138.844 5.27837 138.85 6.52031V7.11467ZM135.683 6.57354C135.683 5.2902 135.467 4.31734 135.036 3.65498C134.61 2.98669 133.998 2.65255 133.199 2.65255C131.638 2.65255 130.813 3.82352 130.724 6.16547L130.715 7.11467C130.715 8.38027 130.925 9.35312 131.345 10.0332C131.765 10.7133 132.389 11.0534 133.217 11.0534C134.004 11.0534 134.61 10.7193 135.036 10.051C135.461 9.38269 135.677 8.42167 135.683 7.1679V6.57354ZM151.642 9.87356C151.642 9.41818 151.48 9.06334 151.154 8.80904C150.835 8.55473 150.27 8.29156 149.46 8.01952C148.65 7.74747 147.987 7.4843 147.473 7.22999C145.799 6.40795 144.962 5.27837 144.962 3.84127C144.962 3.12567 145.169 2.49583 145.583 1.95174C146.003 1.40174 146.595 0.975928 147.358 0.674314C148.12 0.366785 148.978 0.213021 149.93 0.213021C150.859 0.213021 151.69 0.378613 152.423 0.709798C153.162 1.04098 153.736 1.5141 154.144 2.12916C154.552 2.7383 154.756 3.43616 154.756 4.22272H151.651C151.651 3.69637 151.488 3.28831 151.163 2.99852C150.844 2.70873 150.409 2.56384 149.859 2.56384C149.303 2.56384 148.863 2.68803 148.537 2.93642C148.218 3.1789 148.058 3.48938 148.058 3.86788C148.058 4.19906 148.236 4.50068 148.591 4.77272C148.945 5.03885 149.569 5.31681 150.462 5.6066C151.355 5.89047 152.089 6.198 152.662 6.52918C154.058 7.33349 154.756 8.44237 154.756 9.85582C154.756 10.9854 154.33 11.8725 153.479 12.5171C152.627 13.1617 151.459 13.4841 149.974 13.4841C148.928 13.4841 147.978 13.2978 147.127 12.9252C146.281 12.5467 145.642 12.0322 145.211 11.3816C144.785 10.7252 144.572 9.97114 144.572 9.11952H147.695C147.695 9.81146 147.872 10.323 148.227 10.6542C148.588 10.9795 149.17 11.1421 149.974 11.1421C150.489 11.1421 150.894 11.0327 151.19 10.8139C151.491 10.5892 151.642 10.2757 151.642 9.87356ZM167.291 7.11467C167.291 8.37436 167.057 9.48915 166.59 10.459C166.123 11.4289 165.457 12.1771 164.594 12.7034C163.736 13.2238 162.758 13.4841 161.658 13.4841C160.558 13.4841 159.582 13.2327 158.73 12.73C157.879 12.2214 157.213 11.497 156.734 10.5566C156.261 9.6163 156.013 8.53699 155.989 7.3187V6.59128C155.989 5.32568 156.22 4.21089 156.681 3.24691C157.148 2.27701 157.813 1.52889 158.677 1.00254C159.546 0.476194 160.534 0.213021 161.64 0.213021C162.734 0.213021 163.71 0.473237 164.567 0.99367C165.425 1.5141 166.09 2.25631 166.563 3.2203C167.042 4.17837 167.285 5.27837 167.291 6.52031V7.11467ZM164.124 6.57354C164.124 5.2902 163.908 4.31734 163.476 3.65498C163.05 2.98669 162.438 2.65255 161.64 2.65255C160.079 2.65255 159.254 3.82352 159.165 6.16547L159.156 7.11467C159.156 8.38027 159.366 9.35312 159.786 10.0332C160.206 10.7133 160.83 11.0534 161.658 11.0534C162.444 11.0534 163.05 10.7193 163.476 10.051C163.902 9.38269 164.118 8.42167 164.124 7.1679V6.57354ZM179.683 13.3066H176.588L172.01 5.2695V13.3066H168.896V0.390441H172.01L176.579 8.42758V0.390441H179.683V13.3066ZM192.591 7.11467C192.591 8.37436 192.357 9.48915 191.89 10.459C191.423 11.4289 190.757 12.1771 189.894 12.7034C189.037 13.2238 188.058 13.4841 186.958 13.4841C185.858 13.4841 184.882 13.2327 184.03 12.73C183.179 12.2214 182.513 11.497 182.034 10.5566C181.561 9.6163 181.313 8.53699 181.289 7.3187V6.59128C181.289 5.32568 181.52 4.21089 181.981 3.24691C182.448 2.27701 183.114 1.52889 183.977 1.00254C184.846 0.476194 185.834 0.213021 186.94 0.213021C188.034 0.213021 189.01 0.473237 189.867 0.99367C190.725 1.5141 191.39 2.25631 191.863 3.2203C192.342 4.17837 192.585 5.27837 192.591 6.52031V7.11467ZM189.424 6.57354C189.424 5.2902 189.208 4.31734 188.776 3.65498C188.35 2.98669 187.738 2.65255 186.94 2.65255C185.379 2.65255 184.554 3.82352 184.465 6.16547L184.456 7.11467C184.456 8.38027 184.666 9.35312 185.086 10.0332C185.506 10.7133 186.13 11.0534 186.958 11.0534C187.744 11.0534 188.35 10.7193 188.776 10.051C189.202 9.38269 189.418 8.42167 189.424 7.1679V6.57354Z" fill="black"/>
</svg>
