<svg width="411" height="28" viewBox="0 0 411 28" fill="none" xmlns="http://www.w3.org/2000/svg">
<path d="M16.6446 12.3791C16.6446 11.6034 16.6035 10.9326 16.5213 10.3667C16.4392 9.79173 16.3251 9.34908 16.1791 9.03878H11.1412V23.4543C11.1412 23.8376 11.1549 24.1662 11.1823 24.44C11.2188 24.7047 11.2735 24.9419 11.3465 25.1519C11.5473 25.2066 11.7618 25.2431 11.99 25.2614C12.2273 25.2705 12.4828 25.2751 12.7566 25.2751H13.9887V27.1917C13.2768 27.1004 12.606 27.0456 11.9763 27.0274C11.3465 27.0091 10.7305 27 10.1281 27C9.28848 27 8.48077 27.0091 7.70501 27.0274C6.92925 27.0456 6.13067 27.1004 5.30927 27.1917V25.2751H6.52767C6.80147 25.2751 7.05702 25.2705 7.29431 25.2614C7.5316 25.2522 7.74608 25.2157 7.93774 25.1519C8.07464 24.7959 8.14309 24.3031 8.14309 23.6733V9.03878H3.10519C2.95916 9.34908 2.84508 9.79173 2.76294 10.3667C2.6808 10.9326 2.63973 11.6034 2.63973 12.3791H0.750513C0.750513 12.0688 0.741386 11.7129 0.723133 11.3113C0.714006 10.9006 0.695753 10.4808 0.668373 10.0518C0.65012 9.61376 0.631867 9.18024 0.613613 8.75129C0.604487 8.31321 0.599923 7.90708 0.599923 7.53288C0.800709 7.43249 1.18403 7.37317 1.74988 7.35491C2.32486 7.33666 3.01848 7.32753 3.83075 7.32753C3.93115 7.32753 4.12737 7.3321 4.41942 7.34122C4.7206 7.34122 5.06741 7.34579 5.45986 7.35491C5.86143 7.36404 6.29038 7.37317 6.74671 7.38229C7.20305 7.38229 7.632 7.38686 8.03357 7.39598C8.44427 7.40511 8.80477 7.41424 9.11508 7.42336C9.43451 7.42336 9.65811 7.42336 9.78588 7.42336C10.0232 7.42336 10.3198 7.42336 10.6757 7.42336C11.0317 7.41424 11.4059 7.40511 11.7983 7.39598C12.1908 7.38686 12.5832 7.38229 12.9756 7.38229C13.3772 7.37317 13.7377 7.36404 14.0571 7.35491C14.3857 7.34579 14.6549 7.34122 14.8649 7.34122C15.0748 7.3321 15.1934 7.32753 15.2208 7.32753C16.0513 7.32753 16.7541 7.34122 17.329 7.3686C17.904 7.38686 18.2919 7.44162 18.4927 7.53288C18.4927 7.90708 18.4836 8.31321 18.4653 8.75129C18.4562 9.18024 18.4425 9.61376 18.4242 10.0518C18.406 10.4808 18.3877 10.9006 18.3695 11.3113C18.3604 11.7129 18.3558 12.0688 18.3558 12.3791H16.6446ZM35.5504 7.32753L35.92 9.09354C35.9656 9.3217 36.0113 9.55443 36.0569 9.79173C36.1025 10.0199 36.139 10.2389 36.1664 10.4488C36.2029 10.6496 36.2303 10.8276 36.2486 10.9828C36.2759 11.1379 36.2896 11.2566 36.2896 11.3387L34.2772 11.4208L34.1677 10.7363C34.1312 10.5355 34.0856 10.3256 34.0308 10.1066C33.9852 9.87843 33.9258 9.65939 33.8528 9.44948C33.5334 9.30345 33.0953 9.20306 32.5386 9.1483C31.9819 9.09354 31.2472 9.06616 30.3345 9.06616C30.225 9.06616 30.079 9.07072 29.8964 9.07985C29.723 9.07985 29.4766 9.08441 29.1572 9.09354C28.8377 9.09354 28.4316 9.10266 27.9388 9.12092C27.4551 9.13004 26.8481 9.14373 26.118 9.16199V16.0617H30.7726C30.9551 16.0617 31.124 16.0526 31.2791 16.0343C31.4434 16.007 31.594 15.9476 31.7309 15.8564C31.8678 15.756 31.991 15.6054 32.1005 15.4046C32.2192 15.1947 32.3287 14.9072 32.4291 14.5421H33.1409C33.1409 15.3727 33.1227 16.2078 33.0862 17.0474C33.0588 17.8779 33.0177 18.6628 32.963 19.4021H32.1005C31.991 19.0644 31.8815 18.786 31.772 18.567C31.6716 18.3479 31.5529 18.1745 31.416 18.0468C31.2791 17.919 31.124 17.8323 30.9506 17.7867C30.7771 17.7319 30.5672 17.7045 30.3208 17.7045H26.118V25.2751H32.3606C32.8261 25.2751 33.2413 25.2294 33.6064 25.1382C33.9806 25.0469 34.2407 24.9374 34.3867 24.8096C34.4597 24.5997 34.5282 24.3168 34.5921 23.9608C34.656 23.6049 34.7107 23.1257 34.7564 22.5234C34.9845 22.5234 35.2538 22.5279 35.5641 22.5371C35.8835 22.5462 36.1801 22.5508 36.4539 22.5508V24.1388C36.4539 24.5769 36.4357 25.0332 36.3992 25.5078C36.3718 25.9824 36.3444 26.384 36.317 26.7125C36.0432 26.7947 35.7512 26.8677 35.4409 26.9316C35.1397 26.9863 34.7837 27.0319 34.373 27.0684C33.9623 27.1141 33.4786 27.146 32.9219 27.1643C32.3743 27.1825 31.7218 27.1917 30.9642 27.1917C30.3984 27.1917 29.8554 27.1825 29.3351 27.1643C28.8149 27.146 28.2993 27.1232 27.7882 27.0958C27.2771 27.0684 26.7614 27.0456 26.2412 27.0274C25.7301 27.0091 25.1962 27 24.6395 27C23.8911 27 23.161 27.0091 22.4491 27.0274C21.7463 27.0456 21.0253 27.1004 20.2861 27.1917V25.2751H21.5045C21.7783 25.2751 22.0338 25.2705 22.2711 25.2614C22.5084 25.2522 22.7229 25.2157 22.9146 25.1519C23.0606 24.7685 23.1336 24.2164 23.1336 23.4954V10.928C23.1336 10.5812 23.1108 10.28 23.0651 10.0245C23.0286 9.76891 22.9739 9.54531 22.9009 9.35365C22.7275 9.28063 22.5358 9.23956 22.3259 9.23044C22.116 9.22131 21.8924 9.21675 21.6551 9.21675H20.1355V7.73823C21.0208 7.57395 22.0703 7.46443 23.2842 7.40967C24.498 7.35491 25.794 7.32753 27.1721 7.32753H35.5504ZM42.3132 11.8315C42.3132 12.2514 42.3954 12.6301 42.5596 12.9678C42.733 13.3055 42.9749 13.6158 43.2852 13.8987C43.6046 14.1725 43.988 14.4281 44.4352 14.6653C44.8824 14.8935 45.3843 15.1171 45.9411 15.3362C46.9906 15.756 47.9489 16.1712 48.8159 16.5819C49.683 16.9926 50.4222 17.4444 51.0337 17.9372C51.6543 18.421 52.1335 18.9686 52.4712 19.58C52.8089 20.1824 52.9777 20.8897 52.9777 21.702C52.9777 22.6603 52.7952 23.4999 52.4301 24.2209C52.065 24.9419 51.5676 25.5489 50.9379 26.0417C50.3082 26.5254 49.5689 26.8905 48.7201 27.1369C47.8805 27.3833 46.9861 27.5065 46.0369 27.5065C45.3615 27.5065 44.6998 27.4655 44.0518 27.3833C43.4039 27.3012 42.7787 27.1688 42.1763 26.9863C41.574 26.8038 41.0035 26.5665 40.4651 26.2744C39.9266 25.9824 39.4292 25.6219 38.9729 25.1929L39.6163 21.524L41.6698 21.6062C41.6698 22.3454 41.72 22.9706 41.8204 23.4817C41.9208 23.9928 42.0622 24.4217 42.2448 24.7685C42.4729 24.9784 42.733 25.1564 43.0251 25.3024C43.3263 25.4393 43.6411 25.5489 43.9697 25.631C44.3074 25.7131 44.6496 25.7725 44.9965 25.809C45.3524 25.8364 45.6992 25.85 46.0369 25.85C46.5845 25.85 47.0956 25.7679 47.5702 25.6036C48.0447 25.4302 48.4554 25.1975 48.8023 24.9054C49.1582 24.6134 49.4366 24.2666 49.6373 23.865C49.8381 23.4543 49.9385 23.0071 49.9385 22.5234C49.9385 21.9484 49.8062 21.4419 49.5415 21.0038C49.2768 20.5566 48.9027 20.1505 48.4189 19.7854C47.9444 19.4203 47.3694 19.0781 46.694 18.7586C46.0186 18.4392 45.2703 18.1152 44.4489 17.7867C43.6822 17.4855 42.984 17.1615 42.3543 16.8147C41.7246 16.4587 41.1861 16.0617 40.7389 15.6236C40.3008 15.1856 39.9585 14.6927 39.7121 14.1451C39.4657 13.5975 39.3425 12.9724 39.3425 12.2696C39.3425 11.5212 39.5022 10.8276 39.8216 10.1887C40.1411 9.54987 40.6202 8.99771 41.2591 8.53225C41.898 8.06679 42.6874 7.70173 43.6275 7.43705C44.5675 7.17238 45.6627 7.04004 46.913 7.04004C47.4789 7.04004 48.0356 7.06742 48.5832 7.12218C49.1399 7.17694 49.651 7.25908 50.1165 7.3686C50.5911 7.47812 51.0018 7.61959 51.3486 7.79299C51.6954 7.95727 51.9464 8.15349 52.1015 8.38166C52.0924 8.4638 52.0833 8.55963 52.0742 8.66915C52.065 8.77867 52.0468 8.96577 52.0194 9.23044C51.992 9.48598 51.9509 9.85105 51.8962 10.3256C51.8414 10.7911 51.7639 11.4254 51.6635 12.2285L49.8701 12.1053C49.8701 11.4391 49.8108 10.8869 49.6921 10.4488C49.5826 10.0108 49.3909 9.66395 49.1171 9.40841C48.8433 9.14373 48.4737 8.9612 48.0082 8.86081C47.5428 8.75129 46.9541 8.69653 46.2422 8.69653C45.6399 8.69653 45.0968 8.77411 44.6131 8.92926C44.1294 9.07528 43.7142 9.2852 43.3673 9.559C43.0297 9.8328 42.7696 10.1659 42.587 10.5584C42.4045 10.9417 42.3132 11.3661 42.3132 11.8315ZM71.021 12.3791C71.021 11.6034 70.98 10.9326 70.8978 10.3667C70.8157 9.79173 70.7016 9.34908 70.5556 9.03878H65.5177V23.4543C65.5177 23.8376 65.5314 24.1662 65.5588 24.44C65.5953 24.7047 65.65 24.9419 65.723 25.1519C65.9238 25.2066 66.1383 25.2431 66.3665 25.2614C66.6038 25.2705 66.8593 25.2751 67.1331 25.2751H68.3652V27.1917C67.6533 27.1004 66.9825 27.0456 66.3528 27.0274C65.723 27.0091 65.107 27 64.5046 27C63.665 27 62.8573 27.0091 62.0815 27.0274C61.3057 27.0456 60.5072 27.1004 59.6858 27.1917V25.2751H60.9042C61.178 25.2751 61.4335 25.2705 61.6708 25.2614C61.9081 25.2522 62.1226 25.2157 62.3142 25.1519C62.4511 24.7959 62.5196 24.3031 62.5196 23.6733V9.03878H57.4817C57.3357 9.34908 57.2216 9.79173 57.1394 10.3667C57.0573 10.9326 57.0162 11.6034 57.0162 12.3791H55.127C55.127 12.0688 55.1179 11.7129 55.0996 11.3113C55.0905 10.9006 55.0722 10.4808 55.0449 10.0518C55.0266 9.61376 55.0084 9.18024 54.9901 8.75129C54.981 8.31321 54.9764 7.90708 54.9764 7.53288C55.1772 7.43249 55.5605 7.37317 56.1264 7.35491C56.7014 7.33666 57.395 7.32753 58.2072 7.32753C58.3076 7.32753 58.5039 7.3321 58.7959 7.34122C59.0971 7.34122 59.4439 7.34579 59.8364 7.35491C60.2379 7.36404 60.6669 7.37317 61.1232 7.38229C61.5795 7.38229 62.0085 7.38686 62.4101 7.39598C62.8208 7.40511 63.1813 7.41424 63.4916 7.42336C63.811 7.42336 64.0346 7.42336 64.1624 7.42336C64.3997 7.42336 64.6963 7.42336 65.0522 7.42336C65.4082 7.41424 65.7824 7.40511 66.1748 7.39598C66.5672 7.38686 66.9597 7.38229 67.3521 7.38229C67.7537 7.37317 68.1142 7.36404 68.4336 7.35491C68.7622 7.34579 69.0314 7.34122 69.2414 7.34122C69.4513 7.3321 69.5699 7.32753 69.5973 7.32753C70.4278 7.32753 71.1306 7.34122 71.7055 7.3686C72.2805 7.38686 72.6684 7.44162 72.8692 7.53288C72.8692 7.90708 72.8601 8.31321 72.8418 8.75129C72.8327 9.18024 72.819 9.61376 72.8007 10.0518C72.7825 10.4808 72.7642 10.9006 72.746 11.3113C72.7369 11.7129 72.7323 12.0688 72.7323 12.3791H71.021ZM89.9269 7.32753L90.2965 9.09354C90.3422 9.3217 90.3878 9.55443 90.4334 9.79173C90.4791 10.0199 90.5156 10.2389 90.5429 10.4488C90.5794 10.6496 90.6068 10.8276 90.6251 10.9828C90.6525 11.1379 90.6661 11.2566 90.6661 11.3387L88.6537 11.4208L88.5442 10.7363C88.5077 10.5355 88.4621 10.3256 88.4073 10.1066C88.3617 9.87843 88.3023 9.65939 88.2293 9.44948C87.9099 9.30345 87.4718 9.20306 86.9151 9.1483C86.3584 9.09354 85.6237 9.06616 84.711 9.06616C84.6015 9.06616 84.4555 9.07072 84.2729 9.07985C84.0995 9.07985 83.8531 9.08441 83.5337 9.09354C83.2142 9.09354 82.8081 9.10266 82.3153 9.12092C81.8316 9.13004 81.2246 9.14373 80.4945 9.16199V16.0617H85.1491C85.3316 16.0617 85.5005 16.0526 85.6556 16.0343C85.8199 16.007 85.9705 15.9476 86.1074 15.8564C86.2443 15.756 86.3675 15.6054 86.477 15.4046C86.5957 15.1947 86.7052 14.9072 86.8056 14.5421H87.5175C87.5175 15.3727 87.4992 16.2078 87.4627 17.0474C87.4353 17.8779 87.3942 18.6628 87.3395 19.4021H86.477C86.3675 19.0644 86.258 18.786 86.1485 18.567C86.0481 18.3479 85.9294 18.1745 85.7925 18.0468C85.6556 17.919 85.5005 17.8323 85.3271 17.7867C85.1537 17.7319 84.9437 17.7045 84.6973 17.7045H80.4945V25.2751H86.7371C87.2026 25.2751 87.6179 25.2294 87.9829 25.1382C88.3571 25.0469 88.6172 24.9374 88.7632 24.8096C88.8363 24.5997 88.9047 24.3168 88.9686 23.9608C89.0325 23.6049 89.0872 23.1257 89.1329 22.5234C89.361 22.5234 89.6303 22.5279 89.9406 22.5371C90.26 22.5462 90.5566 22.5508 90.8304 22.5508V24.1388C90.8304 24.5769 90.8122 25.0332 90.7757 25.5078C90.7483 25.9824 90.7209 26.384 90.6935 26.7125C90.4197 26.7947 90.1277 26.8677 89.8174 26.9316C89.5162 26.9863 89.1603 27.0319 88.7496 27.0684C88.3389 27.1141 87.8551 27.146 87.2984 27.1643C86.7508 27.1825 86.0983 27.1917 85.3408 27.1917C84.7749 27.1917 84.2319 27.1825 83.7117 27.1643C83.1914 27.146 82.6758 27.1232 82.1647 27.0958C81.6536 27.0684 81.1379 27.0456 80.6177 27.0274C80.1066 27.0091 79.5727 27 79.016 27C78.2676 27 77.5375 27.0091 76.8256 27.0274C76.1229 27.0456 75.4018 27.1004 74.6626 27.1917V25.2751H75.881C76.1548 25.2751 76.4103 25.2705 76.6476 25.2614C76.8849 25.2522 77.0994 25.2157 77.2911 25.1519C77.4371 24.7685 77.5101 24.2164 77.5101 23.4954V10.928C77.5101 10.5812 77.4873 10.28 77.4417 10.0245C77.4051 9.76891 77.3504 9.54531 77.2774 9.35365C77.104 9.28063 76.9123 9.23956 76.7024 9.23044C76.4925 9.22131 76.2689 9.21675 76.0316 9.21675H74.512V7.73823C75.3973 7.57395 76.4468 7.46443 77.6607 7.40967C78.8745 7.35491 80.1705 7.32753 81.5486 7.32753H89.9269ZM104.904 27C104.174 27 103.448 27.0183 102.727 27.0548C102.006 27.0913 101.276 27.1369 100.537 27.1917V25.2614H101.769C102.033 25.2614 102.284 25.2568 102.522 25.2477C102.759 25.2386 102.978 25.2021 103.179 25.1382C103.316 24.7275 103.384 24.1753 103.384 23.4817V11.325C103.384 10.9143 103.366 10.5538 103.329 10.2435C103.293 9.92406 103.243 9.63201 103.179 9.36734C102.978 9.29432 102.759 9.25325 102.522 9.24413C102.284 9.22587 102.033 9.21675 101.769 9.21675H100.359V7.61502C101.6 7.45987 103.01 7.33666 104.589 7.24539C106.168 7.15413 107.966 7.10849 109.983 7.10849C110.904 7.10849 111.79 7.17694 112.639 7.31384C113.487 7.44162 114.277 7.66066 115.007 7.97096C115.737 8.28127 116.399 8.69197 116.992 9.20306C117.585 9.71415 118.092 10.3485 118.511 11.106C118.94 11.8543 119.269 12.7396 119.497 13.7618C119.725 14.7749 119.839 15.9476 119.839 17.2801C119.839 18.8317 119.666 20.1505 119.319 21.2365C118.972 22.3135 118.48 23.2124 117.841 23.9334C117.211 24.6545 116.444 25.2203 115.541 25.631C114.646 26.0417 113.642 26.3474 112.529 26.5482C111.425 26.749 110.229 26.8768 108.942 26.9316C107.655 26.9772 106.309 27 104.904 27ZM106.341 25.2751C106.487 25.2933 106.629 25.3024 106.766 25.3024C106.902 25.3024 107.039 25.3024 107.176 25.3024C108.217 25.3024 109.17 25.2568 110.037 25.1655C110.904 25.0652 111.685 24.9009 112.378 24.6727C113.072 24.4354 113.679 24.1205 114.199 23.7281C114.729 23.3265 115.167 22.8246 115.513 22.2222C115.86 21.6198 116.12 20.908 116.294 20.0866C116.467 19.256 116.554 18.2932 116.554 17.198C116.554 15.6556 116.412 14.3642 116.129 13.3237C115.856 12.2742 115.431 11.43 114.856 10.7911C114.281 10.1522 113.556 9.6959 112.68 9.4221C111.813 9.1483 110.786 9.0114 109.599 9.0114C108.96 9.0114 108.349 9.02052 107.765 9.03878C107.181 9.05703 106.706 9.06616 106.341 9.06616V25.2751ZM137.924 7.32753L138.293 9.09354C138.339 9.3217 138.385 9.55443 138.43 9.79173C138.476 10.0199 138.513 10.2389 138.54 10.4488C138.576 10.6496 138.604 10.8276 138.622 10.9828C138.649 11.1379 138.663 11.2566 138.663 11.3387L136.651 11.4208L136.541 10.7363C136.505 10.5355 136.459 10.3256 136.404 10.1066C136.359 9.87843 136.299 9.65939 136.226 9.44948C135.907 9.30345 135.469 9.20306 134.912 9.1483C134.355 9.09354 133.621 9.06616 132.708 9.06616C132.598 9.06616 132.452 9.07072 132.27 9.07985C132.097 9.07985 131.85 9.08441 131.531 9.09354C131.211 9.09354 130.805 9.10266 130.312 9.12092C129.829 9.13004 129.222 9.14373 128.491 9.16199V16.0617H133.146C133.329 16.0617 133.497 16.0526 133.653 16.0343C133.817 16.007 133.967 15.9476 134.104 15.8564C134.241 15.756 134.364 15.6054 134.474 15.4046C134.593 15.1947 134.702 14.9072 134.803 14.5421H135.514C135.514 15.3727 135.496 16.2078 135.46 17.0474C135.432 17.8779 135.391 18.6628 135.336 19.4021H134.474C134.364 19.0644 134.255 18.786 134.145 18.567C134.045 18.3479 133.926 18.1745 133.79 18.0468C133.653 17.919 133.497 17.8323 133.324 17.7867C133.151 17.7319 132.941 17.7045 132.694 17.7045H128.491V25.2751H134.734C135.2 25.2751 135.615 25.2294 135.98 25.1382C136.354 25.0469 136.614 24.9374 136.76 24.8096C136.833 24.5997 136.902 24.3168 136.966 23.9608C137.029 23.6049 137.084 23.1257 137.13 22.5234C137.358 22.5234 137.627 22.5279 137.938 22.5371C138.257 22.5462 138.554 22.5508 138.827 22.5508V24.1388C138.827 24.5769 138.809 25.0332 138.773 25.5078C138.745 25.9824 138.718 26.384 138.691 26.7125C138.417 26.7947 138.125 26.8677 137.814 26.9316C137.513 26.9863 137.157 27.0319 136.747 27.0684C136.336 27.1141 135.852 27.146 135.295 27.1643C134.748 27.1825 134.095 27.1917 133.338 27.1917C132.772 27.1917 132.229 27.1825 131.709 27.1643C131.188 27.146 130.673 27.1232 130.162 27.0958C129.651 27.0684 129.135 27.0456 128.615 27.0274C128.104 27.0091 127.57 27 127.013 27C126.265 27 125.534 27.0091 124.823 27.0274C124.12 27.0456 123.399 27.1004 122.66 27.1917V25.2751H123.878C124.152 25.2751 124.407 25.2705 124.645 25.2614C124.882 25.2522 125.096 25.2157 125.288 25.1519C125.434 24.7685 125.507 24.2164 125.507 23.4954V10.928C125.507 10.5812 125.484 10.28 125.439 10.0245C125.402 9.76891 125.347 9.54531 125.274 9.35365C125.101 9.28063 124.909 9.23956 124.699 9.23044C124.489 9.22131 124.266 9.21675 124.029 9.21675H122.509V7.73823C123.394 7.57395 124.444 7.46443 125.658 7.40967C126.872 7.35491 128.167 7.32753 129.546 7.32753H137.924ZM157.555 9.76435L154.119 19.7991H161.046L157.678 9.76435H157.555ZM165.797 23.4543C165.943 23.8376 166.08 24.1662 166.207 24.44C166.344 24.7047 166.481 24.9419 166.618 25.1519C166.828 25.2066 167.038 25.2431 167.248 25.2614C167.467 25.2705 167.695 25.2751 167.932 25.2751H168.535L168.932 27.1917C168.32 27.1004 167.741 27.0456 167.193 27.0274C166.655 27.0091 166.13 27 165.619 27C165.244 27 164.884 27 164.537 27C164.199 27.0091 163.866 27.0183 163.538 27.0274C163.209 27.0456 162.881 27.0639 162.552 27.0821C162.224 27.1095 161.886 27.146 161.539 27.1917L161.279 25.2751H161.512C161.776 25.2751 162.023 25.2705 162.251 25.2614C162.479 25.2522 162.684 25.2157 162.867 25.1519C162.858 24.9419 162.821 24.7001 162.757 24.4263C162.703 24.1525 162.607 23.8422 162.47 23.4954L161.566 21.2091H153.667L152.928 23.4543C152.819 23.7829 152.736 24.0703 152.682 24.3168C152.636 24.5541 152.613 24.7777 152.613 24.9876C152.613 25.0606 152.645 25.1153 152.709 25.1519C152.773 25.1884 152.85 25.2157 152.942 25.234C153.042 25.2522 153.147 25.2659 153.257 25.2751C153.375 25.2751 153.489 25.2751 153.599 25.2751H154.229L154.105 27.1917C153.594 27.1004 153.097 27.0456 152.613 27.0274C152.139 27.0091 151.669 27 151.203 27C150.509 27 149.857 27.0091 149.245 27.0274C148.634 27.0456 147.981 27.1004 147.288 27.1917L147.698 25.2751H148.328C148.575 25.2751 148.803 25.2705 149.013 25.2614C149.232 25.2522 149.442 25.2157 149.642 25.1519C149.798 24.9419 149.944 24.7001 150.081 24.4263C150.217 24.1525 150.35 23.8422 150.478 23.4954C150.587 23.1942 150.76 22.7333 150.998 22.1127C151.235 21.4921 151.513 20.7756 151.833 19.9634C152.152 19.142 152.495 18.2612 152.86 17.3212C153.234 16.3812 153.608 15.4411 153.982 14.5011L156.83 7.32753H158.089C158.5 7.32753 158.824 7.34579 159.061 7.38229C159.308 7.4188 159.54 7.47356 159.759 7.54657L165.797 23.4543ZM187.632 19.936C187.632 21.1863 187.436 22.2815 187.043 23.2216C186.66 24.1616 186.122 24.9511 185.428 25.5899C184.744 26.2288 183.922 26.7079 182.964 27.0274C182.006 27.3468 180.956 27.5065 179.815 27.5065C178.446 27.5065 177.278 27.3057 176.311 26.9042C175.352 26.5026 174.572 25.9322 173.97 25.1929C173.367 24.4445 172.925 23.5456 172.642 22.496C172.368 21.4464 172.231 20.2737 172.231 18.9777V10.8322C172.231 10.1112 172.158 9.56356 172.012 9.18937C171.811 9.11635 171.592 9.07528 171.355 9.06616C171.127 9.0479 170.876 9.03878 170.602 9.03878H169.37V7.51919C169.999 7.44618 170.661 7.39598 171.355 7.3686C172.048 7.34122 172.824 7.32753 173.682 7.32753C174.567 7.32753 175.384 7.33666 176.133 7.35491C176.89 7.37317 177.547 7.43249 178.104 7.53288V9.03878H176.831C176.566 9.03878 176.315 9.0479 176.078 9.06616C175.85 9.07528 175.631 9.11635 175.421 9.18937C175.293 9.59094 175.229 10.1385 175.229 10.8322V20.1413C175.229 21.0996 175.348 21.9347 175.585 22.6466C175.822 23.3585 176.16 23.9517 176.598 24.4263C177.036 24.8917 177.561 25.2431 178.172 25.4804C178.793 25.7177 179.477 25.8364 180.226 25.8364C181.96 25.8364 183.238 25.2888 184.059 24.1936C184.89 23.0984 185.305 21.4008 185.305 19.1009V10.8322C185.305 10.1112 185.232 9.56356 185.086 9.18937C184.885 9.11635 184.666 9.07528 184.429 9.06616C184.191 9.0479 183.94 9.03878 183.676 9.03878H182.444V7.51919C183.046 7.44618 183.667 7.39598 184.305 7.3686C184.953 7.34122 185.674 7.32753 186.468 7.32753C187.272 7.32753 188.015 7.33666 188.7 7.35491C189.384 7.37317 189.987 7.43249 190.507 7.53288V9.03878H189.248C188.974 9.03878 188.718 9.0479 188.481 9.06616C188.244 9.07528 188.029 9.11635 187.837 9.18937C187.764 9.39928 187.71 9.63657 187.673 9.90125C187.646 10.1659 187.632 10.4762 187.632 10.8322V19.936ZM201.432 18.9366L198.16 23.4543C197.895 23.8194 197.694 24.1434 197.557 24.4263C197.43 24.7001 197.325 24.9419 197.242 25.1519C197.407 25.2066 197.603 25.2431 197.831 25.2614C198.059 25.2705 198.306 25.2751 198.57 25.2751H199.269V27.1917C198.529 27.1004 197.799 27.0456 197.078 27.0274C196.366 27.0091 195.664 27 194.97 27C194.632 27 194.308 27 193.998 27C193.688 27 193.377 27.0046 193.067 27.0137C192.757 27.0319 192.442 27.0548 192.122 27.0821C191.812 27.1095 191.488 27.146 191.15 27.1917V25.2751H192.355C192.602 25.2751 192.834 25.2705 193.053 25.2614C193.272 25.2522 193.491 25.2157 193.71 25.1519C193.929 24.9419 194.144 24.6955 194.354 24.4126C194.573 24.1205 194.838 23.8148 195.148 23.4954L200.295 17.3623L195.696 10.8322C195.449 10.4854 195.239 10.1796 195.066 9.91494C194.901 9.64114 194.714 9.39928 194.504 9.18937C194.267 9.11635 194.025 9.07528 193.779 9.06616C193.532 9.0479 193.277 9.03878 193.012 9.03878H191.999L191.794 7.53288C192.287 7.45987 192.816 7.40967 193.382 7.38229C193.957 7.34579 194.591 7.32753 195.285 7.32753C196.252 7.32753 197.147 7.33666 197.968 7.35491C198.799 7.37317 199.556 7.43249 200.241 7.53288L200.432 9.03878H199.597C199.323 9.03878 199.072 9.0479 198.844 9.06616C198.625 9.07528 198.438 9.11635 198.283 9.18937C198.31 9.29889 198.342 9.39472 198.379 9.47686C198.415 9.559 198.461 9.65026 198.516 9.75066C198.58 9.84192 198.653 9.94688 198.735 10.0655C198.817 10.175 198.917 10.3165 199.036 10.4899L202.253 15.2403L205.703 10.8322C205.977 10.4854 206.196 10.1796 206.36 9.91494C206.524 9.64114 206.652 9.39928 206.743 9.18937C206.588 9.11635 206.401 9.07528 206.182 9.06616C205.963 9.0479 205.717 9.03878 205.443 9.03878H204.895L205.087 7.53288C205.744 7.45987 206.401 7.40967 207.058 7.38229C207.724 7.34579 208.459 7.32753 209.262 7.32753C209.919 7.32753 210.513 7.33666 211.042 7.35491C211.571 7.37317 212.023 7.43249 212.397 7.53288L212.233 9.03878H211.11C210.846 9.03878 210.59 9.0479 210.344 9.06616C210.097 9.07528 209.846 9.11635 209.591 9.18937C209.372 9.39928 209.144 9.64114 208.906 9.91494C208.678 10.1796 208.423 10.4854 208.14 10.8322C207.51 11.6171 206.944 12.3152 206.442 12.9267C205.949 13.5291 205.507 14.063 205.114 14.5285C204.731 14.9939 204.384 15.4046 204.074 15.7605C203.773 16.1074 203.499 16.4177 203.252 16.6915L208.277 23.4954C208.541 23.8513 208.774 24.1662 208.975 24.44C209.176 24.7047 209.395 24.9419 209.632 25.1519C209.851 25.2157 210.07 25.2522 210.289 25.2614C210.508 25.2705 210.741 25.2751 210.987 25.2751H211.644V27.1917C211.307 27.146 210.983 27.1095 210.672 27.0821C210.371 27.0639 210.07 27.0456 209.769 27.0274C209.468 27.0183 209.162 27.0091 208.852 27C208.55 27 208.231 27 207.893 27C207.181 27 206.465 27.0091 205.744 27.0274C205.023 27.0456 204.288 27.1004 203.54 27.1917V25.2751H204.224C204.489 25.2751 204.735 25.2705 204.964 25.2614C205.192 25.2431 205.388 25.2066 205.552 25.1519C205.461 24.9419 205.342 24.7047 205.196 24.44C205.05 24.1662 204.845 23.8376 204.58 23.4543L201.432 18.9366ZM214.136 25.2751H215.354C215.628 25.2751 215.879 25.2705 216.107 25.2614C216.345 25.2522 216.564 25.2157 216.764 25.1519C216.91 24.7503 216.983 24.1981 216.983 23.4954V10.75C216.983 10.3941 216.965 10.0975 216.929 9.86018C216.892 9.62288 216.837 9.39928 216.764 9.18937C216.564 9.11635 216.345 9.07528 216.107 9.06616C215.879 9.0479 215.628 9.03878 215.354 9.03878H214.122V7.53288C214.752 7.45987 215.414 7.40967 216.107 7.38229C216.801 7.34579 217.577 7.32753 218.435 7.32753C219.32 7.32753 220.137 7.33666 220.885 7.35491C221.633 7.37317 222.281 7.43249 222.829 7.53288V9.03878H221.57C221.305 9.03878 221.054 9.0479 220.817 9.06616C220.588 9.07528 220.369 9.11635 220.159 9.18937C220.105 9.39928 220.059 9.62288 220.023 9.86018C219.986 10.0975 219.968 10.3941 219.968 10.75V23.4543C219.968 23.8376 219.986 24.1662 220.023 24.44C220.059 24.7047 220.105 24.9419 220.159 25.1519C220.369 25.2066 220.588 25.2431 220.817 25.2614C221.054 25.2705 221.305 25.2751 221.57 25.2751H222.802V27.1917C222.09 27.1004 221.419 27.0456 220.789 27.0274C220.169 27.0091 219.557 27 218.955 27C218.124 27 217.321 27.0091 216.545 27.0274C215.77 27.0456 214.966 27.1004 214.136 27.1917V25.2751ZM229.318 27C228.579 27 227.853 27.0091 227.141 27.0274C226.439 27.0548 225.718 27.1095 224.978 27.1917V25.2751H226.197C226.471 25.2751 226.721 25.2705 226.95 25.2614C227.187 25.2522 227.406 25.2157 227.607 25.1519C227.753 24.7503 227.826 24.1981 227.826 23.4954V10.8322C227.826 10.4762 227.808 10.1659 227.771 9.90125C227.735 9.63657 227.68 9.39928 227.607 9.18937C227.406 9.11635 227.187 9.07528 226.95 9.06616C226.721 9.0479 226.471 9.03878 226.197 9.03878H224.965V7.53288C225.594 7.45987 226.256 7.40967 226.95 7.38229C227.643 7.34579 228.419 7.32753 229.277 7.32753C230.162 7.32753 230.979 7.33666 231.727 7.35491C232.485 7.37317 233.142 7.43249 233.699 7.53288V9.03878H232.426C232.161 9.03878 231.91 9.0479 231.673 9.06616C231.445 9.07528 231.225 9.11635 231.016 9.18937C230.952 9.39928 230.901 9.63657 230.865 9.90125C230.838 10.1659 230.824 10.4762 230.824 10.8322V25.2751H236.04C236.505 25.2751 236.93 25.2614 237.313 25.234C237.696 25.1975 238.039 25.0971 238.34 24.9328C238.65 24.7594 238.919 24.4856 239.147 24.1114C239.385 23.7372 239.59 23.2079 239.763 22.5234L240.941 22.6877L240.434 27C239.631 27.0548 238.846 27.1004 238.08 27.1369C237.313 27.1734 236.56 27.1917 235.821 27.1917C234.461 27.1917 233.229 27.1597 232.124 27.0958C231.029 27.0319 230.094 27 229.318 27ZM243.213 25.2751H244.432C244.706 25.2751 244.956 25.2705 245.185 25.2614C245.422 25.2522 245.641 25.2157 245.842 25.1519C245.988 24.7503 246.061 24.1981 246.061 23.4954V10.75C246.061 10.3941 246.043 10.0975 246.006 9.86018C245.97 9.62288 245.915 9.39928 245.842 9.18937C245.641 9.11635 245.422 9.07528 245.185 9.06616C244.956 9.0479 244.706 9.03878 244.432 9.03878H243.2V7.53288C243.829 7.45987 244.491 7.40967 245.185 7.38229C245.878 7.34579 246.654 7.32753 247.512 7.32753C248.397 7.32753 249.214 7.33666 249.962 7.35491C250.711 7.37317 251.359 7.43249 251.906 7.53288V9.03878H250.647C250.382 9.03878 250.131 9.0479 249.894 9.06616C249.666 9.07528 249.447 9.11635 249.237 9.18937C249.182 9.39928 249.136 9.62288 249.1 9.86018C249.063 10.0975 249.045 10.3941 249.045 10.75V23.4543C249.045 23.8376 249.063 24.1662 249.1 24.44C249.136 24.7047 249.182 24.9419 249.237 25.1519C249.447 25.2066 249.666 25.2431 249.894 25.2614C250.131 25.2705 250.382 25.2751 250.647 25.2751H251.879V27.1917C251.167 27.1004 250.496 27.0456 249.867 27.0274C249.246 27.0091 248.635 27 248.032 27C247.202 27 246.399 27.0091 245.623 27.0274C244.847 27.0456 244.044 27.1004 243.213 27.1917V25.2751ZM257.848 17.2664C257.848 20.0318 258.332 22.1492 259.299 23.6186C260.276 25.0788 261.745 25.809 263.707 25.809C264.638 25.809 265.464 25.6356 266.185 25.2888C266.915 24.9419 267.527 24.4172 268.02 23.7144C268.512 23.0025 268.887 22.1081 269.142 21.0312C269.407 19.9542 269.539 18.6856 269.539 17.2254C269.539 14.387 269.033 12.2559 268.02 10.8322C267.016 9.40841 265.578 8.69653 263.707 8.69653C262.776 8.69653 261.946 8.8745 261.216 9.23044C260.495 9.57725 259.883 10.1066 259.381 10.8185C258.888 11.5304 258.51 12.4248 258.245 13.5017C257.98 14.5695 257.848 15.8244 257.848 17.2664ZM272.825 17.2254C272.825 18.8317 272.61 20.2737 272.181 21.5514C271.761 22.82 271.155 23.8969 270.36 24.7822C269.576 25.6584 268.617 26.3338 267.486 26.8083C266.363 27.2738 265.104 27.5065 263.707 27.5065C262.293 27.5065 261.019 27.2738 259.888 26.8083C258.765 26.3338 257.807 25.6584 257.013 24.7822C256.219 23.8969 255.607 22.82 255.178 21.5514C254.759 20.2737 254.549 18.8317 254.549 17.2254C254.549 15.6008 254.759 14.1588 255.178 12.8993C255.607 11.6307 256.219 10.5629 257.013 9.6959C257.807 8.82887 258.765 8.17175 259.888 7.72454C261.019 7.26821 262.293 7.04004 263.707 7.04004C265.104 7.04004 266.363 7.26821 267.486 7.72454C268.608 8.17175 269.566 8.82887 270.36 9.6959C271.155 10.5629 271.761 11.6307 272.181 12.8993C272.61 14.1588 272.825 15.6008 272.825 17.2254ZM291.991 9.76435L288.554 19.7991H295.482L292.114 9.76435H291.991ZM300.232 23.4543C300.378 23.8376 300.515 24.1662 300.643 24.44C300.78 24.7047 300.916 24.9419 301.053 25.1519C301.263 25.2066 301.473 25.2431 301.683 25.2614C301.902 25.2705 302.13 25.2751 302.368 25.2751H302.97L303.367 27.1917C302.756 27.1004 302.176 27.0456 301.628 27.0274C301.09 27.0091 300.565 27 300.054 27C299.68 27 299.319 27 298.973 27C298.635 27.0091 298.302 27.0183 297.973 27.0274C297.645 27.0456 297.316 27.0639 296.987 27.0821C296.659 27.1095 296.321 27.146 295.974 27.1917L295.714 25.2751H295.947C296.212 25.2751 296.458 25.2705 296.686 25.2614C296.914 25.2522 297.12 25.2157 297.302 25.1519C297.293 24.9419 297.257 24.7001 297.193 24.4263C297.138 24.1525 297.042 23.8422 296.905 23.4954L296.002 21.2091H288.103L287.363 23.4543C287.254 23.7829 287.172 24.0703 287.117 24.3168C287.071 24.5541 287.049 24.7777 287.049 24.9876C287.049 25.0606 287.081 25.1153 287.144 25.1519C287.208 25.1884 287.286 25.2157 287.377 25.234C287.478 25.2522 287.582 25.2659 287.692 25.2751C287.811 25.2751 287.925 25.2751 288.034 25.2751H288.664L288.541 27.1917C288.03 27.1004 287.532 27.0456 287.049 27.0274C286.574 27.0091 286.104 27 285.639 27C284.945 27 284.292 27.0091 283.681 27.0274C283.069 27.0456 282.417 27.1004 281.723 27.1917L282.134 25.2751H282.764C283.01 25.2751 283.238 25.2705 283.448 25.2614C283.667 25.2522 283.877 25.2157 284.078 25.1519C284.233 24.9419 284.379 24.7001 284.516 24.4263C284.653 24.1525 284.785 23.8422 284.913 23.4954C285.022 23.1942 285.196 22.7333 285.433 22.1127C285.67 21.4921 285.949 20.7756 286.268 19.9634C286.588 19.142 286.93 18.2612 287.295 17.3212C287.669 16.3812 288.043 15.4411 288.418 14.5011L291.265 7.32753H292.525C292.935 7.32753 293.259 7.34579 293.497 7.38229C293.743 7.4188 293.976 7.47356 294.195 7.54657L300.232 23.4543ZM315.346 11.8315C315.346 12.2514 315.428 12.6301 315.592 12.9678C315.766 13.3055 316.007 13.6158 316.318 13.8987C316.637 14.1725 317.02 14.4281 317.468 14.6653C317.915 14.8935 318.417 15.1171 318.974 15.3362C320.023 15.756 320.981 16.1712 321.848 16.5819C322.715 16.9926 323.455 17.4444 324.066 17.9372C324.687 18.421 325.166 18.9686 325.504 19.58C325.841 20.1824 326.01 20.8897 326.01 21.702C326.01 22.6603 325.828 23.4999 325.463 24.2209C325.098 24.9419 324.6 25.5489 323.97 26.0417C323.341 26.5254 322.601 26.8905 321.753 27.1369C320.913 27.3833 320.019 27.5065 319.069 27.5065C318.394 27.5065 317.732 27.4655 317.084 27.3833C316.436 27.3012 315.811 27.1688 315.209 26.9863C314.606 26.8038 314.036 26.5665 313.498 26.2744C312.959 25.9824 312.462 25.6219 312.005 25.1929L312.649 21.524L314.702 21.6062C314.702 22.3454 314.752 22.9706 314.853 23.4817C314.953 23.9928 315.095 24.4217 315.277 24.7685C315.505 24.9784 315.766 25.1564 316.058 25.3024C316.359 25.4393 316.674 25.5489 317.002 25.631C317.34 25.7131 317.682 25.7725 318.029 25.809C318.385 25.8364 318.732 25.85 319.069 25.85C319.617 25.85 320.128 25.7679 320.603 25.6036C321.077 25.4302 321.488 25.1975 321.835 24.9054C322.191 24.6134 322.469 24.2666 322.67 23.865C322.871 23.4543 322.971 23.0071 322.971 22.5234C322.971 21.9484 322.839 21.4419 322.574 21.0038C322.309 20.5566 321.935 20.1505 321.451 19.7854C320.977 19.4203 320.402 19.0781 319.726 18.7586C319.051 18.4392 318.303 18.1152 317.481 17.7867C316.715 17.4855 316.016 17.1615 315.387 16.8147C314.757 16.4587 314.219 16.0617 313.771 15.6236C313.333 15.1856 312.991 14.6927 312.745 14.1451C312.498 13.5975 312.375 12.9724 312.375 12.2696C312.375 11.5212 312.535 10.8276 312.854 10.1887C313.174 9.54987 313.653 8.99771 314.292 8.53225C314.93 8.06679 315.72 7.70173 316.66 7.43705C317.6 7.17238 318.695 7.04004 319.946 7.04004C320.511 7.04004 321.068 7.06742 321.616 7.12218C322.172 7.17694 322.684 7.25908 323.149 7.3686C323.624 7.47812 324.034 7.61959 324.381 7.79299C324.728 7.95727 324.979 8.15349 325.134 8.38166C325.125 8.4638 325.116 8.55963 325.107 8.66915C325.098 8.77867 325.079 8.96577 325.052 9.23044C325.024 9.48598 324.983 9.85105 324.929 10.3256C324.874 10.7911 324.796 11.4254 324.696 12.2285L322.903 12.1053C322.903 11.4391 322.843 10.8869 322.725 10.4488C322.615 10.0108 322.423 9.66395 322.15 9.40841C321.876 9.14373 321.506 8.9612 321.041 8.86081C320.575 8.75129 319.987 8.69653 319.275 8.69653C318.672 8.69653 318.129 8.77411 317.646 8.92926C317.162 9.07528 316.747 9.2852 316.4 9.559C316.062 9.8328 315.802 10.1659 315.619 10.5584C315.437 10.9417 315.346 11.3661 315.346 11.8315ZM337.715 9.76435L334.279 19.7991H341.206L337.838 9.76435H337.715ZM345.956 23.4543C346.102 23.8376 346.239 24.1662 346.367 24.44C346.504 24.7047 346.641 24.9419 346.778 25.1519C346.988 25.2066 347.198 25.2431 347.408 25.2614C347.627 25.2705 347.855 25.2751 348.092 25.2751H348.694L349.091 27.1917C348.48 27.1004 347.9 27.0456 347.353 27.0274C346.814 27.0091 346.29 27 345.778 27C345.404 27 345.044 27 344.697 27C344.359 27.0091 344.026 27.0183 343.698 27.0274C343.369 27.0456 343.04 27.0639 342.712 27.0821C342.383 27.1095 342.046 27.146 341.699 27.1917L341.439 25.2751H341.671C341.936 25.2751 342.183 25.2705 342.411 25.2614C342.639 25.2522 342.844 25.2157 343.027 25.1519C343.018 24.9419 342.981 24.7001 342.917 24.4263C342.863 24.1525 342.767 23.8422 342.63 23.4954L341.726 21.2091H333.827L333.088 23.4543C332.978 23.7829 332.896 24.0703 332.841 24.3168C332.796 24.5541 332.773 24.7777 332.773 24.9876C332.773 25.0606 332.805 25.1153 332.869 25.1519C332.933 25.1884 333.01 25.2157 333.102 25.234C333.202 25.2522 333.307 25.2659 333.416 25.2751C333.535 25.2751 333.649 25.2751 333.759 25.2751H334.388L334.265 27.1917C333.754 27.1004 333.257 27.0456 332.773 27.0274C332.298 27.0091 331.828 27 331.363 27C330.669 27 330.017 27.0091 329.405 27.0274C328.794 27.0456 328.141 27.1004 327.448 27.1917L327.858 25.2751H328.488C328.734 25.2751 328.963 25.2705 329.173 25.2614C329.392 25.2522 329.602 25.2157 329.802 25.1519C329.957 24.9419 330.103 24.7001 330.24 24.4263C330.377 24.1525 330.51 23.8422 330.637 23.4954C330.747 23.1942 330.92 22.7333 331.158 22.1127C331.395 21.4921 331.673 20.7756 331.993 19.9634C332.312 19.142 332.654 18.2612 333.019 17.3212C333.394 16.3812 333.768 15.4411 334.142 14.5011L336.99 7.32753H338.249C338.66 7.32753 338.984 7.34579 339.221 7.38229C339.467 7.4188 339.7 7.47356 339.919 7.54657L345.956 23.4543ZM361.18 5.36987C360.732 5.36987 360.381 5.36987 360.126 5.36987C359.879 5.36987 359.692 5.36987 359.564 5.36987C359.446 5.36987 359.373 5.36987 359.345 5.36987C359.318 5.36074 359.304 5.35618 359.304 5.35618C359.678 4.71732 359.998 4.16515 360.262 3.6997C360.536 3.22511 360.774 2.81897 360.974 2.48129C361.175 2.13448 361.344 1.84242 361.481 1.60513C361.627 1.35871 361.764 1.13967 361.892 0.948014H365.328C365.328 0.948014 365.273 1.0119 365.163 1.13967C365.054 1.26745 364.844 1.49561 364.534 1.82417C364.233 2.15273 363.813 2.6045 363.274 3.17948C362.736 3.74533 362.038 4.47546 361.18 5.36987ZM367.792 19.936C367.792 21.1863 367.596 22.2815 367.203 23.2216C366.82 24.1616 366.281 24.9511 365.588 25.5899C364.903 26.2288 364.082 26.7079 363.124 27.0274C362.165 27.3468 361.116 27.5065 359.975 27.5065C358.606 27.5065 357.438 27.3057 356.47 26.9042C355.512 26.5026 354.732 25.9322 354.129 25.1929C353.527 24.4445 353.084 23.5456 352.801 22.496C352.528 21.4464 352.391 20.2737 352.391 18.9777V10.8322C352.391 10.1112 352.318 9.56356 352.172 9.18937C351.971 9.11635 351.752 9.07528 351.515 9.06616C351.286 9.0479 351.035 9.03878 350.762 9.03878H349.53V7.51919C350.159 7.44618 350.821 7.39598 351.515 7.3686C352.208 7.34122 352.984 7.32753 353.842 7.32753C354.727 7.32753 355.544 7.33666 356.292 7.35491C357.05 7.37317 357.707 7.43249 358.264 7.53288V9.03878H356.991C356.726 9.03878 356.475 9.0479 356.238 9.06616C356.009 9.07528 355.79 9.11635 355.58 9.18937C355.453 9.59094 355.389 10.1385 355.389 10.8322V20.1413C355.389 21.0996 355.507 21.9347 355.745 22.6466C355.982 23.3585 356.32 23.9517 356.758 24.4263C357.196 24.8917 357.721 25.2431 358.332 25.4804C358.953 25.7177 359.637 25.8364 360.386 25.8364C362.12 25.8364 363.397 25.2888 364.219 24.1936C365.049 23.0984 365.465 21.4008 365.465 19.1009V10.8322C365.465 10.1112 365.392 9.56356 365.246 9.18937C365.045 9.11635 364.826 9.07528 364.588 9.06616C364.351 9.0479 364.1 9.03878 363.836 9.03878H362.603V7.51919C363.206 7.44618 363.826 7.39598 364.465 7.3686C365.113 7.34122 365.834 7.32753 366.628 7.32753C367.431 7.32753 368.175 7.33666 368.86 7.35491C369.544 7.37317 370.147 7.43249 370.667 7.53288V9.03878H369.407C369.134 9.03878 368.878 9.0479 368.641 9.06616C368.403 9.07528 368.189 9.11635 367.997 9.18937C367.924 9.39928 367.869 9.63657 367.833 9.90125C367.806 10.1659 367.792 10.4762 367.792 10.8322V19.936ZM376.704 27C375.974 27 375.248 27.0183 374.527 27.0548C373.806 27.0913 373.076 27.1369 372.337 27.1917V25.2614H373.569C373.834 25.2614 374.085 25.2568 374.322 25.2477C374.559 25.2386 374.778 25.2021 374.979 25.1382C375.116 24.7275 375.184 24.1753 375.184 23.4817V11.325C375.184 10.9143 375.166 10.5538 375.13 10.2435C375.093 9.92406 375.043 9.63201 374.979 9.36734C374.778 9.29432 374.559 9.25325 374.322 9.24413C374.085 9.22587 373.834 9.21675 373.569 9.21675H372.159V7.61502C373.4 7.45987 374.81 7.33666 376.389 7.24539C377.968 7.15413 379.766 7.10849 381.783 7.10849C382.705 7.10849 383.59 7.17694 384.439 7.31384C385.288 7.44162 386.077 7.66066 386.807 7.97096C387.537 8.28127 388.199 8.69197 388.792 9.20306C389.386 9.71415 389.892 10.3485 390.312 11.106C390.741 11.8543 391.069 12.7396 391.298 13.7618C391.526 14.7749 391.64 15.9476 391.64 17.2801C391.64 18.8317 391.466 20.1505 391.12 21.2365C390.773 22.3135 390.28 23.2124 389.641 23.9334C389.011 24.6545 388.245 25.2203 387.341 25.631C386.447 26.0417 385.443 26.3474 384.329 26.5482C383.225 26.749 382.029 26.8768 380.743 26.9316C379.456 26.9772 378.11 27 376.704 27ZM378.142 25.2751C378.288 25.2933 378.429 25.3024 378.566 25.3024C378.703 25.3024 378.84 25.3024 378.977 25.3024C380.017 25.3024 380.971 25.2568 381.838 25.1655C382.705 25.0652 383.485 24.9009 384.179 24.6727C384.872 24.4354 385.479 24.1205 386 23.7281C386.529 23.3265 386.967 22.8246 387.314 22.2222C387.661 21.6198 387.921 20.908 388.094 20.0866C388.268 19.256 388.354 18.2932 388.354 17.198C388.354 15.6556 388.213 14.3642 387.93 13.3237C387.656 12.2742 387.232 11.43 386.657 10.7911C386.082 10.1522 385.356 9.6959 384.48 9.4221C383.613 9.1483 382.586 9.0114 381.4 9.0114C380.761 9.0114 380.149 9.02052 379.565 9.03878C378.981 9.05703 378.507 9.06616 378.142 9.06616V25.2751ZM409.724 7.32753L410.094 9.09354C410.14 9.3217 410.185 9.55443 410.231 9.79173C410.276 10.0199 410.313 10.2389 410.34 10.4488C410.377 10.6496 410.404 10.8276 410.422 10.9828C410.45 11.1379 410.464 11.2566 410.464 11.3387L408.451 11.4208L408.342 10.7363C408.305 10.5355 408.259 10.3256 408.205 10.1066C408.159 9.87843 408.1 9.65939 408.027 9.44948C407.707 9.30345 407.269 9.20306 406.712 9.1483C406.156 9.09354 405.421 9.06616 404.508 9.06616C404.399 9.06616 404.253 9.07072 404.07 9.07985C403.897 9.07985 403.651 9.08441 403.331 9.09354C403.012 9.09354 402.606 9.10266 402.113 9.12092C401.629 9.13004 401.022 9.14373 400.292 9.16199V16.0617H404.946C405.129 16.0617 405.298 16.0526 405.453 16.0343C405.617 16.007 405.768 15.9476 405.905 15.8564C406.042 15.756 406.165 15.6054 406.274 15.4046C406.393 15.1947 406.503 14.9072 406.603 14.5421H407.315C407.315 15.3727 407.297 16.2078 407.26 17.0474C407.233 17.8779 407.192 18.6628 407.137 19.4021H406.274C406.165 19.0644 406.055 18.786 405.946 18.567C405.845 18.3479 405.727 18.1745 405.59 18.0468C405.453 17.919 405.298 17.8323 405.124 17.7867C404.951 17.7319 404.741 17.7045 404.495 17.7045H400.292V25.2751H406.535C407 25.2751 407.415 25.2294 407.78 25.1382C408.155 25.0469 408.415 24.9374 408.561 24.8096C408.634 24.5997 408.702 24.3168 408.766 23.9608C408.83 23.6049 408.885 23.1257 408.93 22.5234C409.158 22.5234 409.428 22.5279 409.738 22.5371C410.057 22.5462 410.354 22.5508 410.628 22.5508V24.1388C410.628 24.5769 410.61 25.0332 410.573 25.5078C410.546 25.9824 410.518 26.384 410.491 26.7125C410.217 26.7947 409.925 26.8677 409.615 26.9316C409.314 26.9863 408.958 27.0319 408.547 27.0684C408.136 27.1141 407.653 27.146 407.096 27.1643C406.548 27.1825 405.896 27.1917 405.138 27.1917C404.572 27.1917 404.029 27.1825 403.509 27.1643C402.989 27.146 402.473 27.1232 401.962 27.0958C401.451 27.0684 400.935 27.0456 400.415 27.0274C399.904 27.0091 399.37 27 398.813 27C398.065 27 397.335 27.0091 396.623 27.0274C395.92 27.0456 395.199 27.1004 394.46 27.1917V25.2751H395.678C395.952 25.2751 396.208 25.2705 396.445 25.2614C396.682 25.2522 396.897 25.2157 397.088 25.1519C397.234 24.7685 397.307 24.2164 397.307 23.4954V10.928C397.307 10.5812 397.285 10.28 397.239 10.0245C397.203 9.76891 397.148 9.54531 397.075 9.35365C396.901 9.28063 396.71 9.23956 396.5 9.23044C396.29 9.22131 396.066 9.21675 395.829 9.21675H394.309V7.73823C395.195 7.57395 396.244 7.46443 397.458 7.40967C398.672 7.35491 399.968 7.32753 401.346 7.32753H409.724Z" fill="black"/>
</svg>
